<svg width="373" height="355" viewBox="0 0 373 355" fill="none" xmlns="http://www.w3.org/2000/svg">
<path d="M39.5164 35.5759H121.937L148.499 98.6611L105.82 125.688C103.307 127.28 101.246 129.438 99.8215 131.969C98.3965 134.499 97.6512 137.325 97.6516 140.195C97.7067 141.834 97.6516 140.212 97.6516 140.212V140.578C97.6612 141.358 97.6979 142.137 97.7618 142.915C97.8719 144.345 98.0555 146.28 98.4043 148.669C99.1202 153.377 100.497 159.863 103.177 167.5C108.574 182.845 119.147 202.705 139.743 222.268C160.339 241.832 181.247 251.876 197.383 257.002C205.441 259.548 212.252 260.838 217.245 261.535C220.063 261.909 222.9 262.142 225.744 262.233L225.982 262.25H226.129C226.129 262.25 228.185 262.146 226.148 262.25C229.556 262.249 232.896 261.346 235.794 259.643C238.693 257.94 241.035 255.504 242.558 252.608L254.857 229.243L336.287 242.146V317.472C297.536 322.79 192.867 328.038 110.63 249.923C28.3923 171.807 33.8993 72.3669 39.5164 35.5759ZM135.705 148.669L168.875 127.675C175.883 123.236 181.07 116.642 183.566 109C186.063 101.359 185.717 93.1341 182.587 85.7058L156.026 22.6206C153.3 16.15 148.595 10.6036 142.519 6.69688C136.443 2.79019 129.274 0.702414 121.937 0.702881H38.5619C21.8758 0.702881 6.18092 11.7053 3.44579 28.8977C-2.79544 67.9903 -11.2578 183.455 84.6736 274.578C180.605 365.701 302.162 357.645 343.317 351.734C361.417 349.119 373 334.228 373 318.378V242.146C373.001 233.891 369.919 225.903 364.302 219.604C358.686 213.304 350.899 209.102 342.326 207.744L260.897 194.858C253.152 193.63 245.197 194.793 238.199 198.176C231.201 201.559 225.53 206.984 222.017 213.655L215.666 225.738C213.42 225.213 211.197 224.602 209.003 223.907C197.621 220.316 181.816 212.922 165.699 197.613C149.582 182.304 141.799 167.291 138.018 156.463C137.115 153.903 136.349 151.302 135.723 148.669H135.705Z" fill="white"/>
</svg>
