<svg xmlns="http://www.w3.org/2000/svg" viewBox="0 0 2636.4 2983.99"><defs><style>.cls-1{fill:#fd9d24;}.cls-2{fill:#fc7d27;}.cls-3{fill:#650000;}.cls-4{fill:#ad3a38;}.cls-5{opacity:0.4;}.cls-6{fill:#fff;}.cls-7{opacity:0.3;}.cls-8{fill:#ffe9c2;}.cls-9{fill:#eacea2;}.cls-10{fill:#ed7626;}.cls-11{fill:#ff67a0;}.cls-12{fill:#ffa1a8;}.cls-13{fill:#512717;}.cls-14{fill:#8fdfff;}.cls-15{fill:#dbdbdb;}.cls-16{fill:#e5e5e5;}.cls-17{fill:#0096f0;}.cls-18{fill:#1673f9;}.cls-19{fill:#b199c5;}</style></defs><title>Ресурс 1</title><g id="Слой_2" data-name="Слой 2"><g id="Layer_1" data-name="Layer 1"><path class="cls-1" d="M2253.49,2558.85c-84.19,211-409.46,136.83-409.82,131.45,0,0-211.58-201.13,61-160.62,18.76,2.81,36,4.66,51.82,5.61,266.43,16.64,130.32-211.49,131.27-320.69.59-69.51,41.74-114.45,74.43-139.24,20.26-15.32,49.2-10.44,63.71,10.36l.73,1a44.9,44.9,0,0,1,1.85,48.2c-24.64,43-24,81.17-13.74,119.29C2237.62,2338.77,2307.76,2422.88,2253.49,2558.85Z"/><path class="cls-2" d="M2253.49,2558.85c-84.19,211-409.46,136.83-409.82,131.45,0,0-211.58-201.13,61-160.62,18.76,2.81,36,4.66,51.82,5.61,52.41,39.34,153.43,91.84,249.25,9.81,82.39-70.54-.46-207.78,9-290.85C2237.62,2338.77,2307.76,2422.88,2253.49,2558.85Z"/><path class="cls-3" d="M1977.34,2725.42a616.18,616.18,0,0,1-93.36-7.2c-37-5.78-50.7-10.12-55.7-17.63-22.91-22.29-101.66-104.56-75.66-157.86,16.73-34.31,65.9-44.14,154.78-30.93,90,13.39,149.39,5.38,176.32-23.82,34.1-37,17.07-110.29,2.05-175-8.39-36.08-16.3-70.16-16.06-98.56.65-76.27,44.75-125.58,81.63-153.51a61.93,61.93,0,0,1,47.43-11.85,63.63,63.63,0,0,1,42,26.28l.72,1a63.41,63.41,0,0,1,2.71,67.55c-33.73,58.88-14.33,106.41,10.22,166.57,27.88,68.32,59.49,145.76,15.86,255C2217,2699.21,2078,2725.42,1977.34,2725.42ZM1854,2675.18c21.56,6.59,162.58,34,271.9-12.62,53.33-22.74,90.6-59.89,110.77-110.41,38.22-95.72,10.78-163-15.75-228-24.89-61-50.62-124-8.13-198.22a26.72,26.72,0,0,0-1-28.84l-.72-1a26.92,26.92,0,0,0-18-11.27,26,26,0,0,0-20,5c-30.41,23-66.77,63.41-67.3,125-.2,24.09,7.24,56.14,15.13,90.06,17,73.43,36.38,156.65-10.7,207.69-36,39.07-104.15,50.56-208.23,35.07-96.5-14.34-113.91,4.8-116.94,11C1773.76,2581.87,1818.82,2641,1854,2675.18Zm7.67,13.86h0Zm0,0h0Zm-1.93-6.92a18.19,18.19,0,0,1,1.93,6.88A17.91,17.91,0,0,0,1859.78,2682.08Z"/><path class="cls-4" d="M2184,2107.69c5.21,14.09,15,27,28.52,37.46,38.2,29.39,115.51,50.93,183.9,43.66,90.58-9.58,102.77-49.22,221.86-49.93.72,0-47.38-124.42-143.78-181.05-28.31-16.71-60.73-27.52-97.35-27.64-97.46-.28-156.29,62.7-186.54,113.9C2178.13,2065.14,2176.53,2087.58,2184,2107.69Z"/><g class="cls-5"><path class="cls-6" d="M2580.18,2065.52c-22.74-27.36-50.6-53.81-83.52-73.17-31.38-18.54-67.33-30.57-107.94-30.66-108.12-.31-173.37,69.51-206.87,126.3-.64,1.09-1.27,2.17-1.86,3.26-1.85-15.51,1.45-31.7,10.58-47.17,30.25-51.19,89.09-114.18,186.53-113.9,36.63.13,69.05,10.94,97.36,27.67C2521,1985.16,2556.22,2028.26,2580.18,2065.52Z"/></g><g class="cls-7"><path class="cls-3" d="M2184,2107.69c5.21,14.09,15,27,28.52,37.46,38.2,29.39,115.51,50.93,183.9,43.66,90.58-9.58,102.77-49.22,221.86-49.93.72,0-47.38-124.42-143.78-181.05,13.88,18.56,25.31,43.77,19.93,73.41-5.11,28.17-62.56,62.21-150.26,57.59-52.26-2.73-62.52-33.17-62.52-33.17s4.23,54-23.66,63.88C2231.55,2129,2204.38,2122.48,2184,2107.69Z"/></g><path class="cls-3" d="M2369,2208.32c-61.83,0-128.66-18.92-167.54-48.84-41.18-31.69-51.81-81.77-26.46-124.62,27.15-45.89,89.38-122.75,201.39-122.75h.77c172.54.54,259.15,214.62,259.16,226.73a18.11,18.11,0,0,1-18,18.13c-64.55.39-95,12.43-127.32,25.17-25.26,10-51.38,20.29-92.71,24.67A278.77,278.77,0,0,1,2369,2208.32Zm7.41-260c-94.09,0-147,65.74-170.27,105-16.09,27.19-9.43,56.9,17.38,77.53,32.64,25.12,105.53,47,171,40,36.44-3.86,59.17-12.83,83.24-22.33,29.33-11.58,59.52-23.5,113.17-26.81-25.11-51.23-97.2-173-213.84-173.41Z"/><path class="cls-3" d="M2602.47,2147.78c-21.4-24.29-59.11-30-91.51-28.36-39.65,1.67-78.27,16.25-118.17,16.83-26.8.66-56.27-1.34-79.64-16.4-2.05-1.75-8.78-4.94-5.71-8.78a3.78,3.78,0,0,1,.43-.38l11.85-8.7c.18-.13,1.73.73,2.83,1.08,34.07,10.7,70.84,2.38,105-5.22,26.75-7.06,53-15.18,81-16.89,44.47-3.63,97.48,7.07,124.1,46.85,14.38,21.18-16.58,41.67-30.2,20Z"/><path class="cls-1" d="M930.05,2553.78s-103.14-187.5-281.15-162c-104.26,15-141.06,138-141.06,138-62.24-129.27-288.07-115.71-292.59,111.51-2.6,130.25,43.5,210.05,94.29,264.74,112.22,120.84,266.62,27,339.36-6.54S947.41,2936,1076,2860.91"/><path class="cls-1" d="M1076.05,2860.9C947.4,2936,721.62,2866,648.91,2899.51s-227.14,127.39-339.37,6.56c-36.49-39.29-70.59-91.61-85.87-166.32a431.56,431.56,0,0,1-8.46-85.37v-.09c-.09-4.25,0-8.59,0-13,4.52-227.18,230.34-240.75,292.57-111.51,0,0,.58-1.9,1.76-5.24,8.41-23.65,48-119.61,139.32-132.72a227.81,227.81,0,0,1,114.72,12.79C870.44,2445.42,930,2553.77,930,2553.77Z"/><g class="cls-5"><path class="cls-6" d="M530.44,2587.18c-76.88-107.89-174.69-107.89-229.49-72.26-71.58,46.58-85,133.94-85.74,139.37-.09-4.25,0-8.59,0-13,4.52-227.18,230.34-240.75,292.57-111.51,0,0,.58-1.9,1.76-5.24Z"/></g><path class="cls-2" d="M1076.05,2860.9C947.4,2936,721.62,2866,648.91,2899.51s-227.14,127.39-339.37,6.56c-36.49-39.29-70.59-91.61-85.87-166.32,25,46.58,84.67,127.88,180.43,117.24,144.17-16,119.1-272.75,117.65-280.75,2.31,5,43.1,92.56,90.35,74.88,36.72-13.7,3.21-75.11,54.81-178.75,11.35-22.79,51-46.62,96.72-67.74C870.44,2445.42,930,2553.77,930,2553.77Z"/><path class="cls-3" d="M444,2984c-50.62,0-102.28-16.69-147.71-65.61-68.93-74.23-101.36-165-99.12-277.42,2.6-130.73,75.12-192.9,142.12-207.49,63.24-13.75,126.6,9.27,165.06,57.1,20-40.93,63.35-105.35,142-116.64,188.26-27,295.11,163,299.57,171.13a18.09,18.09,0,0,1-31.69,17.46h0c-1-1.77-99.5-176.28-262.74-152.78-91.33,13.11-126,124.17-126.31,125.3a18.1,18.1,0,0,1-33.62,2.63c-25.74-53.47-85.18-81.78-144.57-68.85-69.3,15.09-111.78,79.72-113.64,172.87-2.07,104,26.36,184.12,89.46,252.07,92.38,99.47,219.35,37.54,295.21.53,8.46-4.13,16.28-7.94,23.33-11.19,33.49-15.44,89.84-12,155.09-8,88.46,5.43,198.53,12.17,270.5-29.82a18.09,18.09,0,1,1,18.23,31.24c-81.45,47.52-197.61,40.41-290.94,34.69-57.87-3.55-112.52-6.9-137.74,4.73-6.84,3.16-14.41,6.85-22.61,10.85C587.12,2949.61,516.64,2984,444,2984Z"/><ellipse class="cls-8" cx="385.27" cy="2744.29" rx="79.3" ry="106.85" transform="translate(-455.74 103.79) rotate(-9.68)"/><ellipse class="cls-8" cx="435.6" cy="2591.31" rx="35.73" ry="26.52" transform="translate(-2164.14 2973.37) rotate(-88.82)"/><ellipse class="cls-8" cx="349.37" cy="2569.44" rx="37.14" ry="50.04" transform="matrix(1, -0.09, 0.09, 1, -235.71, 43.22)"/><ellipse class="cls-8" cx="285.92" cy="2633.49" rx="26.83" ry="36.14" transform="translate(-722.18 183.85) rotate(-16.17)"/><path class="cls-3" d="M550.4,2753.56c-1.13-37.38-9.1-75-18.84-111.22-10-35.85-22.58-72-40-104.58-10.72-21.34,19.82-37.94,31.86-17.2,16.62,37.3,26.7,76,34.53,115.63,7.24,38.92,12.4,78,10.51,117.82a9.05,9.05,0,0,1-18.09-.45Z"/><path class="cls-1" d="M1439.26,2553.78s103.14-187.5,281.15-162c104.26,15,141.06,138,141.06,138,62.24-129.27,288.07-115.71,292.59,111.51,2.6,130.25-43.5,210.05-94.29,264.74-112.22,120.84-266.62,27-339.36-6.54s-298.51,36.43-427.14-38.62"/><path class="cls-1" d="M1293.26,2860.9c128.65,75.06,354.43,5.11,427.14,38.61s227.14,127.39,339.37,6.56c36.49-39.29,70.59-91.61,85.87-166.32a431.56,431.56,0,0,0,8.46-85.37v-.09c.09-4.25,0-8.59,0-13-4.52-227.18-230.35-240.75-292.57-111.51,0,0-.58-1.9-1.76-5.24-8.41-23.65-48-119.61-139.32-132.72a227.81,227.81,0,0,0-114.72,12.79c-106.81,40.79-166.41,149.14-166.41,149.14Z"/><g class="cls-5"><path class="cls-6" d="M1838.87,2587.18c76.88-107.89,174.69-107.89,229.49-72.26,71.58,46.58,85,133.94,85.74,139.37.09-4.25,0-8.59,0-13-4.52-227.18-230.35-240.75-292.57-111.51,0,0-.58-1.9-1.76-5.24Z"/></g><path class="cls-2" d="M1293.26,2860.9c128.65,75.06,354.43,5.11,427.14,38.61s227.14,127.39,339.37,6.56c36.49-39.29,70.59-91.61,85.87-166.32-25,46.58-84.68,127.88-180.43,117.24-144.17-16-119.1-272.75-117.65-280.75-2.31,5-43.1,92.56-90.35,74.88-36.72-13.7-3.21-75.11-54.81-178.75-11.35-22.79-51-46.62-96.72-67.74-106.81,40.79-166.41,149.14-166.41,149.14Z"/><path class="cls-3" d="M1925.32,2984c-72.65,0-143.12-34.38-189.87-57.19-8.2-4-15.78-7.69-22.61-10.85-25.23-11.62-79.88-8.27-137.74-4.73-93.34,5.73-209.49,12.84-290.94-34.69a18.09,18.09,0,1,1,18.23-31.24c72,42,182,35.25,270.5,29.82,65.24-4,121.59-7.45,155.09,8,7,3.25,14.87,7.06,23.33,11.19,75.87,37,202.83,98.94,295.21-.53,63.1-68,91.53-148.05,89.46-252.07-1.85-93.15-44.34-157.78-113.65-172.87-59.35-12.93-118.82,15.39-144.56,68.85a18.09,18.09,0,0,1-33.63-2.66c-.33-1.1-35-112.16-126.31-125.27-163.19-23.44-261.76,151-262.73,152.78a18.09,18.09,0,0,1-31.69-17.46c4.46-8.1,111.32-198.18,299.56-171.13,78.65,11.29,122,75.71,142,116.64,38.46-47.83,101.82-70.84,165-57.1,67,14.59,139.52,76.76,142.12,207.49,2.23,112.44-30.19,203.19-99.12,277.42C2027.61,2967.29,1975.93,2984,1925.32,2984Z"/><ellipse class="cls-8" cx="1984.03" cy="2744.29" rx="106.85" ry="79.3" transform="translate(-1054.67 4238.88) rotate(-80.32)"/><ellipse class="cls-8" cx="1933.71" cy="2591.31" rx="26.52" ry="35.73" transform="translate(-53.03 40.43) rotate(-1.18)"/><ellipse class="cls-8" cx="2019.93" cy="2569.44" rx="50.04" ry="37.14" transform="translate(-725.01 4343.55) rotate(-84.7)"/><ellipse class="cls-8" cx="2083.39" cy="2633.49" rx="36.14" ry="26.83" transform="translate(-1026.17 3900.94) rotate(-73.83)"/><path class="cls-3" d="M1800.82,2754c-2.22-59.57,8.5-118.22,24.21-175.42a448.77,448.77,0,0,1,20.2-56.75,18.11,18.11,0,1,1,32.47,16c-25.92,49.46-42.2,104.93-52.59,159.87-3.32,18.65-5.78,37.48-6.21,56.07-.48,11.42-17.19,11.76-18.08.27Z"/><path class="cls-1" d="M1678.72,2746.08s-90.38,161.48-492.41,161.48c-77.08,0-142.74-5.92-198.49-15.57-67.43-11.58-120.38-28.49-161.64-46.8-102.72-45.41-133-99.11-133-99.11-8.88-60.27-4.2-131.32,7.49-203.39,15.19-93.45,42.28-188.57,67.06-264.09,29.14-88.65,55.15-150.22,55.15-150.22l25.86-26.66,337.77-348.06,336.7,348.06,25.8,26.66s21.33,50.47,47,125.88c29.35,86.23,64.36,205,79.61,317.9C1684,2634,1686.37,2694.05,1678.72,2746.08Z"/><path class="cls-2" d="M1678.74,2746.06s-90.4,161.52-492.44,161.52c-77.06,0-142.72-5.92-198.47-15.6-67.42-11.58-120.37-28.49-161.66-46.8-102.69-45.4-133-99.12-133-99.12-8.86-60.23-4.21-131.32,7.51-203.35,6.64-40.88,15.55-82.08,25.59-121.78,20.67,18.41,52.59,41.06,99.89,62,41.29,18.32,94.24,35.23,161.66,46.8,55.75,9.64,121.41,15.56,198.47,15.56,276.74,0,405.79-76.51,459.38-124.22,12.39,49.29,23.11,100.8,29.94,151.12C1683.93,2634,1686.38,2694.06,1678.74,2746.06Z"/><path class="cls-3" d="M687.33,2571c8.68-156.37,61.79-305.12,118.9-449.61a17.14,17.14,0,0,1,3.68-5.55l363.63-374.73a18.09,18.09,0,0,1,25.58-.38c.41-.22,362.46,375.12,362.89,375.11a17.89,17.89,0,0,1,3.43,5c8.27,18.22,15.51,36.31,22.75,54.61,35.26,90.59,63.89,183.88,83.16,279.25,7.34,38.27,12.36,77.15,13.21,116.29,0,10.53-15,12.93-17.9,2.51-9.77-37.26-18.84-74.28-28.78-111.18-23.74-92.53-53.47-183.4-85.68-273.32-6.44-17.94-13.22-36-19.84-53.54L1536,2141s-362.5-374.71-362.5-374.73l26,0L835.88,2141l3.68-5.55c-14.43,34.92-27.86,71-40.48,107.08-25.39,72.16-45,146.09-66.15,219.53q-15.21,55.28-27.68,111.36c-2,10.17-18.32,9.11-17.92-2.44Z"/><path class="cls-3" d="M1624.67,2811.54c-100.82,85.23-253.1,108.12-381.28,114.64-95.48,4.15-191.63-.56-285.78-20.64-75-16.32-151.89-41.54-210.08-94A9.12,9.12,0,0,1,758,2796.79c65.45,34,134.83,57.62,207.16,71.73,81.36,15.44,165.52,20.13,248.82,18.63,64.26-1,130.12-6.28,193.2-18.14,72.25-14.35,142.65-36.33,207-72.21,9.14-5.3,18.83,7.42,10.47,14.74Z"/><path class="cls-1" d="M814.5,2115.79a323.22,323.22,0,0,1-24.91,75.74C727.41,2322.4,586,2382.4,474.05,2314.21c-92.57-56.34-94.47-160.21-62-266.47v0c51.55-168.58,189.65-343.12,189.65-343.12S839,1993,814.5,2115.79Z"/><path class="cls-2" d="M789.59,2191.53C727.41,2322.4,586,2382.4,474.05,2314.21c-92.57-56.34-94.47-160.21-62-266.47-.27,3.07-11.89,129.78,33.15,121.91,38.71-6.74-2-137.65,71.81-206.29C557.48,1925.73,705.8,2091,789.59,2191.53Z"/><path class="cls-3" d="M574.32,2360.53a209.93,209.93,0,0,1-109.7-30.87c-47.34-28.82-76.29-71.06-86.05-125.53-35.62-198.9,199-498.15,209-510.79a18.09,18.09,0,0,1,28.16-.26c24.84,30.19,242,298.71,216.56,426.24-20.29,101.77-83,184.7-167.61,221.86A224.52,224.52,0,0,1,574.32,2360.53ZM602.16,1734c-49.76,67.42-216,307.16-188,463.82,8,44.43,30.61,77.46,69.25,101,50.72,30.88,109.91,34.19,166.66,9.28,73.85-32.41,128.68-105.61,146.66-195.8C814.2,2024.83,673.56,1824.29,602.16,1734Z"/><path class="cls-1" d="M1554.93,2115.79a323.7,323.7,0,0,0,24.92,75.74c62.17,130.87,203.62,190.87,315.54,122.68,92.56-56.34,94.46-160.21,62-266.47v0c-51.55-168.58-189.65-343.12-189.65-343.12S1530.42,1993,1554.93,2115.79Z"/><path class="cls-2" d="M1579.85,2191.53c62.17,130.87,203.62,190.87,315.54,122.68,92.56-56.34,94.46-160.21,62-266.47.27,3.07,11.9,129.78-33.14,121.91-38.71-6.74,2-137.65-71.81-206.29C1812,1925.73,1663.64,2091,1579.85,2191.53Z"/><path class="cls-3" d="M1795.12,2360.53a224.6,224.6,0,0,1-90.32-19.35c-84.65-37.15-147.31-120.09-167.61-221.86-25.43-127.53,191.73-396.05,216.57-426.24a18.83,18.83,0,0,1,14.14-6.6,18.06,18.06,0,0,1,14,6.86c10,12.64,244.57,311.89,208.95,510.79-9.76,54.47-38.71,96.71-86,125.53A209.87,209.87,0,0,1,1795.12,2360.53ZM1767.28,1734c-71.4,90.33-212,290.87-194.61,378.29,18,90.19,72.82,163.39,146.67,195.8,56.74,24.91,115.94,21.61,166.66-9.28,38.63-23.53,61.28-56.56,69.25-101C1983.33,2041.12,1817,1801.38,1767.28,1734Z"/><path class="cls-4" d="M2339.93,749.25c-18.94,2.28-152.24,17.56-204.48,1.5-1.09-.39-1.93.74-1.14,1.49,8.22,7.41,29,27.88,50.13,63.79,47.51,80.61,97.32,238.78,14.16,501a1.17,1.17,0,0,1-2.13,0c-4.6-16.22-25.6-84.42-61.27-128.29a1.11,1.11,0,0,0-2,.55c.11,38.53-7.28,443.05-348.08,627.9-.84.5-1.13-.34-1.63-1-7.42-11.08-6-98.78-16.75-106.44-9.6-6.88-206.38,103.29-586.91,103.41s-577.42-109.92-587-103c-10.73,7.67-9.27,95.37-16.68,106.45-.5.7-.79,1.54-1.63,1C233.6,1633,226,1228.49,226,1190a1.11,1.11,0,0,0-2-.54c-35.65,43.88-56.6,112.1-61.19,128.33a1.13,1.13,0,0,1-2.08,0c-88.73-279-26.75-440.27,22.83-515.52,17.8-27.06,34-43,41-49.33.8-.74,0-1.88-1.13-1.48C171.3,767.46,38,752.27,19,750c-.94-.1-1.28-1-.59-1.59C35,735.25,169.72,624.06,324.61,368.58c88.14-145.4,250.67-190,383.28-199.91C780.73,108.55,893.18,28.73,986.37,19.8,1179,1.38,1179.32,147.5,1179.32,147.5s.2-146.12,192.82-127.83c93.19,8.88,205.75,88.63,278.58,148.7,132.61,9.85,295.16,54.32,383.4,199.66C2189.18,623.41,2324,734.52,2340.53,747.67,2341.22,748.21,2340.87,749.15,2339.93,749.25Z"/><g class="cls-7"><path class="cls-3" d="M2198.6,1317a1.17,1.17,0,0,1-2.13,0c-4.6-16.22-25.6-84.42-61.27-128.29a1.11,1.11,0,0,0-2,.55c.11,38.53-7.28,443.05-348.08,627.9-.84.5-1.13-.34-1.63-1-7.42-11.08-6-98.78-16.75-106.44-9.6-6.88-206.38,103.29-586.91,103.41s-577.42-109.92-587-103c-10.73,7.67-9.27,95.37-16.68,106.45-.5.7-.79,1.54-1.63,1C233.6,1633,226,1228.49,226,1190a1.11,1.11,0,0,0-2-.54c-35.65,43.88-56.6,112.1-61.19,128.33a1.13,1.13,0,0,1-2.08,0c-88.73-279-26.75-440.27,22.83-515.52-11,51.64-37.57,205.14,12.22,292.18L333.16,984.75s-27.88,209.49,49.86,316c17.15-54.71,113.41-206.45,216.69-206.48,161.6,0,400.88,81.33,583,81.28s421.3-81.61,582.9-81.66c103.28,0,199.64,151.64,216.82,206.35,77.67-106.53,49.66-316,49.66-316l137.39,109.52c45.73-80,26.89-216.06,15-277.69C2232,896.64,2281.76,1054.81,2198.6,1317Z"/></g><g class="cls-5"><path class="cls-6" d="M2339.93,749.25c-7,.84-29.38,3.42-57.57,5.56-56.9-57.11-148.35-161.75-248.22-326.23-88.24-145.35-250.79-189.81-383.4-199.66-72.83-60.08-185.39-139.83-278.58-148.7C1179.54,61.93,1219.8,208,1179.34,208S1179,61.93,986.39,80.34C893.2,89.27,780.75,169.1,707.91,229.22c-132.61,9.93-295.14,54.5-383.28,199.91-99.77,164.54-191.15,269.24-248,326.39C48.42,753.4,26,750.83,19,750c-.94-.1-1.28-1-.59-1.59C35,735.25,169.72,624.06,324.61,368.58c88.14-145.4,250.67-190,383.28-199.91C780.73,108.55,893.18,28.73,986.37,19.8,1179,1.38,1179.32,147.5,1179.32,147.5s.2-146.12,192.82-127.83c93.19,8.88,205.75,88.63,278.58,148.7,132.61,9.85,295.16,54.32,383.4,199.66C2189.18,623.41,2324,734.52,2340.53,747.67,2341.22,748.21,2340.87,749.15,2339.93,749.25Z"/></g><path class="cls-3" d="M575,1835.84a19.29,19.29,0,0,1-9.19-2.33c-287.49-155.75-344.26-460.74-355.28-588.9-17.38,34.42-27.74,69.1-30.28,78.06-.07.27-.15.52-.24.78a19.26,19.26,0,0,1-18.8,13A19,19,0,0,1,143.51,1323C46,1016.33,126.14,847.35,179.79,775.93,118,779.37,36.6,770.31,16.9,768a19,19,0,0,1-9.61-33.78C22,722.5,155.92,612,309.15,359.21,401.62,206.68,572,161.66,700.81,151.09,779,87.13,890.15,10.85,984.66,1.79c71.51-6.85,126.9,7.06,164.65,41.29a142.53,142.53,0,0,1,30,38.53,142.61,142.61,0,0,1,30-38.55C1247,8.81,1302.37-5.11,1373.86,1.67c94.62,9,205.8,85.2,284,149.11,128.85,10.49,299.22,55.39,391.79,207.87C2203,611.34,2337,721.75,2351.8,733.51a18.84,18.84,0,0,1,6.46,20.06,19,19,0,0,1-16.18,13.64c-19.73,2.38-101,11.48-162.8,8.09,53.56,71.17,134,240.14,36.57,547.21a19.13,19.13,0,0,1-18.18,13.33h-.15a19.08,19.08,0,0,1-18.19-13c-.09-.25-.17-.52-.25-.78-2.54-9-12.92-43.63-30.33-78-10.92,128.12-67.48,433.21-355,589.15a18.89,18.89,0,0,1-25.25-6.82c-5.5-8.2-6.91-21-9.57-55.36-.88-11.54-2.19-28.52-3.89-39.82-4.26,1.51-9.2,3.32-14,5.1-70.85,26-259,95-561.15,95h-.64c-301.79,0-489.8-68.77-560.61-94.68-4.87-1.78-9.8-3.58-14.06-5.09-1.69,11.3-3,28.29-3.87,39.82-2.63,34.4-4,47.17-9.5,55.33l-.08.11A18.84,18.84,0,0,1,575,1835.84ZM1776,1801.68l0,0Zm.07,0h0Zm-1182.53-110c7.54,0,18,3.82,37.54,11,69.17,25.3,252.84,92.48,548.19,92.48h.63c295.69-.1,479.5-67.47,548.7-92.83,30.67-11.24,38.9-14.27,48.74-7.22,11.75,8.39,14.08,25.72,17.73,73.12.5,6.46,1.12,14.46,1.82,21.65,128-75.73,219.77-192.46,273.08-347.3,43.37-126,45.27-233,45.21-253.14a19.19,19.19,0,0,1,34.2-11.88c20.21,24.88,35.87,56.81,46.77,83.58,36-135.24,38.79-254.25,8.19-354.35-26.36-86.21-69.47-129.76-82.05-141a19,19,0,0,1,18.68-32.19c31.69,9.66,102.81,6.73,158,1.82-51.88-48.09-160.83-161.2-280.25-357.91-86-141.59-248.27-182-369.29-191a18.16,18.16,0,0,1-10.17-4.08C1534,95.53,1438.54,44.17,1370.43,37.68c-60.68-5.77-106.6,5-136.49,31.82-35.61,32.05-36.52,77.65-36.52,78.11a18.12,18.12,0,0,1-18.09,17.93h-.08a18,18,0,0,1-18-18c0-.38-1-46-36.6-78C1094.73,42.68,1048.8,32,988.1,37.8c-87.18,8.36-194.24,83.37-268.69,144.82a18.07,18.07,0,0,1-10.16,4.09C588.23,195.78,426,236.32,340.08,378,220.77,574.77,111.85,688,60.07,736c55.32,4.87,126.35,7.74,158-1.91a19.25,19.25,0,0,1,22.22,8.15A19,19,0,0,1,237.05,766c-12.86,11.56-55.94,55.15-82.24,141.36-30.53,100.11-27.67,219.09,8.43,354.29,10.89-26.77,26.53-58.69,46.7-83.57a19.2,19.2,0,0,1,34.2,11.84c-.1,42.89,8.24,416.7,318.68,600.28.69-7.2,1.3-15.19,1.8-21.65,3.62-47.4,5.94-64.74,17.71-73.15A18,18,0,0,1,593.5,1691.66Zm-355-491.35h0Zm-8.8-431.94-.25.08ZM30,762.38l-.23.18Zm2299.18-.67.26.21ZM20.92,732l.53.07Z"/><path class="cls-1" d="M1880.5,1438.33c-32.46,107.4-160.31,175.45-298.1,218.28-191.65,59.67-402.56,70.57-402.56,70.57s-210.92-10.77-402.71-70.31c-137.82-42.74-265.71-110.71-298.19-218.09C441.11,1313.7,513.5,1228,513.5,1228S498.1,880.53,669.57,657.74c79.7-103.56,251.85-221.83,509.84-115.47h0c257.92-106.53,430.14,11.64,509.91,115.14,171.61,222.68,156.44,570.17,156.44,570.17S1918.25,1313.22,1880.5,1438.33Z"/><path class="cls-2" d="M1880.49,1438.33c-32.47,107.4-160.31,175.45-298.1,218.28-191.65,59.67-402.56,70.57-402.56,70.57s-210.92-10.77-402.71-70.31c-137.82-42.74-265.71-110.71-298.19-218.09-12.73-42-13-79.58-7.75-110.94a264.35,264.35,0,0,0,7.73,33c32.48,107.37,160.36,175.34,298.18,218.09,191.79,59.54,402.71,70.3,402.71,70.3s210.91-10.9,402.56-70.56c137.8-42.83,265.64-110.89,298.1-218.28a265.68,265.68,0,0,0,7.71-33C1893.42,1358.74,1893.19,1396.33,1880.49,1438.33Z"/><path class="cls-9" d="M1656.35,1552.57c-16.5,38.83-44.39,74.8-74,104-191.65,59.67-402.56,70.57-402.56,70.57s-210.92-10.77-402.71-70.31c-29.54-29.22-57.45-65.18-74-103.95,24,9.59,48.82,18.19,74,26,191.79,59.54,402.71,70.3,402.71,70.3s210.91-10.9,402.56-70.56C1607.54,1570.83,1632.37,1562.17,1656.35,1552.57Z"/><path class="cls-10" d="M1321.77,1323.31l-142.07,131L1037.55,1323.4s27.26-288.68,142-307.31C1294.32,1034.65,1321.77,1323.31,1321.77,1323.31Z"/><path class="cls-8" d="M1582.4,1656.61c-191.65,59.67-402.56,70.57-402.56,70.57s-210.92-10.77-402.71-70.31c-70-69.18-130.59-176-53.75-269.41,123.56-150.16,456.34-35.37,456.34-35.37s332.7-115,456.36,35.07C1713,1480.53,1652.37,1587.39,1582.4,1656.61Z"/><path class="cls-3" d="M1244,1520.66a146.18,146.18,0,0,1-4.61,36.9c-9.14,35.22-31,60-56.57,60s-47.44-24.83-56.57-60a146.18,146.18,0,0,1-4.61-36.9c0-53.5,27.4-96.91,61.18-96.91S1244,1467.16,1244,1520.66Z"/><path class="cls-11" d="M1239.34,1557.56c-9.14,35.22-31,60-56.57,60s-47.44-24.83-56.57-60a41.78,41.78,0,0,1,24.83-8.37c12.25,0,23.33,5.47,31.74,14.52,8.41-9,19.49-14.52,31.74-14.52A41.78,41.78,0,0,1,1239.34,1557.56Z"/><path class="cls-3" d="M1182.77,1635.69c-44.45,0-79.27-50.52-79.27-115s34.82-115,79.27-115,79.26,50.51,79.26,115S1227.21,1635.69,1182.77,1635.69Zm0-193.84c-20.39,0-43.1,32.37-43.1,78.83s22.71,78.84,43.1,78.84,43.09-32.38,43.09-78.84S1203.15,1441.85,1182.77,1441.85Z"/><path class="cls-9" d="M1656.35,1552.57c-16.5,38.83-44.39,74.8-74,104-191.65,59.67-402.56,70.57-402.56,70.57s-210.92-10.77-402.71-70.31c-29.54-29.22-57.45-65.18-74-103.95,24,9.59,48.82,18.19,74,26,191.79,59.54,402.71,70.3,402.71,70.3s210.91-10.9,402.56-70.56C1607.54,1570.83,1632.37,1562.17,1656.35,1552.57Z"/><path class="cls-3" d="M1179.82,1745.26h-.92c-26-1.33-636.82-35.49-717.25-301.22-35-115.71,17.26-199.57,33.55-221.9-1.32-51.08-2.35-364.42,160.05-575.44,46.26-60.11,220.06-245.48,524.18-124,304-121.71,478,63.54,524.26,123.61,162.53,210.91,161.7,524.26,160.42,575.34,16.3,22.32,68.64,106.15,33.69,221.88-80.26,265.78-691.09,300.33-717,301.67C1180.44,1745.26,1180.13,1745.26,1179.82,1745.26ZM985.36,518.82c-169.45,0-269.25,108.1-301.45,149.93-165.32,214.83-152.49,555.06-152.34,558.47a18.07,18.07,0,0,1-4.26,12.47c-2.65,3.18-65.43,80.25-31,193.86,71.77,237.11,656.45,274,683.54,275.51,27.16-1.58,611.75-38.8,683.36-276,34.54-114.39-30.5-193.06-31.16-193.84a18.13,18.13,0,0,1-4.27-12.47c.15-3.41,12.76-343.65-152.7-558.37C1632.35,613,1471,441.44,1186.34,559a18.84,18.84,0,0,1-7,1.37,18.17,18.17,0,0,1-6.8-1.36C1102.76,530.22,1040.39,518.82,985.36,518.82Z"/><path class="cls-8" d="M1363.84,1460.5c-2.69,47.86-53.24,94-105.63,80.69-77-19.5-75.57-123.41-75.57-123.41h0s1.94,103.91-75,123.78c-52.32,13.51-103.09-32.34-106-80.18,0,0,56.41-117.23,181.08-117.27S1363.84,1460.5,1363.84,1460.5Z"/><path class="cls-9" d="M1358.31,1485c-14.82,37.6-56.81,67.14-100.09,56.18-77-19.47-75.57-123.39-75.57-123.39h-.05s2,103.92-74.95,123.78c-43.33,11.2-85.53-18.27-100.43-55.91,21.22,8.45,44.72,10.92,68.51,4.78,78.19-20.21,99.19-101.44,104.76-146.25.7,0,1.44,0,2.18,0s1.39,0,2.08,0c5.8,44.81,27.19,125.92,105.5,145.73C1313.9,1495.89,1337.29,1493.41,1358.31,1485Z"/><path class="cls-3" d="M1378.55,1461.33c-.49,46.69-35.83,88.56-80.83,100-68.59,15.63-120.16-37.35-132.66-100.75a199.74,199.74,0,0,1-4.89-43.08c-.05,0,22.68,22.86,22.48,22.8l22.42-22.9c.09,3.89-.23,7.74-.4,11.41-3,40.23-15.69,81.41-46.88,109.51-36.82,32.8-93.09,34-130.7,2.27a112.37,112.37,0,0,1-28.56-34.63c-7.24-13.73-23.59-57,2.87-58.62a14.79,14.79,0,0,1,14.91,13.18c2.88,20.19,16,39.26,32.94,50.93,35,25.23,80,9.81,97.18-29.31,9-19.31,13.4-42.31,13.69-63.9l.3-22.75c11,0,33-.26,44-.3,0,2.58.75,24.73.79,26.5,1.17,20.33,5.43,42,14.31,60.07,32.11,67.53,116.92,44.73,129.7-22.66,3-17.78,29.09-15.69,29.31,2.27Z"/><path class="cls-12" d="M753.24,476c-36.19,29.94-77.58,61.75-110.87,86.74C592.56,553,454.84,515.65,453.42,401.48c-1.68-139.39,145.22-164.81,213.2-127C720.3,304.35,747.14,407.92,753.24,476Z"/><path class="cls-13" d="M642.37,580.81a17.85,17.85,0,0,1-3.48-.34c-47.35-9.29-201.95-49.65-203.56-178.76-.72-60.23,24.73-108.82,71.68-136.8,50.23-30,121.06-32.57,168.4-6.23C739,294,765.57,410.89,771.26,474.36a18.11,18.11,0,0,1-6.49,15.56c-38.25,31.63-81.77,64.92-111.53,87.27A18.11,18.11,0,0,1,642.37,580.81Zm-44-304.09c-24.06,0-50,5.66-72.87,19.26-25,14.93-54.74,45.32-54,105.29C472.68,495.63,582.65,531.36,638,543.36c27-20.38,63.16-48.12,96.24-75.2-8.21-73.23-36.3-155.54-76.44-177.87C642.76,281.92,621.46,276.72,598.4,276.72Z"/><path class="cls-1" d="M813.57,422.34c-65,65.16-233.75,186.45-233.75,186.45S471.29,590,397.91,510.22a242.37,242.37,0,0,1-53.55-91.88C293.16,256.56,474.09,78.53,668.21,139.9c46.94,14.82,78.71,52.06,100.24,94.79C810.52,318.07,813.57,422.34,813.57,422.34Z"/><path class="cls-2" d="M813.57,422.34c-65,65.16-233.75,186.45-233.75,186.45S471.29,590,397.91,510.22c33.58,3.35,67.07-5.21,69.68-51.41L685.12,288.58s74.16,27.58,83.33-53.89C810.52,318.07,813.57,422.34,813.57,422.34Z"/><g class="cls-5"><path class="cls-6" d="M813.57,422.34l-.39.4c-10.26-72.37-42.26-202-140.6-233.08-168.1-53.17-326.34,73.26-332.43,213.2-35.47-157.39,140.12-322.41,328.06-263C806.57,183.63,813.57,422.34,813.57,422.34Z"/></g><path class="cls-11" d="M753.24,476c-36.19,29.94-77.58,61.75-110.87,86.74-32.79-6.42-103.63-24.79-148.66-69.15-23.4-23-39.78-53.06-40.29-92.09-.91-76.42,42.8-118.58,93.74-134.87,41.94-13.36,88.74-9.22,119.46,7.88C720.3,304.35,747.14,407.92,753.24,476Z"/><g class="cls-7"><path class="cls-3" d="M753.24,476c-36.19,29.94-77.58,61.75-110.87,86.74-32.79-6.42-103.63-24.79-148.66-69.15,44.81-16,146-57.18,152.17-104.66,9-68.41-45.44-93.18-98.72-122.3,41.94-13.36,88.74-9.22,119.46,7.88C720.3,304.35,747.14,407.92,753.24,476Z"/></g><path class="cls-3" d="M579.82,626.87a17.92,17.92,0,0,1-3.09-.27c-8-1.39-196.82-35.94-249.63-202.81-24.79-78.33,0-167.24,64.83-232C466,117.62,574,91.14,673.65,122.66c148.9,47.08,157.7,288.89,158,299.16a18.09,18.09,0,0,1-5.27,13.31c-65.28,65.46-229.06,183.35-236,188.34A18.13,18.13,0,0,1,579.82,626.87Zm9.56-481.08a242.73,242.73,0,0,0-171.87,71.54c-56,56-76.93,129.15-55.92,195.54,40.7,128.6,180.7,168.7,214.14,176.55,30.43-22.1,160.17-117.17,219.34-174.24-2.7-40-21.08-222.85-132.33-258A243.09,243.09,0,0,0,589.38,145.79Z"/><path class="cls-3" d="M642.37,580.81a17.85,17.85,0,0,1-3.48-.34c-47.35-9.29-201.95-49.65-203.56-178.76-.72-60.23,24.73-108.82,71.68-136.8,50.23-30,121.06-32.57,168.4-6.23C739,294,765.57,410.89,771.26,474.36a18.11,18.11,0,0,1-6.49,15.56c-38.25,31.63-81.77,64.92-111.53,87.27A18.11,18.11,0,0,1,642.37,580.81Zm-44-304.09c-24.06,0-50,5.66-72.87,19.26-25,14.93-54.74,45.32-54,105.29C472.68,495.63,582.65,531.36,638,543.36c27-20.38,63.16-48.12,96.24-75.2-8.21-73.23-36.3-155.54-76.44-177.87C642.76,281.92,621.46,276.72,598.4,276.72Z"/><path class="cls-1" d="M1540.75,422.11c65,65.12,233.87,186.3,233.87,186.3s108.52-18.88,181.85-98.69A242.44,242.44,0,0,0,2010,417.8c51.09-161.81-130-339.72-324-278.23-46.94,14.86-78.68,52.11-100.18,94.86C1543.73,317.84,1540.75,422.11,1540.75,422.11Z"/><path class="cls-2" d="M1540.75,422.11c65,65.12,233.87,186.3,233.87,186.3s108.52-18.88,181.85-98.69c-33.59,3.38-67.08-5.17-69.71-51.37L1669.11,288.27s-74.14,27.62-83.36-53.84C1543.73,317.84,1540.75,422.11,1540.75,422.11Z"/><g class="cls-5"><path class="cls-6" d="M1540.75,422.11l.39.39c10.22-72.37,42.13-202,140.45-233.17,168.06-53.27,326.39,73.06,332.57,213C2049.52,244.91,1873.82,80,1685.93,139.57,1547.59,183.39,1540.75,422.11,1540.75,422.11Z"/></g><path class="cls-11" d="M1601.11,475.71c36.22,29.91,77.63,61.7,110.93,86.67,32.79-6.44,103.61-24.86,148.61-69.25,23.39-23,39.75-53.08,40.24-92.11.86-76.42-42.88-118.55-93.83-134.81-42-13.34-88.74-9.17-119.45,8C1634,304.06,1607.17,407.64,1601.11,475.71Z"/><g class="cls-7"><path class="cls-3" d="M1601.11,475.71c36.22,29.91,77.63,61.7,110.93,86.67,32.79-6.44,103.61-24.86,148.61-69.25-44.82-16-146-57.08-152.23-104.56-9-68.41,45.38-93.21,98.64-122.36-42-13.34-88.74-9.17-119.45,8C1634,304.06,1607.17,407.64,1601.11,475.71Z"/></g><path class="cls-3" d="M1774.61,626.48a18.06,18.06,0,0,1-10.54-3.39c-7-5-170.79-122.77-236.12-188.18a18,18,0,0,1-5.28-13.3c.29-10.28,8.93-252.1,157.8-299.27,99.64-31.6,207.62-5.17,281.78,68.92,64.81,64.75,89.71,153.64,65,232-52.71,166.9-241.49,201.58-249.51,203A18,18,0,0,1,1774.61,626.48ZM1559.25,414.94c59.21,57,189,152,219.44,174.08,33.4-7.85,173.41-48,214-176.67,21-66.41,0-139.49-56-195.5-64.58-64.51-158.57-87.52-245.28-60C1580.18,192.06,1561.92,374.94,1559.25,414.94Z"/><path class="cls-3" d="M1712,580.47a18,18,0,0,1-10.85-3.62c-29.8-22.34-73.35-55.6-111.6-87.2a18.07,18.07,0,0,1-6.5-15.55c5.66-63.48,32.18-180.34,95.71-215.74,47.33-26.37,118.16-23.8,168.41,6.12,47,27.95,72.45,76.52,71.76,136.74-1.52,129.13-156.1,169.58-203.44,178.91A18.76,18.76,0,0,1,1712,580.47Zm-92-112.6c33.09,27.05,69.25,54.78,96.3,75.14,55.37-12,165.31-47.83,166.43-142.21.69-60-29-90.33-54.09-105.24C1784,269,1727.18,272.82,1696.41,290,1656.28,312.32,1628.25,394.64,1620.07,467.87Z"/><path class="cls-4" d="M894.84,408.77s-163.23-23.51-237.71,21.32c-68.9,41.48,48,58.47,48,58.47S524,513.65,523.26,570c-.5,38.88,56,43.51,57.77,48.9s-52.35,55-52.35,55"/><path class="cls-3" d="M893.55,417.73c-66.58,1.29-182.39-5-235.72,35.89a15.75,15.75,0,0,0-3.14,3.4,5.16,5.16,0,0,0,.26-1.09,7.7,7.7,0,0,0-.21-3.28c-.75-2.07-1-1.51.2-.52,2.41,2.17,8,5.18,13.78,7.48,11.77,4.67,26,8.37,39,11.05,10.5,1.24,18.1,11.06,15.89,21.55a18,18,0,0,1-16,14.27c-43.15,6.82-87.82,16.18-128,33.21-39.76,17.52-58.09,38.43-6.67,55.52,7.41,2.94,10.93,3.28,18.71,8.66a19.9,19.9,0,0,1,6.84,10.31,19.08,19.08,0,0,1-.61,11.86c-5.28,11.85-16.17,19.56-24.77,27.36-12.21,10-24.6,19.22-38.32,27.16a9.26,9.26,0,0,1-12.22-13.34c12.22-18.46,31.11-38.56,41.9-54.51-2,3.73-2,9.2.11,13.7a16.56,16.56,0,0,0,4.56,5.91c2.43,1.81,2,1.3,1.75,1.36-11.9-3.21-22.6-6.2-34.26-12.89-25.17-12.89-40.81-46.2-25.52-72.85,12-20.89,33.51-32,54-41.37,44.33-18.75,90.38-28.43,137.6-35.93l-.12,35.82c-16.71-2.14-31.6-5.15-47.57-10.87-54.2-18.84-50-62.77-.56-86.43,46.91-22.78,101-25.07,151.32-22.83,30.58,1.86,60.6,5.81,90.38,13.49a9.1,9.1,0,0,1-2.58,17.91Z"/><path class="cls-4" d="M1462.54,408.59s163.22-23.62,237.72,21.17c68.93,41.43-48,58.49-48,58.49s181.19,25,182,81.31c.52,38.88-55.94,43.55-57.75,48.93s52.39,55,52.39,55"/><path class="cls-3" d="M1461.24,399.64c75.07-18.53,200.54-27.31,264.29,24.08,19.44,15.55,22.16,41.93,2.29,57.79-16.24,12.6-31.19,16.09-49.11,20.56-7.93,1.78-15.42,3-23.83,4.08,0,0-.15-35.83-.13-35.81,53.7,9.09,162.51,27.64,191.62,77.17,8.92,15.34,7.48,36.66-2.3,51.51-12.83,19.48-33.08,27.6-53.22,33.12l-4.21,1.15c-.24-.06-.68.45,1.75-1.36a16.6,16.6,0,0,0,4.55-5.92c2.07-4.53,2.07-10,.1-13.69-.48-.81-.31-.34-.1,0,3.78,5.9,9,11.82,14.09,18.23,9.4,11.69,19.25,23.52,28,36.34,5.6,7.87-4,18.25-12.27,13.25-21-12.66-39.23-26.08-56.4-44.1-2.57-3-5-5.89-6.73-10.37a19.08,19.08,0,0,1-.62-11.86,20,20,0,0,1,6.83-10.32c7.77-5.36,11.34-5.7,18.71-8.67,12.54-5.35,29.37-9.28,31.48-23.33-.18-22.53-59.08-40.57-79.19-46.64a686.91,686.91,0,0,0-87-18.68,17.92,17.92,0,0,1-16.32-19.4,18.22,18.22,0,0,1,16.17-16.41c17.27-3.95,39.31-8.58,52.81-18.56,1.21-1,1-1.55.2.52-.52,1-.24,3.85,0,4.37-6.06-7.57-17.32-12.9-26.52-17.16-38.62-16-82.55-18.69-124.3-20.82-29.17-1.22-58.9-1.23-88.36-1.17-10.41,0-12.64-15.19-2.3-17.9Z"/><path class="cls-3" d="M1179.7,1440.31c-108.24-23.53-140.83-107-138.9-122.4,1-7.93,59.69-29.89,138.85-29.92s137.94,21.9,138.92,29.83C1320.45,1333.24,1287.91,1416.71,1179.7,1440.31Z"/><g class="cls-5"><path class="cls-6" d="M1179.69,1352.11c-46.22-6.5-60.13-29.58-59.3-33.84.41-2.2,25.48-8.27,59.28-8.29s58.9,6,59.32,8.25C1239.79,1322.49,1225.89,1345.58,1179.69,1352.11Z"/></g><path class="cls-3" d="M1595.45,770.66c7.79-13.23-64.32-153.56-167.68-118.8-37.87,12.73-30.24,46.28-7.72,56.16,21.43,9.39,54,7.47,81.45,17.77C1555,745.87,1587.65,783.89,1595.45,770.66Z"/><path class="cls-3" d="M763.53,770.66c-7.8-13.23,64.32-153.56,167.68-118.8,37.86,12.73,30.23,46.28,7.72,56.16-21.43,9.39-54,7.47-81.45,17.77C804,745.87,771.33,783.89,763.53,770.66Z"/><path class="cls-6" d="M613.6,1772.68V1608.83c303.51,51.07,397.15-15.43,572.35,130.33,175.21-145.76,268.84-79.26,572.35-130.33v163.85L1186,1997.45Z"/><path class="cls-3" d="M1186,2015.53a18,18,0,0,1-6.61-1.25L607,1789.51a18.1,18.1,0,0,1-11.48-16.83V1608.82A18.1,18.1,0,0,1,616.6,1591c102.28,17.21,178.85,20.85,246.4,24.07,124.88,5.94,208.74,9.92,323,100.79,114.21-90.87,198.07-94.85,323-100.79,67.55-3.22,144.12-6.86,246.4-24.07a18.1,18.1,0,0,1,21.09,17.83v163.86a18.08,18.08,0,0,1-11.48,16.83l-572.35,224.77A17.92,17.92,0,0,1,1186,2015.53ZM631.69,1760.35,1186,1978l554.26-217.66V1630.07c-94.33,14.69-168.88,18.23-229.59,21.12-126.1,6-202.21,9.62-313.1,101.88a18.09,18.09,0,0,1-23.14,0c-110.89-92.26-187-95.88-313.1-101.88-60.71-2.89-135.26-6.43-229.59-21.12Z"/><path class="cls-14" d="M1301.38,1817v816.52a549.18,549.18,0,0,0-237.22,0V1817A549.24,549.24,0,0,1,1301.38,1817Z"/><g class="cls-5"><path class="cls-6" d="M1301.38,1817v42.55a549.24,549.24,0,0,0-237.22,0V1817A549.24,549.24,0,0,1,1301.38,1817Z"/></g><path class="cls-6" d="M1256.17,2579.9a593.1,593.1,0,0,0-146.81,0V2368.51a503.46,503.46,0,0,1,146.81,0Z"/><path class="cls-15" d="M1236.67,2366v211.77q-26.87-2.45-53.9-2.45c-18,0-36,.82-53.9,2.45V2366a504.08,504.08,0,0,1,107.8,0Z"/><path class="cls-6" d="M1256.17,2321.35a594.4,594.4,0,0,0-146.81,0v-60.57a503.46,503.46,0,0,1,146.81,0Z"/><path class="cls-15" d="M1236.67,2258.29v61q-26.87-2.52-53.9-2.49c-18,0-36,.81-53.9,2.49v-61a502.35,502.35,0,0,1,107.8,0Z"/><g class="cls-7"><path class="cls-3" d="M1236.67,1952.06v671.19a543.86,543.86,0,0,0-107.8,0V1952.06a33.73,33.73,0,0,1,30.66-33.6,250.59,250.59,0,0,1,46.48,0A33.73,33.73,0,0,1,1236.67,1952.06Z"/></g><path class="cls-16" d="M1236.67,2258.29v61q-26.87-2.52-53.9-2.49c-18,0-36,.81-53.9,2.49v-61a502.35,502.35,0,0,1,107.8,0Z"/><path class="cls-16" d="M1182.77,2363.15a500.45,500.45,0,0,1,53.9,2.89v211.77q-26.87-2.45-53.9-2.45c-18,0-36,.82-53.9,2.45V2366A499.21,499.21,0,0,1,1182.77,2363.15Z"/><path class="cls-3" d="M1301.39,2651.63a18,18,0,0,1-3.92-.43,532.75,532.75,0,0,0-229.41,0,18.09,18.09,0,0,1-22-17.66V1817.05a18.07,18.07,0,0,1,14.17-17.65,568.81,568.81,0,0,1,245.09,0,18.07,18.07,0,0,1,14.17,17.65v816.49a18.09,18.09,0,0,1-18.09,18.09Zm-118.62-49.09a567.73,567.73,0,0,1,100.53,8.93v-779.7a533.68,533.68,0,0,0-201.07,0v779.7A567.76,567.76,0,0,1,1182.77,2602.54Z"/><path class="cls-17" d="M1064.16,1817.07v816.48s-147.69-99-472.77-144.74l-33.55-587.27-15.29-267.38S793.66,1674.9,1064.16,1817.07Z"/><g class="cls-7"><path class="cls-3" d="M1064.16,1840.5v793.05s-147.69-99-472.77-144.74l-33.55-587.27c65.84-16,198.06-35.63,239.93,50.83,67.42,139.14,22.07,264.08-8.09,322.5-22.57,43.59-14.11,97.81,22.38,130.64,26.77,24.1,70.14,38.62,140.27,20.71C1066.42,2397,999.41,1844.75,1064.16,1840.5Z"/></g><path class="cls-18" d="M973.72,2412.75v78.09c-70.81-27.18-169-57.34-296.19-79.9l-17.27-354.21c50.33,13.48,107.08,27.45,172.51,50.15-.9,72.67-24.78,132.59-43.09,168-22.57,43.59-14.11,97.81,22.38,130.64,26.77,24.1,70.14,38.62,140.27,20.71C960.34,2424.19,967.43,2419.57,973.72,2412.75Z"/><path class="cls-6" d="M973.7,2490.84c-70.81-27.17-169-57.33-296.18-79.91l-17.26-354.19c83.42,22.31,184.36,46,313.44,108.62Z"/><g class="cls-7"><path class="cls-3" d="M973.72,2412.75v78.09c-70.81-27.18-169-57.34-296.19-79.9l-17.27-354.21c50.33,13.48,107.08,27.45,172.51,50.15-.9,72.67-24.78,132.59-43.09,168-22.57,43.59-14.11,97.81,22.38,130.64,26.77,24.1,70.14,38.62,140.27,20.71C960.34,2424.19,967.43,2419.57,973.72,2412.75Z"/></g><path class="cls-3" d="M1064.14,2651.63a18.12,18.12,0,0,1-10.07-3.06c-1.43-1-149-97.33-465.21-141.86a18.11,18.11,0,0,1-15.54-16.88l-48.83-854.65a18.08,18.08,0,0,1,21-18.88c2.55.41,257.15,42.84,527.12,184.74a18.1,18.1,0,0,1,9.67,16v816.49a18.09,18.09,0,0,1-18.09,18.09ZM608.6,2473c240.34,35.58,381.35,99.14,437.45,129.13V1828c-215.14-111.33-418.17-158.47-484.12-171.8Z"/><path class="cls-17" d="M1823,1634.16l-15.19,266-33.64,588.67c-325.08,45.76-472.77,144.74-472.77,144.74V1817.07C1571.88,1674.9,1823,1634.16,1823,1634.16Z"/><path class="cls-3" d="M1246.18,1776c43.91-65.14,133.61-93.34,209.35-88.75a329.13,329.13,0,0,1,33.24,4.57c-11.06,2.35-22,3.47-32.79,5.24-74.51,11.69-148.18,33.66-209.8,78.94Z"/><path class="cls-3" d="M1125.72,1776c-61.61-45.28-135.29-67.25-209.8-78.94-10.81-1.77-21.72-2.89-32.78-5.24a328.94,328.94,0,0,1,33.23-4.57c75.73-4.59,165.44,23.6,209.35,88.75Z"/><g class="cls-7"><path class="cls-3" d="M1807.79,1900.14l-33.64,588.67c-325.08,45.76-472.77,144.74-472.77,144.74V1842.76a8.06,8.06,0,0,1,5.88-2.26C1372,1844.75,1305,2397,1419,2426.22c70.14,17.91,113.5,3.39,140.27-20.71,36.49-32.83,45-87.05,22.38-130.64-30.16-58.42-75.51-183.36-8.09-322.5C1614.3,1868.4,1740.28,1884.49,1807.79,1900.14Z"/></g><path class="cls-3" d="M1301.4,2651.62a18.1,18.1,0,0,1-18.1-18.08V1817.05a18.09,18.09,0,0,1,9.68-16c270-141.9,524.57-184.33,527.11-184.74a18.08,18.08,0,0,1,21,18.88l-48.83,854.65a18.1,18.1,0,0,1-15.54,16.88c-316.22,44.53-463.78,140.9-465.23,141.87A18.09,18.09,0,0,1,1301.4,2651.62Zm18.08-823.6v774.11c56.1-30,197.11-93.55,437.45-129.13l46.67-816.78C1737.66,1669.55,1534.62,1716.69,1319.48,1828Zm454.67,660.78h0Z"/><path class="cls-6" d="M1500.92,2061.76c0,9.32-2.91,17-5.67,25.63-5.38,16.78-10.63,33.63-17.47,50.15-3,7.06-6.69,16.07-15.57,18.57-6.25,1.77-11-2.23-13.82-5.46-4.66-5.81-6.45-13.89-7.27-21.94-.77-7.49-.73-15.25-2-22.51,0-.3,0-.44-.15-.55s-.43-.34-.58-.3l-.29.06c-.15,0-.58.72-.73.89-3.78,8.43-7.84,16.76-11.49,25-5.17,11.63-10.62,25.89-22.85,31.09a21,21,0,0,1-5.82,1.57c-11.93,1.3-16.53-8.93-18.63-18.65-3.77-17.49-3.92-35.92-7.71-53.62-1.45-6.38-3.34-13.36-3.34-19.91a21.86,21.86,0,0,1,3-11.95c2.48-3.94,6.7-7.81,12.66-8.17a16.22,16.22,0,0,1,3.49.2c13.83,2.05,19.33,14.93,21.54,28.92,1.81,11.44,1.75,23.46,2.18,35.32,0,1,.44,2.26,1.46,2.1.72-.11,1.16-1.05,1.45-1.53,4.52-8.88,8.88-19.91,17.9-25.46a19,19,0,0,1,5.1-2.13c8.14-1.82,10.8,5,12.8,10.47a82.41,82.41,0,0,1,3.78,13,2.24,2.24,0,0,0,.29.94.67.67,0,0,0,.73.54c1.46.34,1.75-1.78,2-2.88,1.6-10.61,4.5-21.32,6.55-31.92,1.3-6.77,2.32-13.78,5.53-20.51,2.74-5.74,8-12.68,15.13-14.95C1495.1,2040,1500.92,2049.83,1500.92,2061.76Zm-113.35-1.53c-1.6.12-3.12,1.18-2.92,2.82a6.27,6.27,0,0,0,.73,1.7,22.11,22.11,0,0,0,7,6.13,4.1,4.1,0,0,0,1.45.59l.88-.09a1.44,1.44,0,0,0,1-1.13v-.87C1395.57,2065.18,1392.52,2059.85,1387.57,2060.23Zm96.33-9c-1.6.51-3.13,1.92-2.91,3.54a4.66,4.66,0,0,0,.72,1.52c1.75,2.21,4.37,3.41,7,4.46a3.65,3.65,0,0,0,1.45.25l.88-.29a1.91,1.91,0,0,0,1-1.35v-.88C1491.9,2054.31,1488.85,2049.66,1483.9,2051.23Z"/><path class="cls-6" d="M1538.76,2109.11c-1.17,3.92-3.35,7.78-8,9.47-7.71,2.8-9.91-3.71-11.34-9.58-2.65-10.82-5.73-21.45-8.3-32.28-1.77-7.49-3.34-14.69-3.34-23.86,0-11.49,4.22-21.09,12.07-27.54a26.06,26.06,0,0,1,7.72-4.52c6.25-2.26,11.07-.57,14.11,1.84,3.37,2.66,5.67,7.81,5.67,14.93a109.65,109.65,0,0,1-.87,12.25c-1.45,11.89-2.64,23.54-3.93,35.21C1541.66,2093,1540.8,2101.53,1538.76,2109.11Zm1.6-71.15c0-5-1.16-7.87-3.35-10.12a3.83,3.83,0,0,0-4.51-1c-1,.38-2.18.8-2.18,2v.73c.29,1.93,2.18,2.11,3.35,3,1.89,1.35,2,4.49,2.91,7.38a2.15,2.15,0,0,0,2.18,1.52l.73-.26a1.73,1.73,0,0,0,.87-1.34Z"/><path class="cls-6" d="M1647.31,2070.2c0,5.82-3.92,11.31-7.56,14.88-4,3.92-8.88,6.93-13.54,9.82-10,6.13-19.64,12.36-31,16.3-10.48,3.63-18.93,3.65-24.59-.11-5-3.28-7.41-9.53-9-15.91-3-11.95-3.93-25.18-3.93-38.71,0-4.95.13-10.11.29-15.09.26-8.09.55-16.58,3.78-25.11,3-7.93,9.46-17.45,18.77-20.79,9.75-3.5,16.41,2.28,19.21,8.67,2,4.52,2.62,10,2.62,15.7,0,3.35-.29,6.79-.44,10-1.3,19.5-3.05,39-7.85,59.16a4.37,4.37,0,0,0-.15,1.36c0,.58.15,1,.73.77a3.12,3.12,0,0,0,1.45-.95c8.3-9,16.3-20.43,27.22-26.88a31.09,31.09,0,0,1,6.69-2.92C1639,2057.72,1647.32,2061,1647.31,2070.2Zm-53.54-52.06c0-.29.14-.63.14-.92v-1.45c0-6.55-2.48-11.51-6.55-13a4.2,4.2,0,0,0-2.91,0,3.31,3.31,0,0,0-2.18,3.25c.58,1.84,2.62,2.47,3.78,3.46a7.46,7.46,0,0,1,2.19,2.87c1,2.69.58,7.93,3.78,7.54l.73-.25A1.76,1.76,0,0,0,1593.77,2018.14Zm45.4,55.76V2073c0-3.79-2.62-6.39-5.82-6.18-1.31.1-3.06.91-3.06,2.22v1c.73,2.69,3.49,3.91,5.53,5.06a3.61,3.61,0,0,0,1.46.31c.29-.09.43,0,.72-.06A2.37,2.37,0,0,0,1639.17,2073.9Z"/><path class="cls-6" d="M1649.79,2087.14c0-3.49,2.77-6.68,4.8-8.94a56.12,56.12,0,0,1,9.75-8.45v-2.62c0-15.86.53-44.08-2.62-47-1.9-1.75-13.82-4-16.29-10.7a19.42,19.42,0,0,1-1-6.41c0-11.21,7.43-21,15.57-26.27,1-3.3,3.79-7.45,7.72-8.32a6.75,6.75,0,0,1,6.69,2.37,50.5,50.5,0,0,1,12.52-1c25.17.58,48.16,17.58,48.16,47.12,0,15.42-6.69,30-15.86,40.64-7.71,8.91-17.61,16.14-28.23,21.72-2.33,1.24-4.66,2.49-7,3.49-.15.31-.15.61-.3.92-1.31,3.58-4.51,7.64-8.88,8.52a7.59,7.59,0,0,1-7.85-3.13c-3.06,1-6.11,1.83-9.17,2.57C1653.13,2092.8,1649.79,2092,1649.79,2087.14Zm35.65-29.79c.15-.17.29-.19.44-.36,7.56-5.08,14.84-11.81,16.3-21.88a14.11,14.11,0,0,0,.14-2.34,14.51,14.51,0,0,0-10.62-13.83,25.54,25.54,0,0,0-8.73-1C1684.27,2030.93,1685.15,2044.16,1685.44,2057.35Zm38.27-56v-.88c0-2.76-1.59-4.92-2.76-6.55-1.4-2-3.11-3.75-4.66-5.53-1.17-1.33-2.62-3-4.51-3.28-.87-.07-2.42.13-2.77.69a3.45,3.45,0,0,0-.43,1.94c.58,2.41,2.47,3,4.22,4.12a14.52,14.52,0,0,1,5.24,6.45c.72,1.56,1.89,4,3.78,4.29l.73,0A1.7,1.7,0,0,0,1723.71,2001.32Z"/><path class="cls-6" d="M1500.92,2269.38c0,9.31-2.91,17-5.67,25.63-5.38,16.78-10.63,33.63-17.47,50.15-3,7.05-6.69,16.07-15.57,18.57-6.25,1.76-11-2.24-13.82-5.47-4.66-5.8-6.45-13.89-7.27-21.93-.77-7.5-.73-15.25-2-22.52,0-.29,0-.43-.15-.54s-.43-.34-.58-.31l-.29.07c-.15,0-.58.72-.73.89-3.78,8.42-7.84,16.76-11.49,25-5.17,11.63-10.62,25.88-22.85,31.09a21,21,0,0,1-5.82,1.56c-11.93,1.31-16.53-8.93-18.63-18.64-3.77-17.49-3.92-35.92-7.71-53.62-1.45-6.38-3.34-13.37-3.34-19.92a21.85,21.85,0,0,1,3-11.94c2.48-3.94,6.7-7.82,12.66-8.18a15.64,15.64,0,0,1,3.49.21c13.83,2.05,19.33,14.93,21.54,28.91,1.81,11.45,1.75,23.46,2.18,35.33,0,1,.44,2.26,1.46,2.1.72-.11,1.16-1,1.45-1.54,4.52-8.87,8.88-19.91,17.9-25.45a18.72,18.72,0,0,1,5.1-2.13c8.14-1.82,10.8,5,12.8,10.47a81.79,81.79,0,0,1,3.78,13,2.24,2.24,0,0,0,.29.94.67.67,0,0,0,.73.53c1.46.34,1.75-1.77,2-2.87,1.6-10.61,4.5-21.32,6.55-31.92,1.3-6.77,2.32-13.78,5.53-20.51,2.74-5.74,8-12.69,15.13-15C1495.1,2247.58,1500.92,2257.45,1500.92,2269.38Zm-113.35-1.54c-1.6.12-3.12,1.18-2.92,2.83a6.22,6.22,0,0,0,.73,1.69,21.86,21.86,0,0,0,7,6.13,4.1,4.1,0,0,0,1.45.59l.88-.08a1.44,1.44,0,0,0,1-1.13V2277C1395.57,2272.79,1392.52,2267.47,1387.57,2267.84Zm96.33-9c-1.6.51-3.13,1.91-2.91,3.54a4.66,4.66,0,0,0,.72,1.52c1.75,2.21,4.37,3.41,7,4.45a3.33,3.33,0,0,0,1.45.25l.88-.28a1.93,1.93,0,0,0,1-1.36v-.87C1491.9,2261.93,1488.85,2257.27,1483.9,2258.85Z"/><path class="cls-6" d="M1538.76,2316.73c-1.17,3.92-3.35,7.77-8,9.47-7.71,2.8-9.91-3.72-11.34-9.59-2.65-10.81-5.73-21.44-8.3-32.27-1.77-7.5-3.34-14.7-3.34-23.86,0-11.5,4.22-21.1,12.07-27.54a26.06,26.06,0,0,1,7.72-4.52c6.25-2.27,11.07-.57,14.11,1.83,3.37,2.67,5.67,7.81,5.67,14.94a109.65,109.65,0,0,1-.87,12.25c-1.45,11.89-2.64,23.53-3.93,35.2C1541.66,2300.66,1540.8,2309.15,1538.76,2316.73Zm1.6-71.16c0-4.94-1.16-7.86-3.35-10.12a3.82,3.82,0,0,0-4.51-1c-1,.37-2.18.79-2.18,2v.72c.29,1.93,2.18,2.12,3.35,3,1.89,1.34,2,4.49,2.91,7.37a2.14,2.14,0,0,0,2.18,1.53l.73-.27a1.73,1.73,0,0,0,.87-1.34Z"/><path class="cls-6" d="M1647.31,2277.81c0,5.82-3.92,11.32-7.56,14.89-4,3.92-8.88,6.93-13.54,9.81-10,6.14-19.64,12.36-31,16.3-10.48,3.64-18.93,3.66-24.59-.1-5-3.28-7.41-9.53-9-15.91-3-12-3.93-25.18-3.93-38.71,0-5,.13-10.12.29-15.1.26-8.08.55-16.57,3.78-25.11,3-7.93,9.46-17.44,18.77-20.79,9.75-3.49,16.41,2.29,19.21,8.68,2,4.52,2.62,10,2.62,15.69,0,3.35-.29,6.8-.44,10-1.3,19.51-3.05,39-7.85,59.16a4.43,4.43,0,0,0-.15,1.37c0,.58.15,1,.73.76a3.19,3.19,0,0,0,1.45-.94c8.3-9,16.3-20.43,27.22-26.88a31.09,31.09,0,0,1,6.69-2.92C1639,2265.33,1647.32,2268.65,1647.31,2277.81Zm-53.54-52c0-.29.14-.63.14-.92v-1.46c0-6.54-2.48-11.51-6.55-13a4.2,4.2,0,0,0-2.91,0,3.3,3.3,0,0,0-2.18,3.25c.58,1.83,2.62,2.47,3.78,3.46a7.42,7.42,0,0,1,2.19,2.86c1,2.7.58,7.94,3.78,7.55l.73-.26A1.74,1.74,0,0,0,1593.77,2225.76Zm45.4,55.76v-.88c0-3.78-2.62-6.39-5.82-6.17-1.31.09-3.06.91-3.06,2.22v1c.73,2.69,3.49,3.9,5.53,5.06a3.61,3.61,0,0,0,1.46.3c.29-.08.43,0,.72-.06A2.33,2.33,0,0,0,1639.17,2281.52Z"/><path class="cls-6" d="M1649.79,2294.76c0-3.49,2.77-6.69,4.8-8.94a56.18,56.18,0,0,1,9.75-8.46v-2.62c0-15.86.53-44.07-2.62-47-1.9-1.75-13.82-4-16.29-10.7a19.52,19.52,0,0,1-1-6.42c0-11.2,7.43-21,15.57-26.26,1-3.3,3.79-7.46,7.72-8.32a6.76,6.76,0,0,1,6.69,2.36,51.47,51.47,0,0,1,12.52-1c25.17.58,48.16,17.58,48.16,47.12,0,15.42-6.69,30.05-15.86,40.65-7.71,8.91-17.61,16.14-28.23,21.72-2.33,1.23-4.66,2.49-7,3.48-.15.32-.15.61-.3.93-1.31,3.58-4.51,7.64-8.88,8.52a7.61,7.61,0,0,1-7.85-3.14c-3.06,1-6.11,1.83-9.17,2.58C1653.13,2300.42,1649.79,2299.57,1649.79,2294.76Zm35.65-29.79c.15-.17.29-.2.44-.36,7.56-5.08,14.84-11.81,16.3-21.88a14.11,14.11,0,0,0,.14-2.34,14.49,14.49,0,0,0-10.62-13.83,25.29,25.29,0,0,0-8.73-1C1684.27,2238.54,1685.15,2251.78,1685.44,2265Zm38.27-56v-.87c0-2.76-1.59-4.92-2.76-6.55-1.4-2-3.11-3.76-4.66-5.53-1.17-1.34-2.62-3-4.51-3.28-.87-.07-2.42.13-2.77.69a3.44,3.44,0,0,0-.43,1.93c.58,2.42,2.47,3,4.22,4.13a14.52,14.52,0,0,1,5.24,6.45c.72,1.55,1.89,3.95,3.78,4.29l.73,0A1.68,1.68,0,0,0,1723.71,2208.93Z"/><path class="cls-1" d="M790.76,2137c-7.77,57.25-32.33,109.75-76.24,129.6-56.25,25.46-97.81,26.63-132.72,25.23-93.74-3.8-132.49-244.14-65.93-346.33,11.4-17.6,26-31.12,44-38.62,0,0,155-30.48,211.22,80.67C790.72,2026.48,798,2083.78,790.76,2137Z"/><g class="cls-5"><path class="cls-6" d="M790.73,2137.27h0c.31-41-7.46-81.17-22.43-110.74-41.09-81.19-134.85-86.81-182.41-84-29.23,1.77-56.39,16.87-72.42,41.37-.12.17-.23.35-.34.52-16.1,24.69-26.05,57.48-30.53,93,.91-50,11.44-98.49,33.28-132,11.4-17.6,26-31.12,44-38.62,0,0,155-30.48,211.22,80.67C790.75,2026.55,798,2084,790.73,2137.27Z"/></g><path class="cls-2" d="M790.76,2137c-7.77,57.25-32.33,109.75-76.24,129.6-56.25,25.46-97.81,26.63-132.72,25.23-93.74-3.8-132.49-244.14-65.93-346.33-.85,5-35.22,209,88.77,242.1C698.79,2212.74,759.2,2182.67,790.76,2137Z"/><path class="cls-3" d="M599,2310.28c-6.11,0-12.08-.15-17.93-.39-52.38-2.13-93.53-58.53-110.09-150.87-19.45-108.49,2.42-235.67,81.86-268.85a18.39,18.39,0,0,1,3.48-1.06c6.88-1.34,169.13-31.71,230.85,90.29,28.74,56.8,32.44,146.72,8.8,213.8-15.47,43.9-41.06,75-74,89.88C672.69,2305.38,633.52,2310.28,599,2310.28Zm-34-386c-57.59,26.07-75,136-58.45,228.33,12.75,71.11,43.27,119.77,76,121.11,32.07,1.3,70.82.66,124.51-23.63,30-13.56,46.35-45,54.79-68.94,20.33-57.69,17.34-137.42-7-185.46C708.61,1904.23,581.55,1921.62,565,1924.31Z"/><path class="cls-3" d="M619.43,1998c44.1-11.82,90.76-13.23,134.38,1.84,14.94,5,28.92,13.07,42.17,22.32a18.15,18.15,0,1,1-23,27.92c-39.31-35.74-98.08-42.54-149-34.57-11.4,2.34-15.66-14-4.52-17.51Z"/><path class="cls-3" d="M622.76,2158.91c45,1.17,115.81-.3,148.7-33.61,16.16-17.57,42.6,5.5,27.27,23.9-25.58,24-58.69,29.33-90.82,32a409.26,409.26,0,0,1-87.29-4.36,9,9,0,0,1,2.14-18Z"/><path class="cls-1" d="M1563.87,2137c7.78,57.25,32.33,109.75,76.24,129.6,56.25,25.46,97.81,26.63,132.72,25.23,93.74-3.8,132.49-244.14,65.93-346.33-11.4-17.6-26-31.12-44-38.62,0,0-155-30.48-211.22,80.67C1563.91,2026.48,1556.63,2083.78,1563.87,2137Z"/><g class="cls-5"><path class="cls-6" d="M1563.91,2137.27h0c-.31-41,7.47-81.17,22.43-110.74,41.09-81.19,134.86-86.81,182.42-84,29.22,1.77,56.38,16.87,72.41,41.37l.35.52c16.09,24.69,26,57.48,30.52,93-.91-50-11.44-98.49-33.28-132-11.4-17.6-26-31.12-44-38.62,0,0-155-30.48-211.22,80.67C1563.88,2026.55,1556.61,2084,1563.91,2137.27Z"/></g><path class="cls-2" d="M1563.87,2137c7.78,57.25,32.33,109.75,76.24,129.6,56.25,25.46,97.81,26.63,132.72,25.23,93.74-3.8,132.49-244.14,65.93-346.33.86,5,35.22,209-88.77,242.1C1655.85,2212.74,1595.43,2182.67,1563.87,2137Z"/><path class="cls-3" d="M1755.63,2310.28c-34.52,0-73.69-4.9-123-27.2-32.94-14.9-58.52-46-74-89.87-23.65-67.09-19.94-157,8.8-213.81,61.71-122,224-91.63,230.84-90.29a18.39,18.39,0,0,1,3.48,1.06c79.44,33.17,101.31,160.36,81.86,268.85-16.56,92.33-57.71,148.74-110.09,150.87C1767.71,2310.13,1761.74,2310.28,1755.63,2310.28Zm-7.25-389c-46,0-116.63,11.2-148.64,74.47-24.3,48-27.29,127.77-7,185.47,8.45,24,24.81,55.37,54.79,68.93,53.68,24.29,92.43,24.93,124.51,23.63,32.69-1.34,63.21-50,76-121.12,16.55-92.34-.87-202.25-58.46-228.32A267.1,267.1,0,0,0,1748.38,1921.25Z"/><path class="cls-3" d="M1730.68,2015.48c-50.93-8-109.71-1.17-149,34.57-18.25,16.51-42.67-10.25-24.4-26.85,25.8-19.4,57.14-30.45,88.75-33.26a249.18,249.18,0,0,1,89.2,8,9,9,0,0,1-4.53,17.51Z"/><path class="cls-3" d="M1734,2176.87c-55,7.32-131.33,12.73-176.57-26.11-18.24-17.64,8.21-43.91,25.72-25.46,32.89,33.3,103.68,34.78,148.7,33.61,11.47-.68,13.47,15.9,2.15,18Z"/><path class="cls-3" d="M1473.65,1011.74c57.53-3.14,107.44,62,111.48,145.56s-39.32,153.78-96.85,156.92-107.44-62-111.48-145.56S1416.13,1014.88,1473.65,1011.74Z"/><path class="cls-6" d="M1476,1046.76c17.89,8.48,24.41,37.15,14.57,64s-32.32,41.82-50.2,33.35-24.41-37.15-14.57-64S1458.15,1038.28,1476,1046.76Z"/><path class="cls-19" d="M1529,1228.42c8.33,6.8,8.65,22.45.7,35s-21.14,17.14-29.48,10.34-8.65-22.45-.7-35S1520.67,1221.62,1529,1228.42Z"/><path class="cls-3" d="M892.16,1011.74c-57.53-3.14-107.44,62-111.48,145.56s39.32,153.78,96.85,156.92S985,1252.19,989,1168.66,949.68,1014.88,892.16,1011.74Z"/><path class="cls-6" d="M889.77,1046.76c-17.88,8.48-24.4,37.15-14.56,64s32.32,41.82,50.2,33.35,24.41-37.15,14.57-64S907.66,1038.28,889.77,1046.76Z"/><path class="cls-19" d="M836.8,1228.42c-8.34,6.8-8.65,22.45-.7,35s21.14,17.14,29.48,10.34,8.65-22.45.7-35S845.13,1221.62,836.8,1228.42Z"/></g></g></svg>