<svg width="477" height="477" viewBox="0 0 477 477" fill="none" xmlns="http://www.w3.org/2000/svg">
<g clip-path="url(#clip0_30_163)">
<path d="M466.286 411.475H402.78V144.05L427.594 119.491L427.595 157.668C427.595 163.467 432.296 168.168 438.095 168.168C443.894 168.168 448.595 163.467 448.595 157.668L448.594 93.057C448.594 87.258 443.893 82.557 438.094 82.557H373.486C367.687 82.557 362.986 87.258 362.986 93.057C362.986 98.856 367.687 103.557 373.486 103.557H413.842L257.253 258.537L182.998 183.747C181.027 181.761 178.345 180.644 175.547 180.644C175.546 180.644 175.545 180.644 175.544 180.644C172.745 180.645 170.063 181.763 168.092 183.751L26.539 326.479C22.456 330.596 22.483 337.245 26.6 341.328C28.648 343.359 31.321 344.373 33.994 344.373C36.695 344.373 39.396 343.337 41.449 341.267L54.036 328.575V411.476H21V54.812C21 49.013 16.299 44.312 10.5 44.312C4.701 44.312 0 49.013 0 54.812V421.975C0 427.774 4.701 432.475 10.5 432.475H466.286C472.085 432.475 476.786 427.774 476.786 421.975C476.786 416.176 472.085 411.475 466.286 411.475ZM381.78 411.475H267.689V277.754L381.78 164.835V411.475ZM186.046 216.622L246.688 277.7V411.474H186.046V216.622ZM75.036 307.399L165.046 216.641V411.474H75.036V307.399V307.399Z" fill="white"/>
</g>
<defs>
<clipPath id="clip0_30_163">
<rect width="476.786" height="476.786" fill="white"/>
</clipPath>
</defs>
</svg>
