<svg xmlns="http://www.w3.org/2000/svg" xmlns:xlink="http://www.w3.org/1999/xlink" viewBox="0 0 181.27 123.72"><defs><style>.cls-1{fill:url(#linear-gradient);}.cls-2{fill:url(#radial-gradient);}.cls-3{mask:url(#mask);}.cls-11,.cls-4,.cls-8{fill:#fff;}.cls-5,.cls-7{fill:#4c2d25;}.cls-12,.cls-13,.cls-6,.cls-7,.cls-8{fill-rule:evenodd;}.cls-11,.cls-6{opacity:0.1;}.cls-9{fill:#0261d1;}.cls-10{fill:#0068ff;}.cls-12{fill:#6b3f37;}.cls-13{fill:#c93609;}.cls-14{fill:#c9892d;}.cls-15{fill:#ffd32e;}.cls-16{fill:#ffd32f;}.cls-17{fill:#ffd430;}.cls-18{fill:#ffd431;}.cls-19{fill:#ffd432;}.cls-20{fill:#ffd533;}.cls-21{fill:#ffd534;}.cls-22{fill:#ffd535;}.cls-23{fill:#ffd636;}.cls-24{fill:#ffd637;}.cls-25{fill:#ffd638;}.cls-26{fill:#ffd739;}.cls-27{fill:#ffd73a;}.cls-28{fill:#ffd73b;}.cls-29{fill:#ffd73c;}.cls-30{fill:#ffd83d;}.cls-31{fill:#ffd83e;}.cls-32{fill:#ffd83f;}.cls-33{fill:#ffd940;}.cls-34{fill:#ffd941;}.cls-35{fill:#ffd942;}.cls-36{fill:#ffda43;}.cls-37{fill:#ffda44;}.cls-38{fill:#ffda45;}.cls-39{fill:#ffdb46;}.cls-40{fill:#ffdb47;}.cls-41{fill:#ffdb48;}.cls-42{fill:#ffdc49;}.cls-43{fill:#ffdc4a;}.cls-44{fill:#ffdc4b;}.cls-45{fill:#ffdd4c;}.cls-46{fill:#ffdd4d;}.cls-47{fill:#ffdd4e;}.cls-48{fill:#ffde4f;}.cls-49{fill:#ffde50;}.cls-50{fill:#ffde51;}.cls-51{fill:#ffdf52;}.cls-52{fill:#ffdf53;}.cls-53{fill:#ffdf54;}.cls-54{fill:#ffe055;}.cls-55{fill:#ffe056;}.cls-56{fill:#ffe057;}.cls-57{fill:#ffe058;}.cls-58{fill:#ffe159;}.cls-59{fill:#ffe15a;}.cls-60{fill:#ffe15b;}.cls-61{fill:#ffe25c;}.cls-62{fill:#ffe25d;}.cls-63{fill:#ffe25e;}.cls-64{fill:#ffe35f;}.cls-65{fill:#ffe360;}.cls-66{fill:#ffe361;}.cls-67{fill:#ffe462;}.cls-68{fill:#ffe463;}.cls-69{fill:#ffe564;}.cls-70{fill:#ffe565;}.cls-71{fill:#ffe566;}.cls-72{fill:#ffe667;}.cls-73{fill:#ffe668;}.cls-74{fill:#ffe669;}.cls-75{fill:#ffe76a;}.cls-76{fill:#ffe76b;}.cls-77{fill:#ffe76c;}.cls-78{fill:#ffe86d;}.cls-79{fill:#ffe86e;}.cls-80{fill:#ffe86f;}.cls-81{fill:#ffe870;}.cls-82{fill:#ffe971;}.cls-83{fill:#ffe972;}.cls-84{fill:#ffe973;}.cls-85{fill:#ffea74;}.cls-86{fill:#ffea75;}.cls-87{fill:#ffea76;}.cls-88{fill:#ffeb77;}.cls-89{fill:#ffeb78;}.cls-90{fill:#ffeb79;}.cls-91{fill:#ffec7a;}.cls-92{fill:#ffec7b;}.cls-93{fill:#ffec7c;}.cls-94{fill:#ffed7d;}.cls-95{fill:#ffed7e;}.cls-96{fill:#ffed7f;}.cls-97{fill:#ffee80;}.cls-98{fill:#ffee81;}.cls-99{fill:#ffee82;}.cls-100{fill:#ffef83;}.cls-101{fill:#ffef84;}.cls-102{fill:#ffef85;}.cls-103{fill:#fff086;}.cls-104{fill:#fff087;}.cls-105{fill:#fff088;}.cls-106{fill:#fff189;}.cls-107{fill:#fff18a;}.cls-108{fill:#fff18b;}.cls-109{fill:#fff18c;}.cls-110{fill:#fff28d;}.cls-111{fill:#fff28e;}.cls-112{fill:#fff28f;}.cls-113{fill:#fff390;}.cls-114{fill:#fff391;}.cls-115{fill:#fff392;}.cls-116{fill:#fff493;}.cls-117{fill:#fff494;}.cls-118{fill:#fff495;}.cls-119{fill:#fff596;}.cls-120{fill:#fff597;}</style><linearGradient id="linear-gradient" x1="118.46" y1="-27.18" x2="118.46" y2="81.97" gradientUnits="userSpaceOnUse"><stop offset="0" stop-color="#fff"/><stop offset="1" stop-color="#231f20"/></linearGradient><radialGradient id="radial-gradient" cx="119.25" cy="54.66" r="63.74" gradientUnits="userSpaceOnUse"><stop offset="0.64" stop-color="#fcee21"/><stop offset="0.91" stop-color="#f7931e"/><stop offset="1" stop-color="#f15a24"/></radialGradient><mask id="mask" x="73.54" y="0.07" width="89.83" height="89.83" maskUnits="userSpaceOnUse"><path class="cls-1" d="M163.37,45A44.92,44.92,0,1,1,118.46.07,44.92,44.92,0,0,1,163.37,45Z"/></mask></defs><title>Ресурс 5</title><g id="Слой_2" data-name="Слой 2"><g id="Layer_1" data-name="Layer 1"><circle class="cls-2" cx="119.41" cy="61.86" r="61.86"/><g class="cls-3"><path class="cls-4" d="M163.37,45A44.92,44.92,0,1,1,118.46.07,44.92,44.92,0,0,1,163.37,45Z"/></g><path class="cls-5" d="M77.53,10.77c8.91-5.92,19.1-6.76,31.19,0,2,2.5-.56,5.45-2.57,4.42C97.34,9.32,87.89,7.27,77.53,10.77Z"/><path class="cls-5" d="M160.86,26c-9.8-4.29-20-3.35-30.72,5.39-1.54,2.8,1.49,5.26,3.29,3.9C141.11,28,150.05,24.31,160.86,26Z"/><path class="cls-6" d="M131.75,50.14c4.9-7.89,12.2-12.43,22.42-12.92,2.49.26,2.84,5-.32,5.67-6.94,1.39-14.11,5-20.88,8.68C131.44,52.14,131.18,50.9,131.75,50.14Z"/><path class="cls-7" d="M133,50.2c6.27-7.54,13.1-10.45,20.19-11.26,1.64-.17,1.57,2.1.31,2.56C146.58,42.08,139.74,44.83,133,50.2Z"/><path class="cls-6" d="M94.15,15.68c11,0,19.89,11.42,19.89,25.51,0,7.74-2.7,14.69-7,19.36a44.72,44.72,0,0,0-26-.18,29,29,0,0,1-6.78-19.18C74.26,27.1,83.16,15.68,94.15,15.68Z"/><path class="cls-8" d="M94.15,18.25c10,0,18,10.37,18,23.16,0,6.7-2.22,13-5.78,17.2a46.49,46.49,0,0,0-13.07-2,40.61,40.61,0,0,0-10.9,1.8c-3.37-4.2-6.36-10.45-6.36-17C76.09,28.62,84.17,18.25,94.15,18.25Z"/><path class="cls-9" d="M84.17,57.91a41.66,41.66,0,0,1,18.16-.36,14.24,14.24,0,1,0-18.16.36Z"/><path class="cls-10" d="M86.49,57.28A41.68,41.68,0,0,1,94,56.6a42.78,42.78,0,0,1,6,.42,12.38,12.38,0,1,0-13.49.26Z"/><circle cx="93.03" cy="46.77" r="8.46" transform="matrix(0.18, -0.98, 0.98, 0.18, 29.89, 129.57)"/><path class="cls-4" d="M100.52,39.11A2.15,2.15,0,1,1,98.38,37,2.14,2.14,0,0,1,100.52,39.11Z"/><path class="cls-4" d="M102.24,44.39a.86.86,0,1,1-.86-.86A.86.86,0,0,1,102.24,44.39Z"/><path class="cls-11" d="M96.6,56.68h0L107,44a14.51,14.51,0,0,0-3.1-6.44L82.45,56.32a17.22,17.22,0,0,0,1.75,1.59A46.81,46.81,0,0,1,96.6,56.68Z"/><path class="cls-6" d="M106.83,75.69c13.51-2.36,23.42-5.74,28.56-10.47-2.13-.6-4.81-.28-7.43,0a26.46,26.46,0,0,1,20.86,1.09c-3.2-.44-6.43-1.41-9.47.22C131,85,122.73,90.81,114.44,90.22c-5.54-.59-9.93-3.74-4.44-12.69C109.84,76.48,108.43,76,106.83,75.69Z"/><path class="cls-12" d="M111.84,77c12-2.18,19.47-5.54,24.14-9.47-3.4,9.58-8,15.86-13.79,19C112.43,90.51,106.2,87.08,111.84,77Z"/><path class="cls-7" d="M120.35,75c7.19-2,12.18-4.63,15.63-7.53-2.74,7.71-6.26,13.28-10.54,16.78l-5.51-.61A15.79,15.79,0,0,1,120.35,75Z"/><path class="cls-13" d="M129.68,79.8a23.21,23.21,0,0,1-7.49,6.66,17.94,17.94,0,0,1-7.68,1.64c.17-3.29,2-5.37,5.12-6.55A12.24,12.24,0,0,1,129.68,79.8Z"/><path class="cls-14" d="M12.18,49.52c1.06-6.26-.86-13.61-3.86-21.35-2.73-8.88-1-17.71,8.23-19,8.25-1,15,4.69,16.05,14.58.93,6.24-1,14.76-3.23,23.54Z"/><path class="cls-15" d="M13.64,48.34c1-5.66-1.19-13.55-3.89-20.56-2.48-8-1.59-16.07,6.73-17.2C23.94,9.63,30.05,14.81,31,23.76c.84,5.64-.67,14.63-2.7,22.57Z"/><path class="cls-14" d="M46.41,76.19c4.8,6.39,11.3,14.73,19.66,17.77A60.38,60.38,0,0,1,39.68,97Z"/><path class="cls-15" d="M46.92,78.37A50,50,0,0,0,62.54,93.58a54.63,54.63,0,0,1-21.09,2.09Z"/><path class="cls-14" d="M0,69.8C-.49,51.1,6.46,40,22.35,38c10.23-1.24,18.21,2.34,24.5,9.59,3.57,4.4,3.86,8.74,2,13.05,6.36,4.1,8.33,14.31,0,21.39.95,6.5-.86,11.06-5.14,13.89-7.36,6.19-19.95,8.16-28.06,4.58C7.23,94.17,1.22,84.91,0,69.8Z"/><path class="cls-15" d="M22.46,39.1c9.78-1,17.58,2.17,23.54,9.24,2.85,4.06,3.3,7.6,1.73,10.69-11.87-2.73-23.38-1.77-34.65,1.6,13.74-2.3,25.29-2.44,33.94.3,6.49,4.4,7.14,15.78.32,19.53-6.77-3.39-16.09-3-26.52-.94,12.9-1.43,22.08-.85,25.68,2.76,2.83,5.79-.13,11.06-9.32,15.78-7.54,3.37-14.55,4-20.83,1C6,92.28.38,78.72,1.59,61.92,2.63,49.69,11.29,40.39,22.46,39.1Z"/><path class="cls-15" d="M20.91,33.8C13.49,34.6,12,26,12,26s-3.57-12.6,6-13.58S28.67,21.3,28.67,21.3,30.9,32.73,20.91,33.8Z"/><path class="cls-16" d="M20.92,33.72c-7.38.79-8.83-7.81-8.83-7.81S8.54,13.39,18,12.41s10.6,8.88,10.6,8.88S30.85,32.66,20.92,33.72Z"/><path class="cls-17" d="M20.94,33.63c-7.35.79-8.79-7.76-8.79-7.76S8.62,13.42,18.06,12.44,28.6,21.27,28.6,21.27,30.81,32.58,20.94,33.63Z"/><path class="cls-18" d="M21,33.55c-7.3.78-8.74-7.72-8.74-7.72S8.7,13.44,18.08,12.47s10.49,8.78,10.49,8.78S30.77,32.5,21,33.55Z"/><path class="cls-19" d="M21,33.46c-7.26.78-8.69-7.67-8.69-7.67S8.78,13.47,18.11,12.5s10.43,8.74,10.43,8.74S30.73,32.42,21,33.46Z"/><path class="cls-20" d="M21,33.38c-7.22.78-8.64-7.63-8.64-7.63S8.86,13.5,18.14,12.54s10.37,8.68,10.37,8.68S30.68,32.34,21,33.38Z"/><path class="cls-21" d="M21,33.29c-7.18.78-8.59-7.59-8.59-7.59S8.94,13.52,18.17,12.57,28.48,21.2,28.48,21.2,30.64,32.26,21,33.29Z"/><path class="cls-22" d="M21,33.21c-7.14.77-8.55-7.55-8.55-7.55S9,13.55,18.19,12.6s10.26,8.59,10.26,8.59S30.6,32.18,21,33.21Z"/><path class="cls-23" d="M21,33.12c-7.1.77-8.5-7.5-8.5-7.5s-3.41-12,5.71-13,10.2,8.54,10.2,8.54S30.56,32.1,21,33.12Z"/><path class="cls-24" d="M21,33c-7.06.76-8.45-7.46-8.45-7.46s-3.39-12,5.68-12.92,10.14,8.49,10.14,8.49S30.51,32,21,33Z"/><path class="cls-25" d="M21,33c-7,.76-8.39-7.42-8.39-7.42S9.26,13.63,18.28,12.7s10.08,8.44,10.08,8.44S30.47,31.94,21,33Z"/><path class="cls-26" d="M21,32.87c-7,.75-8.34-7.38-8.34-7.38S9.34,13.66,18.3,12.73s10,8.39,10,8.39S30.43,31.87,21,32.87Z"/><path class="cls-27" d="M21.06,32.78c-6.94.75-8.3-7.33-8.3-7.33S9.42,13.68,18.33,12.76s10,8.34,10,8.34S30.39,31.79,21.06,32.78Z"/><path class="cls-28" d="M21.07,32.7c-6.9.74-8.25-7.29-8.25-7.29S9.5,13.71,18.36,12.79s9.91,8.3,9.91,8.3S30.34,31.71,21.07,32.7Z"/><path class="cls-29" d="M21.08,32.61c-6.86.74-8.2-7.24-8.2-7.24s-3.3-11.63,5.51-12.55,9.85,8.25,9.85,8.25S30.3,31.63,21.08,32.61Z"/><path class="cls-30" d="M21.09,32.53c-6.82.73-8.15-7.21-8.15-7.21S9.66,13.76,18.42,12.86s9.79,8.19,9.79,8.19S30.26,31.55,21.09,32.53Z"/><path class="cls-31" d="M21.1,32.45c-6.77.72-8.1-7.17-8.1-7.17S9.74,13.79,18.44,12.89,28.18,21,28.18,21,30.22,31.47,21.1,32.45Z"/><path class="cls-32" d="M21.11,32.36c-6.73.73-8-7.12-8-7.12S9.82,13.81,18.47,12.92,28.15,21,28.15,21,30.17,31.39,21.11,32.36Z"/><path class="cls-33" d="M21.13,32.28c-6.7.72-8-7.08-8-7.08S9.9,13.84,18.5,13,28.12,21,28.12,21,30.13,31.31,21.13,32.28Z"/><path class="cls-34" d="M21.14,32.19c-6.66.72-8-7-8-7S10,13.87,18.53,13s9.56,8,9.56,8S30.09,31.23,21.14,32.19Z"/><path class="cls-35" d="M21.15,32.11c-6.61.71-7.91-7-7.91-7S10.06,13.89,18.55,13s9.51,8,9.51,8S30.05,31.15,21.15,32.11Z"/><path class="cls-36" d="M21.16,32c-6.57.71-7.86-7-7.86-7s-3.16-11.15,5.28-12S28,21,28,21,30,31.08,21.16,32Z"/><path class="cls-37" d="M21.17,31.94c-6.53.7-7.81-6.91-7.81-6.91s-3.14-11.08,5.25-12S28,20.94,28,20.94,30,31,21.17,31.94Z"/><path class="cls-38" d="M21.19,31.85c-6.5.7-7.77-6.86-7.77-6.86S10.3,14,18.64,13.11,28,20.92,28,20.92,29.92,30.92,21.19,31.85Z"/><path class="cls-39" d="M21.2,31.77c-6.46.69-7.72-6.82-7.72-6.82S10.37,14,18.67,13.14s9.27,7.76,9.27,7.76S29.87,30.84,21.2,31.77Z"/><path class="cls-40" d="M21.21,31.68c-6.41.69-7.67-6.78-7.67-6.78S10.45,14,18.69,13.17s9.22,7.72,9.22,7.72S29.83,30.76,21.21,31.68Z"/><path class="cls-41" d="M21.22,31.6c-6.37.68-7.62-6.74-7.62-6.74s-3.07-10.81,5.12-11.65,9.16,7.66,9.16,7.66S29.79,30.68,21.22,31.6Z"/><path class="cls-42" d="M21.23,31.51c-6.33.68-7.57-6.69-7.57-6.69s-3.05-10.74,5.09-11.58,9.1,7.61,9.1,7.61S29.75,30.6,21.23,31.51Z"/><path class="cls-43" d="M21.25,31.43c-6.3.67-7.53-6.65-7.53-6.65s-3-10.67,5.06-11.51,9,7.57,9,7.57S29.7,30.52,21.25,31.43Z"/><path class="cls-44" d="M21.26,31.34c-6.25.67-7.48-6.6-7.48-6.6s-3-10.61,5-11.44,9,7.52,9,7.52S29.66,30.44,21.26,31.34Z"/><path class="cls-45" d="M21.27,31.26c-6.21.67-7.43-6.57-7.43-6.57s-3-10.53,5-11.36,8.92,7.47,8.92,7.47S29.62,30.36,21.27,31.26Z"/><path class="cls-46" d="M21.28,31.17c-6.17.67-7.38-6.52-7.38-6.52s-3-10.46,5-11.28,8.86,7.42,8.86,7.42S29.58,30.29,21.28,31.17Z"/><path class="cls-47" d="M21.29,31.09c-6.13.66-7.33-6.48-7.33-6.48s-3-10.4,4.93-11.21,8.8,7.37,8.8,7.37S29.53,30.21,21.29,31.09Z"/><path class="cls-48" d="M21.3,31c-6.08.66-7.28-6.43-7.28-6.43s-2.93-10.33,4.9-11.14,8.74,7.32,8.74,7.32S29.49,30.13,21.3,31Z"/><path class="cls-49" d="M21.32,30.92c-6.05.65-7.24-6.39-7.24-6.39s-2.91-10.26,4.86-11.07,8.69,7.28,8.69,7.28S29.45,30.05,21.32,30.92Z"/><path class="cls-50" d="M21.33,30.83c-6,.65-7.19-6.35-7.19-6.35s-2.89-10.19,4.83-11,8.63,7.23,8.63,7.23S29.41,30,21.33,30.83Z"/><path class="cls-51" d="M21.34,30.75c-6,.64-7.14-6.31-7.14-6.31S11.33,14.32,19,13.53s8.57,7.17,8.57,7.17S29.36,29.89,21.34,30.75Z"/><path class="cls-52" d="M21.35,30.66c-5.92.64-7.09-6.26-7.09-6.26s-2.85-10,4.77-10.84,8.51,7.13,8.51,7.13S29.32,29.81,21.35,30.66Z"/><path class="cls-53" d="M21.36,30.58c-5.88.63-7-6.22-7-6.22s-2.83-10,4.73-10.77,8.46,7.08,8.46,7.08S29.28,29.73,21.36,30.58Z"/><path class="cls-54" d="M21.38,30.49c-5.85.63-7-6.18-7-6.18s-2.81-9.91,4.7-10.69,8.4,7,8.4,7S29.24,29.65,21.38,30.49Z"/><path class="cls-55" d="M21.39,30.41c-5.81.62-7-6.14-7-6.14s-2.79-9.84,4.67-10.62,8.34,7,8.34,7S29.19,29.57,21.39,30.41Z"/><path class="cls-56" d="M21.4,30.32c-5.77.62-6.9-6.09-6.9-6.09s-2.77-9.78,4.64-10.54,8.28,6.93,8.28,6.93S29.15,29.5,21.4,30.32Z"/><path class="cls-57" d="M21.41,30.24c-5.72.62-6.85-6-6.85-6s-2.75-9.71,4.61-10.47,8.22,6.88,8.22,6.88S29.11,29.42,21.41,30.24Z"/><path class="cls-58" d="M21.42,30.15c-5.68.62-6.8-6-6.8-6s-2.73-9.65,4.57-10.4,8.17,6.84,8.17,6.84S29.07,29.34,21.42,30.15Z"/><path class="cls-59" d="M21.44,30.07c-5.65.61-6.76-6-6.76-6S12,14.53,19.22,13.78s8.11,6.79,8.11,6.79S29,29.26,21.44,30.07Z"/><path class="cls-60" d="M21.45,30c-5.61.6-6.71-5.93-6.71-5.93s-2.69-9.5,4.51-10.25,8.05,6.74,8.05,6.74S29,29.18,21.45,30Z"/><path class="cls-61" d="M21.46,29.9C15.9,30.5,14.8,24,14.8,24s-2.67-9.44,4.48-10.17,8,6.68,8,6.68S28.94,29.1,21.46,29.9Z"/><path class="cls-62" d="M21.47,29.82C16,30.41,14.86,24,14.86,24s-2.65-9.37,4.44-10.1,7.94,6.64,7.94,6.64S28.9,29,21.47,29.82Z"/><path class="cls-63" d="M21.48,29.73c-5.48.59-6.55-5.79-6.55-5.79s-2.64-9.3,4.4-10,7.88,6.59,7.88,6.59S28.85,28.94,21.48,29.73Z"/><path class="cls-64" d="M21.49,29.65c-5.44.58-6.5-5.76-6.5-5.76s-2.62-9.23,4.37-10,7.82,6.54,7.82,6.54S28.81,28.86,21.49,29.65Z"/><path class="cls-65" d="M21.51,29.56c-5.4.58-6.46-5.71-6.46-5.71s-2.6-9.16,4.34-9.88,7.76,6.5,7.76,6.5S28.77,28.78,21.51,29.56Z"/><path class="cls-66" d="M21.52,29.48c-5.36.57-6.41-5.67-6.41-5.67s-2.58-9.09,4.3-9.81,7.71,6.45,7.71,6.45S28.73,28.71,21.52,29.48Z"/><path class="cls-67" d="M21.53,29.39c-5.32.57-6.36-5.62-6.36-5.62s-2.56-9,4.27-9.73,7.65,6.39,7.65,6.39S28.68,28.63,21.53,29.39Z"/><path class="cls-67" d="M21.54,29.31c-5.28.56-6.31-5.58-6.31-5.58s-2.54-9,4.24-9.66,7.59,6.35,7.59,6.35S28.64,28.55,21.54,29.31Z"/><path class="cls-68" d="M21.55,29.22c-5.24.57-6.26-5.54-6.26-5.54S12.77,14.8,19.5,14.1,27,20.4,27,20.4,28.6,28.47,21.55,29.22Z"/><path class="cls-69" d="M21.57,29.14c-5.2.56-6.22-5.5-6.22-5.5s-2.5-8.82,4.18-9.51S27,20.38,27,20.38,28.56,28.39,21.57,29.14Z"/><path class="cls-70" d="M21.58,29.05c-5.16.56-6.17-5.45-6.17-5.45s-2.48-8.75,4.14-9.44S27,20.37,27,20.37,28.51,28.31,21.58,29.05Z"/><path class="cls-71" d="M21.59,29c-5.12.55-6.12-5.41-6.12-5.41S13,14.88,19.58,14.2s7.35,6.15,7.35,6.15S28.47,28.23,21.59,29Z"/><path class="cls-72" d="M21.6,28.88c-5.08.55-6.07-5.36-6.07-5.36s-2.44-8.62,4.08-9.29,7.29,6.1,7.29,6.1S28.43,28.15,21.6,28.88Z"/><path class="cls-73" d="M21.61,28.8c-5,.54-6-5.33-6-5.33s-2.43-8.54,4.05-9.21,7.23,6.06,7.23,6.06S28.39,28.07,21.61,28.8Z"/><path class="cls-74" d="M21.63,28.71c-5,.54-6-5.28-6-5.28s-2.41-8.47,4-9.14,7.18,6,7.18,6S28.34,28,21.63,28.71Z"/><path class="cls-75" d="M21.64,28.63c-5,.53-5.93-5.24-5.93-5.24s-2.39-8.41,4-9.07,7.12,6,7.12,6S28.3,27.92,21.64,28.63Z"/><path class="cls-76" d="M21.65,28.54c-4.92.53-5.88-5.19-5.88-5.19s-2.37-8.34,3.95-9,7.06,5.91,7.06,5.91S28.26,27.84,21.65,28.54Z"/><path class="cls-77" d="M21.66,28.46c-4.87.52-5.83-5.15-5.83-5.15S13.48,15,19.75,14.39s7,5.86,7,5.86S28.22,27.76,21.66,28.46Z"/><path class="cls-78" d="M21.67,28.37c-4.83.52-5.78-5.11-5.78-5.11s-2.33-8.2,3.89-8.84,6.94,5.81,6.94,5.81S28.17,27.68,21.67,28.37Z"/><path class="cls-79" d="M21.68,28.29C16.89,28.8,16,23.22,16,23.22s-2.31-8.13,3.85-8.77,6.89,5.77,6.89,5.77S28.13,27.6,21.68,28.29Z"/><path class="cls-80" d="M21.7,28.2c-4.76.52-5.69-5-5.69-5s-2.29-8.06,3.82-8.7,6.83,5.72,6.83,5.72S28.09,27.52,21.7,28.2Z"/><path class="cls-81" d="M21.71,28.12c-4.72.51-5.64-5-5.64-5s-2.27-8,3.79-8.62,6.77,5.66,6.77,5.66S28.05,27.44,21.71,28.12Z"/><path class="cls-82" d="M21.72,28c-4.67.51-5.59-4.94-5.59-4.94s-2.25-7.92,3.76-8.54,6.71,5.62,6.71,5.62S28,27.36,21.72,28Z"/><path class="cls-83" d="M21.73,28c-4.63.5-5.54-4.9-5.54-4.9S14,15.19,19.91,14.58s6.66,5.57,6.66,5.57S28,27.28,21.73,28Z"/><path class="cls-84" d="M21.74,27.86c-4.59.5-5.49-4.85-5.49-4.85s-2.21-7.79,3.69-8.4,6.6,5.52,6.6,5.52S27.92,27.2,21.74,27.86Z"/><path class="cls-85" d="M21.76,27.78C17.2,28.27,16.31,23,16.31,23S14.12,15.25,20,14.64s6.54,5.48,6.54,5.48S27.88,27.13,21.76,27.78Z"/><path class="cls-86" d="M21.77,27.7c-4.51.48-5.4-4.77-5.4-4.77S14.2,15.27,20,14.67s6.48,5.43,6.48,5.43S27.83,27.05,21.77,27.7Z"/><path class="cls-87" d="M21.78,27.61c-4.47.48-5.35-4.73-5.35-4.73S14.28,15.3,20,14.71s6.42,5.37,6.42,5.37S27.79,27,21.78,27.61Z"/><path class="cls-88" d="M21.79,27.53c-4.43.47-5.3-4.69-5.3-4.69s-2.13-7.51,3.56-8.1,6.37,5.33,6.37,5.33S27.75,26.89,21.79,27.53Z"/><path class="cls-89" d="M21.8,27.44c-4.39.47-5.25-4.64-5.25-4.64s-2.11-7.45,3.53-8,6.31,5.28,6.31,5.28S27.71,26.81,21.8,27.44Z"/><path class="cls-90" d="M21.82,27.36c-4.35.46-5.21-4.6-5.21-4.6s-2.09-7.38,3.5-8S26.36,20,26.36,20,27.66,26.73,21.82,27.36Z"/><path class="cls-91" d="M21.83,27.27c-4.31.46-5.16-4.55-5.16-4.55s-2.07-7.31,3.47-7.89S26.33,20,26.33,20,27.62,26.65,21.83,27.27Z"/><path class="cls-92" d="M21.84,27.19c-4.27.46-5.11-4.52-5.11-4.52s-2.05-7.24,3.43-7.8S26.3,20,26.3,20,27.58,26.57,21.84,27.19Z"/><path class="cls-93" d="M21.85,27.1c-4.23.46-5.06-4.47-5.06-4.47s-2-7.17,3.4-7.73S26.27,20,26.27,20,27.54,26.49,21.85,27.1Z"/><path class="cls-94" d="M21.86,27c-4.18.45-5-4.43-5-4.43s-2-7.1,3.37-7.66,6,5,6,5S27.49,26.41,21.86,27Z"/><path class="cls-95" d="M21.87,26.93c-4.14.45-5-4.38-5-4.38s-2-7,3.34-7.59,6,5,6,5S27.45,26.34,21.87,26.93Z"/><path class="cls-96" d="M21.89,26.85c-4.11.44-4.92-4.34-4.92-4.34s-2-7,3.31-7.52,5.9,4.94,5.9,4.94S27.41,26.26,21.89,26.85Z"/><path class="cls-97" d="M21.9,26.76c-4.07.44-4.87-4.3-4.87-4.3s-2-6.89,3.27-7.43,5.84,4.89,5.84,4.89S27.37,26.18,21.9,26.76Z"/><path class="cls-98" d="M21.91,26.68c-4,.43-4.82-4.26-4.82-4.26s-1.93-6.83,3.24-7.36,5.78,4.84,5.78,4.84S27.32,26.1,21.91,26.68Z"/><path class="cls-99" d="M21.92,26.59c-4,.43-4.77-4.21-4.77-4.21s-1.91-6.76,3.21-7.29,5.72,4.79,5.72,4.79S27.28,26,21.92,26.59Z"/><path class="cls-100" d="M21.93,26.51c-3.94.42-4.72-4.17-4.72-4.17s-1.89-6.69,3.18-7.22,5.66,4.75,5.66,4.75S27.24,25.94,21.93,26.51Z"/><path class="cls-101" d="M22,26.42c-3.91.42-4.67-4.12-4.67-4.12s-1.88-6.63,3.13-7.15S26,19.85,26,19.85,27.2,25.86,22,26.42Z"/><path class="cls-102" d="M22,26.34c-3.87.41-4.62-4.09-4.62-4.09s-1.86-6.55,3.1-7.06S26,19.83,26,19.83,27.15,25.78,22,26.34Z"/><path class="cls-103" d="M22,26.25c-3.82.41-4.57-4-4.57-4s-1.84-6.48,3.07-7S26,19.82,26,19.82,27.11,25.7,22,26.25Z"/><path class="cls-104" d="M22,26.17c-3.78.41-4.52-4-4.52-4s-1.82-6.42,3-6.92,5.43,4.55,5.43,4.55S27.07,25.62,22,26.17Z"/><path class="cls-105" d="M22,26.08c-3.74.41-4.47-3.95-4.47-3.95s-1.8-6.35,3-6.85,5.38,4.5,5.38,4.5S27,25.55,22,26.08Z"/><path class="cls-106" d="M22,26c-3.71.4-4.43-3.91-4.43-3.91s-1.78-6.28,3-6.78,5.32,4.46,5.32,4.46S27,25.47,22,26Z"/><path class="cls-107" d="M22,25.91c-3.66.4-4.38-3.87-4.38-3.87s-1.76-6.21,2.94-6.69,5.26,4.4,5.26,4.4S26.94,25.39,22,25.91Z"/><path class="cls-108" d="M22,25.83C18.41,26.22,17.7,22,17.7,22S16,15.86,20.61,15.38s5.2,4.35,5.2,4.35S26.9,25.31,22,25.83Z"/><path class="cls-109" d="M22,25.74c-3.58.39-4.28-3.78-4.28-3.78S16,15.89,20.64,15.41s5.14,4.31,5.14,4.31S26.86,25.23,22,25.74Z"/><path class="cls-110" d="M22.05,25.66c-3.54.38-4.23-3.74-4.23-3.74s-1.71-6,2.84-6.48,5.09,4.26,5.09,4.26S26.81,25.15,22.05,25.66Z"/><path class="cls-111" d="M22.06,25.57c-3.5.38-4.18-3.69-4.18-3.69s-1.69-5.94,2.81-6.41,5,4.21,5,4.21S26.77,25.07,22.06,25.57Z"/><path class="cls-112" d="M22.08,25.49c-3.46.37-4.14-3.66-4.14-3.66S16.27,16,20.72,15.5s5,4.17,5,4.17S26.73,25,22.08,25.49Z"/><path class="cls-113" d="M22.09,25.4c-3.42.37-4.09-3.61-4.09-3.61s-1.65-5.8,2.75-6.25,4.91,4.11,4.91,4.11S26.69,24.91,22.09,25.4Z"/><path class="cls-114" d="M22.1,25.32c-3.38.36-4-3.57-4-3.57S16.43,16,20.77,15.57s4.86,4.06,4.86,4.06S26.64,24.83,22.1,25.32Z"/><path class="cls-115" d="M22.11,25.24c-3.34.35-4-3.53-4-3.53S16.51,16,20.8,15.6s4.8,4,4.8,4S26.6,24.76,22.11,25.24Z"/><path class="cls-116" d="M22.12,25.15c-3.29.36-3.94-3.49-3.94-3.49s-1.59-5.59,2.65-6,4.74,4,4.74,4S26.56,24.68,22.12,25.15Z"/><path class="cls-117" d="M22.14,25.07c-3.26.35-3.9-3.45-3.9-3.45s-1.57-5.52,2.62-6,4.68,3.92,4.68,3.92S26.52,24.6,22.14,25.07Z"/><path class="cls-118" d="M22.15,25c-3.22.35-3.85-3.4-3.85-3.4s-1.55-5.46,2.59-5.88,4.62,3.86,4.62,3.86S26.47,24.52,22.15,25Z"/><path class="cls-119" d="M22.16,24.9c-3.18.34-3.8-3.36-3.8-3.36s-1.53-5.39,2.55-5.81,4.57,3.82,4.57,3.82S26.43,24.44,22.16,24.9Z"/><path class="cls-120" d="M22.17,24.81c-3.13.34-3.75-3.31-3.75-3.31s-1.51-5.32,2.52-5.74,4.51,3.77,4.51,3.77S26.39,24.36,22.17,24.81Z"/><path class="cls-15" d="M5.45,55.2S8.77,43.36,21.66,41.53a29.32,29.32,0,0,1,21.85,5.92c3.76,4.28,1.55,6.82-6.13,7.75-10.07.13-19.7.48-26,2.54C6.34,59.09,5,57.81,5.45,55.2Z"/><path class="cls-16" d="M5.52,55.15s3.3-11.78,16.14-13.61a29.2,29.2,0,0,1,21.75,5.9c3.74,4.26,1.54,6.78-6.11,7.71-10,.13-19.61.48-25.89,2.53C6.4,59,5,57.74,5.52,55.15Z"/><path class="cls-17" d="M5.58,55.1S8.86,43.37,21.65,41.55A29.06,29.06,0,0,1,43.3,47.42c3.72,4.25,1.53,6.76-6.08,7.68-10,.13-19.53.47-25.77,2.52C6.46,59,5.11,57.68,5.58,55.1Z"/><path class="cls-18" d="M5.64,55.05s3.27-11.68,16-13.48a28.89,28.89,0,0,1,21.55,5.84c3.71,4.22,1.53,6.72-6,7.64-9.93.13-19.44.47-25.65,2.51C6.52,58.89,5.17,57.62,5.64,55.05Z"/><path class="cls-19" d="M5.71,55S9,43.38,21.63,41.58a28.77,28.77,0,0,1,21.45,5.81c3.7,4.21,1.52,6.7-6,7.61-9.89.13-19.35.47-25.53,2.5C6.58,58.82,5.24,57.56,5.71,55Z"/><path class="cls-20" d="M5.77,55S9,43.38,21.62,41.59A28.65,28.65,0,0,1,43,47.38C46.65,51.56,44.49,54,37,55c-9.84.13-19.26.47-25.42,2.48C6.64,58.75,5.3,57.5,5.77,55Z"/><path class="cls-21" d="M5.84,54.9S9.06,43.38,21.61,41.6a28.53,28.53,0,0,1,21.26,5.76c3.66,4.17,1.5,6.63-6,7.54-9.8.13-19.17.47-25.3,2.47C6.7,58.68,5.37,57.44,5.84,54.9Z"/><path class="cls-22" d="M5.9,54.85S9.11,43.39,21.6,41.61a28.41,28.41,0,0,1,21.16,5.73c3.64,4.15,1.5,6.61-5.94,7.51-9.75.12-19.08.46-25.18,2.46C6.76,58.62,5.44,57.37,5.9,54.85Z"/><path class="cls-23" d="M6,54.8s3.2-11.41,15.63-13.18a28.28,28.28,0,0,1,21.06,5.71c3.63,4.13,1.49,6.57-5.91,7.47-9.71.12-19,.46-25.07,2.45C6.82,58.55,5.5,57.31,6,54.8Z"/><path class="cls-24" d="M6,54.75S9.2,43.39,21.58,41.63a28.17,28.17,0,0,1,21,5.68c3.6,4.11,1.48,6.55-5.89,7.44-9.66.12-18.91.46-24.95,2.44C6.88,58.48,5.57,57.25,6,54.75Z"/><path class="cls-25" d="M6.09,54.7S9.25,43.39,21.57,41.64A28,28,0,0,1,42.44,47.3c3.59,4.09,1.48,6.51-5.86,7.4-9.62.12-18.82.46-24.83,2.43C6.94,58.41,5.63,57.19,6.09,54.7Z"/><path class="cls-26" d="M6.15,54.65s3.15-11.25,15.41-13a27.83,27.83,0,0,1,20.77,5.62c3.58,4.08,1.47,6.48-5.83,7.37-9.57.12-18.73.45-24.72,2.42C7,58.35,5.7,57.13,6.15,54.65Z"/><path class="cls-27" d="M6.22,54.6S9.35,43.4,21.55,41.67a27.68,27.68,0,0,1,20.67,5.6c3.56,4,1.47,6.45-5.8,7.33-9.53.12-18.64.45-24.6,2.4C7.05,58.28,5.76,57.07,6.22,54.6Z"/><path class="cls-28" d="M6.28,54.55S9.4,43.4,21.54,41.68a27.59,27.59,0,0,1,20.58,5.57c3.54,4,1.45,6.42-5.78,7.3-9.48.12-18.55.45-24.48,2.39C7.11,58.21,5.83,57,6.28,54.55Z"/><path class="cls-29" d="M6.34,54.5S9.45,43.41,21.53,41.69A27.46,27.46,0,0,1,42,47.24c3.52,4,1.45,6.39-5.75,7.26-9.44.12-18.46.45-24.37,2.38C7.17,58.14,5.89,56.94,6.34,54.5Z"/><path class="cls-30" d="M6.41,54.45s3.09-11,15.11-12.75A27.34,27.34,0,0,1,41.9,47.22c3.51,4,1.44,6.36-5.72,7.23-9.39.12-18.37.45-24.25,2.37C7.23,58.08,6,56.88,6.41,54.45Z"/><path class="cls-31" d="M6.47,54.4s3.07-11,15.05-12.69a27.16,27.16,0,0,1,20.27,5.5c3.49,4,1.44,6.33-5.69,7.19-9.34.12-18.29.44-24.13,2.36C7.29,58,6,56.82,6.47,54.4Z"/><path class="cls-32" d="M6.53,54.35s3.06-10.93,15-12.63a27.08,27.08,0,0,1,20.18,5.47c3.47,4,1.43,6.3-5.67,7.16-9.3.12-18.2.44-24,2.35C7.35,57.94,6.09,56.76,6.53,54.35Z"/><path class="cls-33" d="M6.6,54.3s3-10.88,14.9-12.56a26.91,26.91,0,0,1,20.08,5.44C45,51.11,43,53.44,35.94,54.3c-9.25.12-18.11.44-23.9,2.34C7.41,57.87,6.16,56.7,6.6,54.3Z"/><path class="cls-34" d="M6.66,54.25s3-10.83,14.83-12.5a26.77,26.77,0,0,1,20,5.41c3.44,3.92,1.42,6.24-5.61,7.09-9.21.12-18,.44-23.78,2.32C7.47,57.81,6.22,56.63,6.66,54.25Z"/><path class="cls-35" d="M6.72,54.2s3-10.77,14.76-12.44a26.67,26.67,0,0,1,19.89,5.39c3.42,3.9,1.4,6.2-5.59,7.05-9.16.12-17.93.44-23.67,2.31C7.53,57.74,6.29,56.57,6.72,54.2Z"/><path class="cls-36" d="M6.79,54.15s3-10.72,14.68-12.38a26.55,26.55,0,0,1,19.79,5.36c3.4,3.88,1.4,6.18-5.56,7-9.12.12-17.84.43-23.55,2.3C7.59,57.67,6.35,56.51,6.79,54.15Z"/><path class="cls-37" d="M6.85,54.1s3-10.67,14.61-12.32a26.41,26.41,0,0,1,19.69,5.34c3.39,3.86,1.39,6.14-5.53,7-9.07.12-17.75.43-23.43,2.29C7.65,57.6,6.42,56.45,6.85,54.1Z"/><path class="cls-38" d="M6.91,54.05s3-10.61,14.54-12.26A26.27,26.27,0,0,1,41,47.1c3.37,3.84,1.39,6.12-5.5,6.95-9,.12-17.67.43-23.31,2.28C7.71,57.54,6.48,56.39,6.91,54.05Z"/><path class="cls-39" d="M7,54S9.93,43.44,21.44,41.8a26.17,26.17,0,0,1,19.5,5.29c3.35,3.82,1.38,6.08-5.48,6.91-9,.11-17.58.43-23.2,2.27C7.77,57.47,6.55,56.33,7,54Z"/><path class="cls-40" d="M7,54S10,43.44,21.43,41.81a26.05,26.05,0,0,1,19.4,5.26c3.34,3.8,1.37,6-5.45,6.88-8.94.11-17.49.42-23.08,2.26C7.83,57.4,6.62,56.26,7,54Z"/><path class="cls-41" d="M7.1,53.9S10,43.44,21.42,41.83a25.89,25.89,0,0,1,19.3,5.23c3.32,3.78,1.37,6-5.41,6.84-8.9.11-17.41.42-23,2.24C7.89,57.34,6.68,56.2,7.1,53.9Z"/><path class="cls-42" d="M7.17,53.85s2.91-10.4,14.24-12A25.74,25.74,0,0,1,40.61,47c3.31,3.76,1.36,6-5.38,6.81-8.86.11-17.32.42-22.86,2.23C8,57.27,6.75,56.14,7.17,53.85Z"/><path class="cls-43" d="M7.23,53.8s2.9-10.35,14.17-11.95A25.64,25.64,0,0,1,40.51,47c3.28,3.74,1.35,6-5.36,6.77-8.81.11-17.23.42-22.74,2.22C8,57.2,6.81,56.08,7.23,53.8Z"/><path class="cls-44" d="M7.29,53.75s2.89-10.3,14.1-11.89A25.52,25.52,0,0,1,40.4,47c3.27,3.73,1.34,5.93-5.33,6.74-8.77.11-17.14.42-22.62,2.21C8.06,57.13,6.88,56,7.29,53.75Z"/><path class="cls-45" d="M7.36,53.7s2.86-10.24,14-11.83A25.38,25.38,0,0,1,40.29,47c3.26,3.71,1.34,5.9-5.3,6.71-8.72.11-17.06.41-22.51,2.2C8.12,57.07,6.94,56,7.36,53.7Z"/><path class="cls-46" d="M7.42,53.65s2.85-10.19,14-11.77A25.23,25.23,0,0,1,40.18,47c3.24,3.69,1.34,5.87-5.27,6.67-8.67.11-17,.41-22.39,2.19C8.18,57,7,55.89,7.42,53.65Z"/><path class="cls-47" d="M7.48,53.6s2.84-10.14,13.89-11.71A25.15,25.15,0,0,1,40.08,47c3.22,3.67,1.32,5.84-5.25,6.64C26.2,53.71,18,54,12.56,55.78,8.24,56.93,7.08,55.83,7.48,53.6Z"/><path class="cls-48" d="M7.55,53.55s2.82-10.08,13.81-11.64A24.93,24.93,0,0,1,40,47c3.2,3.65,1.32,5.81-5.22,6.6-8.58.11-16.79.41-22.16,2.17C8.3,56.86,7.14,55.77,7.55,53.55Z"/><path class="cls-49" d="M7.61,53.5s2.81-10,13.74-11.58a24.79,24.79,0,0,1,18.51,5c3.19,3.63,1.31,5.78-5.19,6.57-8.54.11-16.7.41-22,2.15C8.36,56.8,7.21,55.71,7.61,53.5Z"/><path class="cls-50" d="M7.67,53.45s2.8-10,13.67-11.52a24.69,24.69,0,0,1,18.42,5c3.16,3.61,1.3,5.75-5.17,6.53-8.49.11-16.61.4-21.92,2.14C8.42,56.73,7.27,55.65,7.67,53.45Z"/><path class="cls-51" d="M7.74,53.4s2.78-9.92,13.59-11.46a24.57,24.57,0,0,1,18.32,5c3.15,3.59,1.29,5.72-5.14,6.5-8.45.11-16.52.4-21.81,2.13C8.48,56.66,7.34,55.59,7.74,53.4Z"/><path class="cls-52" d="M7.8,53.35S10.56,43.48,21.32,42a24.41,24.41,0,0,1,18.22,4.94c3.14,3.57,1.29,5.68-5.11,6.46-8.4.11-16.44.4-21.69,2.12C8.54,56.59,7.4,55.52,7.8,53.35Z"/><path class="cls-53" d="M7.86,53.3S10.61,43.48,21.31,42a24.29,24.29,0,0,1,18.12,4.91c3.12,3.56,1.29,5.66-5.08,6.43-8.36.11-16.35.4-21.57,2.11C8.6,56.53,7.47,55.46,7.86,53.3Z"/><path class="cls-54" d="M7.93,53.25S10.66,43.49,21.3,42a24.19,24.19,0,0,1,18,4.89c3.1,3.53,1.27,5.62-5.06,6.39-8.31.11-16.26.39-21.46,2.1C8.66,56.46,7.53,55.4,7.93,53.25Z"/><path class="cls-55" d="M8,53.2S10.71,43.49,21.29,42a24,24,0,0,1,17.93,4.85c3.08,3.52,1.27,5.6-5,6.36-8.27.11-16.17.39-21.34,2.09C8.72,56.39,7.6,55.34,8,53.2Z"/><path class="cls-56" d="M8.06,53.15S10.76,43.49,21.28,42a23.88,23.88,0,0,1,17.83,4.83c3.07,3.49,1.26,5.56-5,6.32-8.22.11-16.08.39-21.22,2.07C8.78,56.32,7.67,55.28,8.06,53.15Z"/><path class="cls-57" d="M8.12,53.1S10.81,43.49,21.27,42A23.77,23.77,0,0,1,39,46.81c3,3.48,1.26,5.53-5,6.29-8.18.1-16,.39-21.1,2.06C8.84,56.26,7.73,55.21,8.12,53.1Z"/><path class="cls-58" d="M8.18,53.05s2.68-9.55,13.08-11A23.66,23.66,0,0,1,38.9,46.8c3,3.45,1.24,5.5-4.95,6.25-8.13.1-15.9.39-21,2.05C8.9,56.19,7.8,55.15,8.18,53.05Z"/><path class="cls-59" d="M8.25,53s2.65-9.5,13-11a23.52,23.52,0,0,1,17.54,4.75c3,3.44,1.24,5.47-4.92,6.22-8.08.1-15.82.38-20.87,2C9,56.12,7.86,55.09,8.25,53Z"/><path class="cls-60" d="M8.31,53S11,43.5,21.25,42a23.37,23.37,0,0,1,17.43,4.73c3,3.41,1.24,5.44-4.89,6.18-8,.1-15.73.38-20.75,2C9,56.05,7.93,55,8.31,53Z"/><path class="cls-61" d="M8.37,52.9S11,43.51,21.24,42.05a23.25,23.25,0,0,1,17.33,4.7c3,3.4,1.23,5.41-4.86,6.15-8,.1-15.64.38-20.64,2C9.08,56,8,55,8.37,52.9Z"/><path class="cls-62" d="M8.44,52.85s2.61-9.34,12.79-10.79a23.15,23.15,0,0,1,17.24,4.68c3,3.38,1.22,5.38-4.84,6.11-8,.1-15.55.38-20.52,2C9.13,55.92,8.06,54.91,8.44,52.85Z"/><path class="cls-63" d="M8.5,52.8s2.6-9.29,12.72-10.72a23,23,0,0,1,17.14,4.64c3,3.36,1.21,5.35-4.81,6.08-7.9.1-15.46.38-20.4,2C9.19,55.85,8.12,54.84,8.5,52.8Z"/><path class="cls-64" d="M8.56,52.75s2.59-9.23,12.65-10.66a22.84,22.84,0,0,1,17,4.62c2.93,3.34,1.21,5.31-4.78,6-7.86.1-15.37.37-20.29,2C9.25,55.78,8.19,54.78,8.56,52.75Z"/><path class="cls-65" d="M8.63,52.7S11.2,43.52,21.2,42.1a22.72,22.72,0,0,1,16.94,4.59c2.92,3.32,1.2,5.29-4.75,6-7.81.1-15.28.37-20.17,2C9.31,55.72,8.26,54.72,8.63,52.7Z"/><path class="cls-66" d="M8.69,52.65a15.49,15.49,0,0,1,12.5-10.54A22.6,22.6,0,0,1,38,46.68c2.9,3.3,1.19,5.25-4.73,6-7.77.1-15.2.37-20.05,2C9.37,55.65,8.32,54.66,8.69,52.65Z"/><path class="cls-67" d="M8.75,52.6A15.42,15.42,0,0,1,21.18,42.12a22.48,22.48,0,0,1,16.75,4.54c2.88,3.28,1.19,5.23-4.7,5.94-7.72.1-15.11.37-19.94,1.95C9.43,55.58,8.39,54.6,8.75,52.6Z"/><path class="cls-67" d="M8.82,52.55A15.31,15.31,0,0,1,21.17,42.13a22.36,22.36,0,0,1,16.65,4.51c2.87,3.27,1.18,5.2-4.67,5.91-7.68.1-15,.36-19.82,1.94C9.49,55.51,8.45,54.54,8.82,52.55Z"/><path class="cls-68" d="M8.88,52.5A15.23,15.23,0,0,1,21.16,42.14a22.26,22.26,0,0,1,16.56,4.49c2.84,3.24,1.17,5.16-4.65,5.87-7.63.1-14.93.36-19.7,1.93C9.55,55.45,8.52,54.47,8.88,52.5Z"/><path class="cls-69" d="M8.94,52.45A15.15,15.15,0,0,1,21.15,42.16a22.09,22.09,0,0,1,16.46,4.45c2.83,3.23,1.16,5.14-4.62,5.84-7.59.1-14.84.36-19.59,1.91C9.61,55.38,8.58,54.41,8.94,52.45Z"/><path class="cls-70" d="M9,52.4A15,15,0,0,1,21.14,42.17,21.9,21.9,0,0,1,37.5,46.6c2.82,3.21,1.16,5.1-4.59,5.8-7.54.1-14.75.36-19.47,1.9C9.67,55.31,8.65,54.35,9,52.4Z"/><path class="cls-71" d="M9.07,52.35A15,15,0,0,1,21.13,42.18a21.79,21.79,0,0,1,16.26,4.4c2.8,3.19,1.15,5.08-4.56,5.77-7.5.1-14.66.36-19.35,1.89C9.73,55.24,8.71,54.29,9.07,52.35Z"/><path class="cls-72" d="M9.13,52.3a14.86,14.86,0,0,1,12-10.11,21.68,21.68,0,0,1,16.17,4.38c2.78,3.17,1.14,5-4.54,5.73-7.45.1-14.58.35-19.24,1.88C9.79,55.18,8.78,54.23,9.13,52.3Z"/><path class="cls-73" d="M9.2,52.25a14.77,14.77,0,0,1,11.91-10,21.54,21.54,0,0,1,16.07,4.35c2.76,3.15,1.14,5-4.51,5.7-7.4.09-14.49.35-19.12,1.87C9.85,55.11,8.85,54.17,9.2,52.25Z"/><path class="cls-74" d="M9.26,52.2a14.69,14.69,0,0,1,11.85-10,21.39,21.39,0,0,1,16,4.33c2.75,3.13,1.13,5-4.48,5.66-7.36.09-14.4.35-19,1.86C9.91,55,8.91,54.1,9.26,52.2Z"/><path class="cls-75" d="M9.32,52.15A14.61,14.61,0,0,1,21.1,42.22,21.27,21.27,0,0,1,37,46.52c2.73,3.11,1.13,4.95-4.45,5.63-7.31.09-14.31.35-18.88,1.85C10,55,9,54,9.32,52.15Z"/><path class="cls-76" d="M9.39,52.1a14.52,14.52,0,0,1,11.7-9.87,21.15,21.15,0,0,1,15.77,4.28c2.71,3.09,1.11,4.92-4.43,5.59-7.27.09-14.22.35-18.77,1.83C10,54.91,9,54,9.39,52.1Z"/><path class="cls-77" d="M9.45,52.05a14.42,14.42,0,0,1,11.63-9.8,21,21,0,0,1,15.67,4.24c2.7,3.07,1.11,4.89-4.4,5.56-7.22.09-14.13.34-18.65,1.82C10.09,54.84,9.11,53.92,9.45,52.05Z"/><path class="cls-78" d="M9.51,52a14.33,14.33,0,0,1,11.56-9.74,20.86,20.86,0,0,1,15.57,4.22c2.68,3.05,1.1,4.86-4.37,5.52-7.18.09-14,.34-18.53,1.81C10.15,54.77,9.17,53.86,9.51,52Z"/><path class="cls-79" d="M9.58,52a14.23,14.23,0,0,1,11.48-9.68,20.74,20.74,0,0,1,15.47,4.19c2.67,3,1.1,4.83-4.34,5.49-7.13.09-14,.34-18.42,1.8C10.21,54.7,9.24,53.8,9.58,52Z"/><path class="cls-80" d="M9.64,51.9a14.14,14.14,0,0,1,11.41-9.62,20.62,20.62,0,0,1,15.38,4.17c2.64,3,1.09,4.8-4.32,5.45-7.09.09-13.87.34-18.3,1.79C10.26,54.64,9.3,53.73,9.64,51.9Z"/><path class="cls-81" d="M9.7,51.85A14.06,14.06,0,0,1,21,42.29a20.5,20.5,0,0,1,15.28,4.14c2.63,3,1.08,4.77-4.29,5.42-7,.09-13.78.33-18.18,1.78C10.32,54.57,9.37,53.67,9.7,51.85Z"/><path class="cls-82" d="M9.77,51.8A14,14,0,0,1,21,42.3a20.37,20.37,0,0,1,15.18,4.12c2.61,3,1.08,4.73-4.26,5.38-7,.09-13.69.33-18.07,1.77C10.38,54.5,9.44,53.61,9.77,51.8Z"/><path class="cls-83" d="M9.83,51.75A13.89,13.89,0,0,1,21,42.31,20.22,20.22,0,0,1,36.1,46.4c2.6,3,1.07,4.71-4.23,5.35-6.95.09-13.6.33-18,1.75C10.44,54.43,9.5,53.55,9.83,51.75Z"/><path class="cls-84" d="M9.89,51.7A13.79,13.79,0,0,1,21,42.33a20.09,20.09,0,0,1,15,4.06c2.58,2.93,1.06,4.67-4.21,5.31-6.91.09-13.51.33-17.83,1.74C10.5,54.37,9.57,53.49,9.89,51.7Z"/><path class="cls-85" d="M10,51.65a13.68,13.68,0,0,1,11-9.31,20,20,0,0,1,14.89,4c2.56,2.92,1,4.65-4.18,5.28-6.86.09-13.42.33-17.72,1.73C10.56,54.3,9.63,53.43,10,51.65Z"/><path class="cls-86" d="M10,51.6a13.6,13.6,0,0,1,11-9.25,19.84,19.84,0,0,1,14.79,4c2.55,2.89,1,4.61-4.15,5.24-6.82.09-13.34.32-17.6,1.72C10.62,54.23,9.7,53.36,10,51.6Z"/><path class="cls-87" d="M10.08,51.55A13.52,13.52,0,0,1,21,42.36a19.73,19.73,0,0,1,14.7,4c2.52,2.88,1,4.58-4.13,5.21-6.77.09-13.25.32-17.48,1.71C10.68,54.17,9.76,53.3,10.08,51.55Z"/><path class="cls-88" d="M10.15,51.5A13.41,13.41,0,0,1,21,42.37a19.58,19.58,0,0,1,14.59,4c2.51,2.86,1,4.55-4.1,5.17-6.72.09-13.16.32-17.37,1.7C10.74,54.1,9.83,53.24,10.15,51.5Z"/><path class="cls-89" d="M10.21,51.45A13.35,13.35,0,0,1,21,42.38a19.46,19.46,0,0,1,14.49,3.93c2.49,2.84,1,4.52-4.07,5.14-6.68.09-13.07.32-17.25,1.69C10.8,54,9.89,53.18,10.21,51.45Z"/><path class="cls-90" d="M10.28,51.4a13.24,13.24,0,0,1,10.68-9,19.32,19.32,0,0,1,14.39,3.9c2.48,2.83,1,4.5-4,5.11-6.63.09-13,.32-17.13,1.68C10.86,54,10,53.12,10.28,51.4Z"/><path class="cls-91" d="M10.34,51.35A13.16,13.16,0,0,1,21,42.4a19.22,19.22,0,0,1,14.3,3.88c2.46,2.8,1,4.46-4,5.07-6.59.08-12.89.31-17,1.66C10.92,53.9,10,53.06,10.34,51.35Z"/><path class="cls-92" d="M10.4,51.3a13.06,13.06,0,0,1,10.54-8.88,19.07,19.07,0,0,1,14.2,3.84c2.44,2.79,1,4.44-4,5-6.54.08-12.8.31-16.9,1.65C11,53.83,10.09,53,10.4,51.3Z"/><path class="cls-93" d="M10.47,51.25a13,13,0,0,1,10.46-8.82A18.88,18.88,0,0,1,35,46.25c2.43,2.76,1,4.4-4,5-6.5.08-12.72.31-16.78,1.64C11,53.76,10.16,52.93,10.47,51.25Z"/><path class="cls-94" d="M10.53,51.2a12.87,12.87,0,0,1,10.39-8.76,18.74,18.74,0,0,1,14,3.79c2.41,2.75,1,4.37-3.93,5-6.45.08-12.63.31-16.66,1.63C11.1,53.69,10.22,52.87,10.53,51.2Z"/><path class="cls-95" d="M10.59,51.15a12.8,12.8,0,0,1,10.32-8.7,18.64,18.64,0,0,1,13.91,3.77c2.39,2.72,1,4.34-3.91,4.93-6.41.08-12.54.3-16.55,1.62C11.16,53.63,10.29,52.81,10.59,51.15Z"/><path class="cls-96" d="M10.66,51.1A12.7,12.7,0,0,1,20.9,42.46,18.52,18.52,0,0,1,34.71,46.2c2.38,2.71,1,4.31-3.88,4.9-6.36.08-12.45.3-16.43,1.61C11.22,53.56,10.35,52.75,10.66,51.1Z"/><path class="cls-97" d="M10.72,51.05a12.62,12.62,0,0,1,10.17-8.58A18.39,18.39,0,0,1,34.6,46.19c2.36,2.69,1,4.28-3.85,4.86-6.32.08-12.36.3-16.31,1.6C11.28,53.49,10.42,52.69,10.72,51.05Z"/><path class="cls-98" d="M10.78,51a12.55,12.55,0,0,1,10.1-8.52,18.25,18.25,0,0,1,13.61,3.69c2.35,2.67,1,4.25-3.82,4.83-6.27.08-12.27.3-16.2,1.58C11.33,53.42,10.48,52.62,10.78,51Z"/><path class="cls-99" d="M10.85,51a12.41,12.41,0,0,1,10-8.45,18.11,18.11,0,0,1,13.52,3.66c2.32,2.65,1,4.21-3.8,4.79-6.23.08-12.18.3-16.08,1.57C11.39,53.36,10.55,52.56,10.85,51Z"/><path class="cls-100" d="M10.91,50.9a12.32,12.32,0,0,1,10-8.39,18,18,0,0,1,13.42,3.63c2.31,2.63.95,4.19-3.77,4.76-6.18.08-12.1.29-16,1.56C11.45,53.29,10.62,52.5,10.91,50.9Z"/><path class="cls-101" d="M11,50.85a12.26,12.26,0,0,1,9.88-8.33,17.84,17.84,0,0,1,13.32,3.61c2.29,2.61.95,4.15-3.74,4.72-6.13.08-12,.29-15.85,1.55C11.51,53.22,10.68,52.44,11,50.85Z"/><path class="cls-102" d="M11,50.8a12.15,12.15,0,0,1,9.8-8.27,17.72,17.72,0,0,1,13.22,3.58c2.28,2.59.94,4.13-3.71,4.69-6.09.08-11.92.29-15.73,1.54C11.57,53.15,10.75,52.38,11,50.8Z"/><path class="cls-103" d="M11.1,50.75a12.07,12.07,0,0,1,9.74-8.21A17.6,17.6,0,0,1,34,46.1c2.26,2.57.93,4.09-3.69,4.65-6,.08-11.83.29-15.61,1.53C11.63,53.09,10.81,52.32,11.1,50.75Z"/><path class="cls-104" d="M11.16,50.7a12,12,0,0,1,9.67-8.15,17.48,17.48,0,0,1,13,3.53c2.24,2.55.92,4.07-3.65,4.62-6,.08-11.75.29-15.51,1.52C11.69,53,10.88,52.25,11.16,50.7Z"/><path class="cls-105" d="M11.23,50.65a11.9,11.9,0,0,1,9.59-8.09,17.32,17.32,0,0,1,12.92,3.51c2.23,2.53.92,4-3.62,4.58-6,.08-11.66.28-15.39,1.5C11.75,53,10.94,52.19,11.23,50.65Z"/><path class="cls-106" d="M11.29,50.6a11.78,11.78,0,0,1,9.52-8,17.21,17.21,0,0,1,12.83,3.47c2.2,2.52.9,4-3.6,4.55-5.92.08-11.57.28-15.27,1.49C11.81,52.88,11,52.13,11.29,50.6Z"/><path class="cls-107" d="M11.35,50.55a11.7,11.7,0,0,1,9.45-8A17.07,17.07,0,0,1,33.53,46c2.19,2.49.9,4-3.57,4.51-5.87.08-11.49.28-15.16,1.48C11.87,52.82,11.07,52.07,11.35,50.55Z"/><path class="cls-108" d="M11.42,50.5a11.61,11.61,0,0,1,9.37-7.9A16.93,16.93,0,0,1,33.42,46c2.17,2.48.9,3.94-3.54,4.48-5.83.07-11.4.28-15,1.47C11.93,52.75,11.14,52,11.42,50.5Z"/><path class="cls-109" d="M11.48,50.45a11.53,11.53,0,0,1,9.3-7.84A16.79,16.79,0,0,1,33.31,46c2.16,2.45.89,3.91-3.51,4.44-5.78.07-11.31.27-14.92,1.46C12,52.68,11.21,52,11.48,50.45Z"/><path class="cls-110" d="M11.54,50.4a11.45,11.45,0,0,1,9.23-7.78A16.71,16.71,0,0,1,33.21,46c2.14,2.44.88,3.88-3.49,4.41-5.74.07-11.22.27-14.8,1.45C12.05,52.61,11.27,51.88,11.54,50.4Z"/><path class="cls-111" d="M11.61,50.35a11.36,11.36,0,0,1,9.15-7.72A16.57,16.57,0,0,1,33.1,46c2.12,2.41.87,3.84-3.46,4.37-5.69.07-11.13.27-14.69,1.44C12.11,52.55,11.34,51.82,11.61,50.35Z"/><path class="cls-112" d="M11.67,50.3a11.27,11.27,0,0,1,9.08-7.66A16.43,16.43,0,0,1,33,46c2.11,2.4.87,3.82-3.43,4.34-5.65.07-11,.27-14.57,1.42C12.17,52.48,11.4,51.76,11.67,50.3Z"/><path class="cls-113" d="M11.73,50.25a11.17,11.17,0,0,1,9-7.6,16.31,16.31,0,0,1,12.14,3.29c2.09,2.38.86,3.79-3.4,4.31-5.6.07-10.95.27-14.45,1.41C12.23,52.41,11.47,51.7,11.73,50.25Z"/><path class="cls-114" d="M11.8,50.2a11.06,11.06,0,0,1,8.93-7.53,16.18,16.18,0,0,1,12.05,3.26c2.07,2.36.85,3.76-3.38,4.27-5.56.07-10.87.26-14.34,1.4C12.29,52.34,11.53,51.64,11.8,50.2Z"/><path class="cls-115" d="M11.86,50.15a11,11,0,0,1,8.86-7.47,16,16,0,0,1,12,3.23c2,2.35.84,3.73-3.35,4.24-5.51.07-10.78.26-14.22,1.39C12.35,52.28,11.6,51.58,11.86,50.15Z"/><path class="cls-116" d="M11.92,50.1a10.9,10.9,0,0,1,8.79-7.41A15.86,15.86,0,0,1,32.56,45.9c2,2.32.84,3.7-3.32,4.2-5.46.07-10.69.26-14.1,1.38C12.4,52.21,11.67,51.51,11.92,50.1Z"/><path class="cls-117" d="M12,50.05a10.81,10.81,0,0,1,8.72-7.35,15.72,15.72,0,0,1,11.74,3.18c2,2.31.84,3.67-3.29,4.17-5.42.07-10.6.26-14,1.37C12.46,52.14,11.73,51.45,12,50.05Z"/><path class="cls-118" d="M12.05,50a10.73,10.73,0,0,1,8.65-7.29,15.62,15.62,0,0,1,11.65,3.16c2,2.28.82,3.63-3.27,4.13-5.37.07-10.51.26-13.87,1.36C12.52,52.07,11.8,51.39,12.05,50Z"/><path class="cls-119" d="M12.11,50a10.65,10.65,0,0,1,8.58-7.23,15.48,15.48,0,0,1,11.55,3.13c2,2.27.82,3.61-3.24,4.1-5.33.07-10.42.25-13.75,1.34C12.58,52,11.86,51.33,12.11,50Z"/><path class="cls-120" d="M12.18,49.9a10.53,10.53,0,0,1,8.5-7.17,15.34,15.34,0,0,1,11.45,3.11c2,2.24.81,3.57-3.21,4.06-5.28.07-10.33.25-13.64,1.33C12.64,51.94,11.93,51.27,12.18,49.9Z"/><path class="cls-15" d="M5.37,68.85s.35-5.63,17.33-7.7,24.81,6.58,24.81,6.58c2.74,5.07-.51,7.1-8.27,6.86-9-1-17.42.11-25.66,1.6C7.13,77.13,4.87,74.25,5.37,68.85Z"/><path class="cls-16" d="M5.45,68.81S5.8,63.2,22.7,61.14s24.69,6.55,24.69,6.55c2.73,5-.5,7.08-8.23,6.83-9-.94-17.33.11-25.53,1.59C7.2,77.05,5,74.19,5.45,68.81Z"/><path class="cls-17" d="M5.53,68.78s.35-5.59,17.17-7.64,24.58,6.52,24.58,6.52c2.72,5-.5,7-8.19,6.79-9-.93-17.25.12-25.41,1.59C7.28,77,5,74.12,5.53,68.78Z"/><path class="cls-18" d="M5.62,68.74s.35-5.56,17.09-7.6,24.45,6.48,24.45,6.48c2.71,5-.5,7-8.15,6.77-8.91-.93-17.17.11-25.29,1.58C7.36,76.9,5.13,74.06,5.62,68.74Z"/><path class="cls-19" d="M5.7,68.7s.35-5.53,17-7.56,24.34,6.45,24.34,6.45c2.69,5-.5,7-8.11,6.73-8.87-.93-17.09.11-25.17,1.57C7.43,76.82,5.21,74,5.7,68.7Z"/><path class="cls-20" d="M5.79,68.66s.34-5.51,16.92-7.53,24.23,6.43,24.23,6.43c2.68,5-.5,6.94-8.08,6.7-8.82-.93-17,.11-25,1.56C7.51,76.74,5.3,73.93,5.79,68.66Z"/><path class="cls-21" d="M5.87,68.62s.35-5.48,16.85-7.49,24.1,6.39,24.1,6.39c2.67,4.93-.49,6.91-8,6.67-8.78-.92-16.92.11-24.93,1.55C7.59,76.66,5.39,73.86,5.87,68.62Z"/><path class="cls-22" d="M6,68.58s.34-5.45,16.76-7.45,24,6.36,24,6.36c2.65,4.9-.49,6.87-8,6.63-8.73-.91-16.84.11-24.8,1.55C7.66,76.58,5.48,73.8,6,68.58Z"/><path class="cls-23" d="M6,68.54s.34-5.42,16.68-7.41,23.87,6.33,23.87,6.33c2.65,4.88-.48,6.83-8,6.6-8.7-.91-16.76.11-24.69,1.54C7.74,76.51,5.56,73.74,6,68.54Z"/><path class="cls-24" d="M6.13,68.5s.34-5.4,16.6-7.38,23.75,6.3,23.75,6.3c2.63,4.86-.49,6.81-7.92,6.57-8.65-.9-16.67.11-24.56,1.53C7.82,76.43,5.65,73.67,6.13,68.5Z"/><path class="cls-25" d="M6.21,68.46s.34-5.37,16.52-7.34,23.64,6.27,23.64,6.27c2.61,4.83-.49,6.77-7.88,6.53C29.88,73,21.89,74,14,75.45,7.89,76.35,5.74,73.61,6.21,68.46Z"/><path class="cls-26" d="M6.3,68.42s.33-5.34,16.43-7.3,23.52,6.23,23.52,6.23c2.6,4.81-.48,6.74-7.84,6.51C29.85,73,21.9,74,14.09,75.38,8,76.27,5.82,73.54,6.3,68.42Z"/><path class="cls-27" d="M6.38,68.38s.33-5.31,16.35-7.26,23.41,6.2,23.41,6.2c2.59,4.78-.48,6.71-7.8,6.47-8.53-.89-16.43.11-24.2,1.51C8.05,76.19,5.91,73.48,6.38,68.38Z"/><path class="cls-28" d="M6.47,68.35s.33-5.3,16.27-7.24S46,67.29,46,67.29c2.58,4.76-.47,6.67-7.76,6.44-8.48-.89-16.34.1-24.08,1.5C8.12,76.12,6,73.41,6.47,68.35Z"/><path class="cls-29" d="M6.55,68.31s.33-5.27,16.19-7.2,23.17,6.14,23.17,6.14c2.56,4.74-.47,6.64-7.72,6.41-8.44-.88-16.27.11-24,1.5C8.2,76,6.09,73.35,6.55,68.31Z"/><path class="cls-30" d="M6.64,68.27S7,63,22.74,61.11,45.8,67.22,45.8,67.22c2.55,4.71-.47,6.6-7.69,6.37-8.39-.87-16.18.11-23.84,1.49C8.27,76,6.17,73.28,6.64,68.27Z"/><path class="cls-31" d="M6.72,68.23s.33-5.21,16-7.13,22.93,6.09,22.93,6.09c2.54,4.68-.47,6.57-7.64,6.34-8.36-.87-16.1.1-23.72,1.48C8.35,75.88,6.26,73.22,6.72,68.23Z"/><path class="cls-32" d="M6.81,68.19S7.13,63,22.75,61.1s22.82,6.05,22.82,6.05c2.52,4.67-.47,6.54-7.61,6.31-8.31-.87-16,.11-23.59,1.47C8.43,75.8,6.35,73.15,6.81,68.19Z"/><path class="cls-33" d="M6.89,68.15S7.21,63,22.75,61.1s22.7,6,22.7,6c2.52,4.64-.46,6.5-7.56,6.28-8.27-.87-15.94.1-23.48,1.46C8.5,75.72,6.43,73.09,6.89,68.15Z"/><path class="cls-34" d="M7,68.11s.32-5.13,15.78-7,22.58,6,22.58,6c2.5,4.62-.46,6.47-7.53,6.25-8.22-.86-15.85.1-23.35,1.46C8.58,75.65,6.52,73,7,68.11Z"/><path class="cls-35" d="M7.06,68.07s.32-5.1,15.7-7,22.47,6,22.47,6c2.48,4.59-.46,6.44-7.49,6.21-8.19-.85-15.77.11-23.24,1.45C8.66,75.57,6.61,73,7.06,68.07Z"/><path class="cls-36" d="M7.15,68S7.46,63,22.76,61.09,45.11,67,45.11,67c2.48,4.57-.45,6.4-7.45,6.18-8.14-.85-15.69.1-23.11,1.44C8.73,75.49,6.7,72.9,7.15,68Z"/><path class="cls-37" d="M7.23,68s.32-5,15.53-6.9S45,67,45,67c2.46,4.55-.46,6.37-7.41,6.15-8.1-.84-15.61.1-23,1.44C8.81,75.41,6.78,72.83,7.23,68Z"/><path class="cls-38" d="M7.32,68s.31-5,15.45-6.87S44.88,67,44.88,67c2.45,4.52-.45,6.34-7.37,6.12-8-.85-15.52.1-22.87,1.42C8.89,75.33,6.87,72.77,7.32,68Z"/><path class="cls-39" d="M7.4,67.92s.31-5,15.37-6.84,22,5.84,22,5.84c2.43,4.49-.45,6.3-7.33,6.08-8-.84-15.45.1-22.75,1.42C9,75.26,7,72.7,7.4,67.92Z"/><path class="cls-40" d="M7.48,67.88s.32-5,15.29-6.8,21.89,5.8,21.89,5.8c2.42,4.48-.45,6.27-7.3,6.05-8-.83-15.36.1-22.63,1.42C9,75.18,7,72.64,7.48,67.88Z"/><path class="cls-41" d="M7.57,67.84s.31-5,15.21-6.76,21.76,5.77,21.76,5.77c2.41,4.45-.44,6.23-7.25,6C29.36,72,22,73,14.78,74.27,9.12,75.1,7.13,72.57,7.57,67.84Z"/><path class="cls-42" d="M7.65,67.8S8,62.88,22.78,61.07s21.65,5.75,21.65,5.75c2.39,4.42-.44,6.2-7.22,6C29.33,72,22,72.9,14.83,74.2,9.19,75,7.22,72.51,7.65,67.8Z"/><path class="cls-43" d="M7.74,67.76s.3-4.89,15-6.69,21.53,5.71,21.53,5.71c2.39,4.4-.44,6.17-7.17,6-7.84-.82-15.12.09-22.27,1.38C9.27,74.94,7.31,72.45,7.74,67.76Z"/><path class="cls-44" d="M7.82,67.72s.31-4.87,15-6.65S44.2,66.75,44.2,66.75c2.37,4.38-.44,6.13-7.14,5.92-7.8-.82-15,.1-22.14,1.38C9.35,74.87,7.39,72.38,7.82,67.72Z"/><path class="cls-45" d="M7.91,67.68s.3-4.84,14.88-6.61,21.3,5.64,21.3,5.64c2.35,4.36-.44,6.1-7.1,5.89-7.76-.81-15,.1-22,1.38C9.42,74.79,7.48,72.32,7.91,67.68Z"/><path class="cls-46" d="M8,67.64s.3-4.81,14.8-6.58S44,66.68,44,66.68c2.35,4.33-.43,6.07-7.06,5.86C29.2,71.73,22,72.63,15,73.9,9.5,74.71,7.57,72.25,8,67.64Z"/><path class="cls-47" d="M8.08,67.6s.3-4.78,14.72-6.54,21.06,5.59,21.06,5.59c2.33,4.3-.43,6-7,5.82-7.67-.8-14.79.1-21.78,1.36C9.57,74.63,7.65,72.19,8.08,67.6Z"/><path class="cls-48" d="M8.16,67.56s.3-4.76,14.64-6.5,20.94,5.55,20.94,5.55c2.32,4.28-.42,6-7,5.79-7.63-.79-14.7.1-21.66,1.36C9.65,74.55,7.74,72.12,8.16,67.56Z"/><path class="cls-49" d="M8.25,67.53s.29-4.74,14.55-6.47,20.83,5.52,20.83,5.52c2.3,4.26-.43,6-6.94,5.76-7.59-.79-14.62.09-21.54,1.34C9.73,74.48,7.83,72.06,8.25,67.53Z"/><path class="cls-50" d="M8.33,67.49s.3-4.71,14.47-6.44,20.72,5.5,20.72,5.5c2.29,4.23-.43,5.93-6.91,5.72-7.54-.79-14.54.1-21.42,1.34C9.8,74.4,7.92,72,8.33,67.49Z"/><path class="cls-51" d="M8.42,67.45s.29-4.68,14.39-6.4S43.4,66.51,43.4,66.51c2.28,4.21-.42,5.9-6.86,5.7-7.5-.79-14.46.09-21.3,1.33C9.88,74.32,8,71.93,8.42,67.45Z"/><path class="cls-52" d="M8.5,67.41s.29-4.66,14.31-6.36,20.48,5.43,20.48,5.43c2.26,4.18-.42,5.86-6.83,5.66-7.46-.78-14.37.09-21.17,1.32C10,74.24,8.09,71.86,8.5,67.41Z"/><path class="cls-53" d="M8.59,67.37s.29-4.63,14.22-6.32,20.36,5.39,20.36,5.39c2.26,4.17-.41,5.84-6.78,5.63-7.42-.77-14.3.1-21.06,1.32C10,74.16,8.18,71.8,8.59,67.37Z"/><path class="cls-54" d="M8.67,67.33S9,62.73,22.82,61s20.24,5.37,20.24,5.37c2.24,4.14-.41,5.8-6.75,5.6-7.37-.77-14.21.09-20.93,1.3C10.11,74.09,8.26,71.74,8.67,67.33Z"/><path class="cls-55" d="M8.76,67.29S9,62.72,22.82,61,43,66.38,43,66.38c2.22,4.11-.41,5.76-6.71,5.56-7.33-.76-14.13.09-20.82,1.3C10.19,74,8.35,71.67,8.76,67.29Z"/><path class="cls-56" d="M8.84,67.25s.29-4.55,14-6.21,20,5.3,20,5.3c2.22,4.09-.41,5.74-6.67,5.54-7.28-.77-14,.09-20.69,1.29C10.26,73.93,8.44,71.61,8.84,67.25Z"/><path class="cls-57" d="M8.93,67.21s.28-4.52,13.9-6.18,19.89,5.28,19.89,5.28c2.2,4.07-.41,5.7-6.63,5.5-7.25-.76-14,.09-20.57,1.28C10.34,73.85,8.53,71.54,8.93,67.21Z"/><path class="cls-58" d="M9,67.17S9.29,62.68,22.83,61,42.6,66.28,42.6,66.28c2.19,4-.4,5.66-6.59,5.46-7.2-.75-13.88.09-20.45,1.28C10.42,73.77,8.61,71.48,9,67.17Z"/><path class="cls-59" d="M9.1,67.14S9.38,62.67,22.83,61s19.66,5.21,19.66,5.21c2.18,4-.4,5.63-6.55,5.44-7.16-.75-13.8.09-20.33,1.27C10.49,73.69,8.7,71.41,9.1,67.14Z"/><path class="cls-60" d="M9.18,67.1S9.46,62.66,22.83,61s19.55,5.18,19.55,5.18c2.16,4-.4,5.6-6.52,5.4-7.11-.74-13.72.09-20.21,1.26C10.57,73.62,8.79,71.35,9.18,67.1Z"/><path class="cls-61" d="M9.27,67.06s.27-4.42,13.57-6,19.42,5.15,19.42,5.15c2.15,4-.39,5.57-6.47,5.38-7.08-.74-13.64.08-20.09,1.25C10.65,73.54,8.87,71.28,9.27,67.06Z"/><path class="cls-62" d="M9.35,67s.27-4.39,13.49-6,19.31,5.12,19.31,5.12c2.13,4-.4,5.53-6.44,5.34-7-.74-13.55.09-20,1.25C10.72,73.46,9,71.22,9.35,67Z"/><path class="cls-63" d="M9.44,67s.27-4.36,13.4-6S42,66.11,42,66.11c2.13,3.92-.39,5.49-6.39,5.3-7-.73-13.47.09-19.85,1.24C10.8,73.38,9.05,71.16,9.44,67Z"/><path class="cls-64" d="M9.52,66.94S9.79,62.61,22.85,61s19.07,5,19.07,5c2.11,3.9-.39,5.47-6.36,5.28-6.94-.73-13.39.09-19.72,1.23C10.87,73.3,9.14,71.09,9.52,66.94Z"/><path class="cls-65" d="M9.6,66.9S9.87,62.59,22.85,61s19,5,19,5c2.09,3.87-.39,5.43-6.32,5.24-6.91-.72-13.31.09-19.61,1.23C11,73.23,9.22,71,9.6,66.9Z"/><path class="cls-66" d="M9.69,66.86S10,62.58,22.85,61s18.84,5,18.84,5c2.09,3.85-.38,5.39-6.28,5.21-6.86-.72-13.22.08-19.48,1.21C11,73.15,9.31,71,9.69,66.86Z"/><path class="cls-67" d="M9.77,66.82S10,62.57,22.86,61s18.72,5,18.72,5c2.07,3.83-.38,5.37-6.24,5.18A67.6,67.6,0,0,0,16,72.36C11.1,73.07,9.4,70.9,9.77,66.82Z"/><path class="cls-67" d="M9.86,66.78s.26-4.22,13-5.77,18.6,4.93,18.6,4.93c2.06,3.8-.38,5.33-6.2,5.14A67.53,67.53,0,0,0,16,72.28C11.18,73,9.48,70.83,9.86,66.78Z"/><path class="cls-68" d="M9.94,66.75s.27-4.21,12.92-5.75,18.49,4.9,18.49,4.9c2,3.78-.38,5.3-6.16,5.12a66.31,66.31,0,0,0-19.12,1.19C11.26,72.91,9.57,70.77,9.94,66.75Z"/><path class="cls-69" d="M10,66.71s.26-4.18,12.83-5.71,18.38,4.87,18.38,4.87c2,3.76-.38,5.26-6.13,5.08-6.69-.7-12.89.09-19,1.19C11.33,72.84,9.66,70.7,10,66.71Z"/><path class="cls-70" d="M10.11,66.67s.26-4.15,12.76-5.67,18.25,4.84,18.25,4.84c2,3.73-.37,5.23-6.08,5a65.74,65.74,0,0,0-18.88,1.17C11.41,72.76,9.75,70.64,10.11,66.67Z"/><path class="cls-71" d="M10.2,66.63s.26-4.12,12.67-5.64S41,65.8,41,65.8c2,3.71-.37,5.2-6,5A65.22,65.22,0,0,0,16.21,72C11.49,72.68,9.83,70.57,10.2,66.63Z"/><path class="cls-72" d="M10.28,66.59s.26-4.1,12.59-5.6,18,4.78,18,4.78c2,3.68-.36,5.16-6,5a65.17,65.17,0,0,0-18.64,1.17C11.56,72.6,9.92,70.51,10.28,66.59Z"/><path class="cls-73" d="M10.37,66.55s.25-4.07,12.51-5.56,17.9,4.75,17.9,4.75c2,3.66-.37,5.12-6,5A64.63,64.63,0,0,0,16.3,71.84C11.64,72.52,10,70.45,10.37,66.55Z"/><path class="cls-74" d="M10.45,66.51s.26-4,12.43-5.52S40.67,65.7,40.67,65.7c2,3.64-.37,5.1-5.93,4.92a63.88,63.88,0,0,0-18.4,1.15C11.72,72.45,10.09,70.38,10.45,66.51Z"/><path class="cls-75" d="M10.54,66.47s.25-4,12.34-5.49,17.67,4.69,17.67,4.69c2,3.61-.36,5.06-5.89,4.88A63.71,63.71,0,0,0,16.39,71.7C11.79,72.37,10.18,70.32,10.54,66.47Z"/><path class="cls-76" d="M10.62,66.43s.25-4,12.27-5.45,17.55,4.65,17.55,4.65c1.94,3.59-.36,5-5.85,4.86a63.24,63.24,0,0,0-18.15,1.13C11.87,72.29,10.27,70.25,10.62,66.43Z"/><path class="cls-77" d="M10.71,66.39s.24-4,12.18-5.41S40.33,65.6,40.33,65.6c1.92,3.57-.36,5-5.82,4.82a62.77,62.77,0,0,0-18,1.13C12,72.21,10.36,70.19,10.71,66.39Z"/><path class="cls-78" d="M10.79,66.35S11,62.42,22.89,61s17.32,4.59,17.32,4.59c1.92,3.54-.35,5-5.77,4.79a62.65,62.65,0,0,0-17.91,1.11C12,72.13,10.44,70.12,10.79,66.35Z"/><path class="cls-79" d="M10.88,66.32s.24-3.91,12-5.35,17.2,4.56,17.2,4.56c1.9,3.52-.35,4.93-5.74,4.76A62.22,62.22,0,0,0,16.57,71.4C12.1,72.05,10.53,70.06,10.88,66.32Z"/><path class="cls-80" d="M11,66.28S11.2,62.39,22.9,61,40,65.5,40,65.5c1.89,3.49-.35,4.89-5.69,4.72a61.38,61.38,0,0,0-17.67,1.11C12.18,72,10.62,70,11,66.28Z"/><path class="cls-81" d="M11.05,66.24S11.29,62.38,22.9,61s17,4.5,17,4.5c1.88,3.46-.35,4.86-5.66,4.69a61.18,61.18,0,0,0-17.54,1.09C12.25,71.9,10.7,69.93,11.05,66.24Z"/><path class="cls-82" d="M11.13,66.2S11.37,62.37,22.9,61s16.86,4.47,16.86,4.47c1.86,3.45-.35,4.83-5.62,4.66a60.79,60.79,0,0,0-17.43,1.09C12.33,71.82,10.79,69.86,11.13,66.2Z"/><path class="cls-83" d="M11.22,66.16s.23-3.8,11.69-5.2S39.64,65.4,39.64,65.4c1.85,3.42-.34,4.79-5.58,4.63a59.92,59.92,0,0,0-17.3,1.08C12.4,71.74,10.88,69.8,11.22,66.16Z"/><path class="cls-84" d="M11.3,66.12s.24-3.78,11.61-5.16,16.62,4.41,16.62,4.41c1.84,3.39-.34,4.76-5.54,4.59A60.22,60.22,0,0,0,16.8,71C12.48,71.66,11,69.74,11.3,66.12Z"/><path class="cls-85" d="M11.39,66.08s.23-3.75,11.52-5.12,16.5,4.37,16.5,4.37c1.83,3.37-.33,4.73-5.5,4.56A59.67,59.67,0,0,0,16.85,71C12.56,71.59,11.05,69.67,11.39,66.08Z"/><path class="cls-86" d="M11.47,66S11.7,62.32,22.92,61,39.3,65.3,39.3,65.3c1.81,3.35-.34,4.69-5.46,4.53A58.49,58.49,0,0,0,16.9,70.89C12.63,71.51,11.14,69.61,11.47,66Z"/><path class="cls-87" d="M11.55,66s.24-3.69,11.37-5,16.27,4.31,16.27,4.31c1.79,3.33-.34,4.66-5.43,4.5a58.77,58.77,0,0,0-16.82,1C12.71,71.43,11.23,69.54,11.55,66Z"/><path class="cls-88" d="M11.64,66s.23-3.67,11.28-5,16.15,4.28,16.15,4.28c1.79,3.3-.33,4.63-5.38,4.47a57.92,57.92,0,0,0-16.7,1C12.79,71.35,11.31,69.48,11.64,66Z"/><path class="cls-89" d="M11.72,65.93s.23-3.65,11.21-5S39,65.2,39,65.2c1.77,3.27-.33,4.59-5.35,4.43a57.73,57.73,0,0,0-16.57,1C12.86,71.27,11.4,69.41,11.72,65.93Z"/><path class="cls-90" d="M11.81,65.89s.23-3.62,11.12-5,15.91,4.22,15.91,4.22c1.76,3.26-.32,4.56-5.3,4.4a57.7,57.7,0,0,0-16.46,1C12.94,71.2,11.49,69.35,11.81,65.89Z"/><path class="cls-91" d="M11.89,65.85s.23-3.59,11-4.91,15.8,4.19,15.8,4.19c1.75,3.23-.32,4.52-5.27,4.37a56.8,56.8,0,0,0-16.33,1C13,71.12,11.58,69.28,11.89,65.85Z"/><path class="cls-92" d="M12,65.81s.22-3.57,11-4.87S38.62,65.1,38.62,65.1c1.73,3.2-.33,4.49-5.23,4.33a56.42,56.42,0,0,0-16.22,1C13.09,71,11.66,69.22,12,65.81Z"/><path class="cls-93" d="M12.06,65.77s.22-3.54,10.88-4.84S38.5,65.06,38.5,65.06c1.72,3.18-.32,4.46-5.19,4.31a55.9,55.9,0,0,0-16.09,1C13.17,71,11.75,69.16,12.06,65.77Z"/><path class="cls-94" d="M12.15,65.73s.22-3.51,10.79-4.8S38.39,65,38.39,65c1.71,3.16-.32,4.42-5.15,4.27a55.39,55.39,0,0,0-16,1C13.25,70.88,11.84,69.09,12.15,65.73Z"/><path class="cls-95" d="M12.23,65.69s.22-3.48,10.71-4.76S38.27,65,38.27,65c1.7,3.14-.31,4.4-5.11,4.24a55.3,55.3,0,0,0-15.85,1C13.32,70.81,11.92,69,12.23,65.69Z"/><path class="cls-96" d="M12.32,65.65s.21-3.46,10.63-4.72,15.21,4,15.21,4c1.68,3.11-.31,4.36-5.07,4.21a54.82,54.82,0,0,0-15.73,1C13.4,70.73,12,69,12.32,65.65Z"/><path class="cls-97" d="M12.4,65.61s.22-3.43,10.55-4.69,15.1,4,15.1,4c1.67,3.08-.31,4.32-5,4.17a54.39,54.39,0,0,0-15.61,1C13.48,70.65,12.1,68.9,12.4,65.61Z"/><path class="cls-98" d="M12.49,65.57s.21-3.4,10.46-4.65,15,4,15,4c1.66,3.06-.3,4.29-5,4.14a53.87,53.87,0,0,0-15.49,1C13.55,70.57,12.19,68.83,12.49,65.57Z"/><path class="cls-99" d="M12.57,65.53s.21-3.37,10.39-4.61,14.86,3.94,14.86,3.94c1.64,3-.31,4.26-5,4.11a53.35,53.35,0,0,0-15.36,1C13.63,70.49,12.27,68.77,12.57,65.53Z"/><path class="cls-100" d="M12.66,65.5s.21-3.36,10.3-4.58S37.7,64.83,37.7,64.83c1.63,3-.3,4.22-4.91,4.07a53.33,53.33,0,0,0-15.25.95C13.7,70.42,12.36,68.7,12.66,65.5Z"/><path class="cls-101" d="M12.74,65.46S13,62.13,23,60.91s14.63,3.88,14.63,3.88c1.62,3-.3,4.19-4.88,4a52.45,52.45,0,0,0-15.12.94C13.78,70.34,12.45,68.64,12.74,65.46Z"/><path class="cls-102" d="M12.83,65.42S13,62.12,23,60.91s14.52,3.85,14.52,3.85c1.6,3-.3,4.15-4.84,4a52.37,52.37,0,0,0-15,.94C13.86,70.26,12.53,68.57,12.83,65.42Z"/><path class="cls-103" d="M12.91,65.38s.21-3.27,10.06-4.47,14.39,3.81,14.39,3.81c1.59,3-.29,4.13-4.8,4a52.21,52.21,0,0,0-14.88.93C13.93,70.18,12.62,68.51,12.91,65.38Z"/><path class="cls-104" d="M13,65.34s.2-3.25,10-4.43,14.28,3.78,14.28,3.78c1.58,2.92-.29,4.09-4.76,4a51,51,0,0,0-14.76.92C14,70.1,12.71,68.45,13,65.34Z"/><path class="cls-105" d="M13.08,65.3s.2-3.22,9.89-4.4,14.16,3.76,14.16,3.76c1.57,2.89-.29,4-4.72,3.91a50.92,50.92,0,0,0-14.64.92C14.09,70,12.8,68.38,13.08,65.3Z"/><path class="cls-106" d="M13.17,65.26s.2-3.19,9.81-4.36,14,3.72,14,3.72c1.55,2.87-.29,4-4.68,3.89a50.43,50.43,0,0,0-14.52.9C14.16,70,12.88,68.32,13.17,65.26Z"/><path class="cls-107" d="M13.25,65.22s.2-3.16,9.73-4.32,13.93,3.69,13.93,3.69c1.54,2.85-.29,4-4.65,3.85a50,50,0,0,0-14.4.9C14.24,69.87,13,68.25,13.25,65.22Z"/><path class="cls-108" d="M13.34,65.18s.19-3.13,9.64-4.29,13.81,3.67,13.81,3.67c1.53,2.82-.28,4-4.6,3.81a49.87,49.87,0,0,0-14.28.9C14.32,69.79,13.06,68.19,13.34,65.18Z"/><path class="cls-109" d="M13.42,65.14S13.61,62,23,60.89s13.69,3.63,13.69,3.63c1.51,2.8-.28,3.92-4.57,3.79A49.33,49.33,0,0,0,18,69.19C14.39,69.71,13.14,68.12,13.42,65.14Z"/><path class="cls-110" d="M13.51,65.11S13.7,62,23,60.89s13.57,3.6,13.57,3.6c1.51,2.77-.27,3.89-4.52,3.75a49,49,0,0,0-14,.88C14.47,69.63,13.23,68.06,13.51,65.11Z"/><path class="cls-111" d="M13.59,65.07S13.78,62,23,60.89s13.46,3.56,13.46,3.56c1.49,2.76-.28,3.86-4.49,3.73A48.41,48.41,0,0,0,18.05,69C14.55,69.56,13.32,68,13.59,65.07Z"/><path class="cls-112" d="M13.67,65s.19-3,9.33-4.15,13.34,3.54,13.34,3.54c1.47,2.73-.28,3.82-4.45,3.69a48,48,0,0,0-13.8.86C14.62,69.48,13.41,67.93,13.67,65Z"/><path class="cls-113" d="M13.76,65S14,62,23,60.88s13.22,3.51,13.22,3.51c1.46,2.7-.27,3.79-4.41,3.65a47.47,47.47,0,0,0-13.67.86C14.7,69.4,13.49,67.87,13.76,65Z"/><path class="cls-114" d="M13.84,65S14,62,23,60.88s13.11,3.47,13.11,3.47c1.45,2.68-.27,3.76-4.37,3.63a47.36,47.36,0,0,0-13.55.84C14.78,69.32,13.58,67.8,13.84,65Z"/><path class="cls-115" d="M13.93,64.91s.18-2.95,9.07-4,13,3.44,13,3.44c1.44,2.65-.26,3.72-4.33,3.59a46.9,46.9,0,0,0-13.43.84C14.85,69.24,13.67,67.74,13.93,64.91Z"/><path class="cls-116" d="M14,64.87s.19-2.92,9-4,12.87,3.42,12.87,3.42c1.42,2.63-.26,3.68-4.29,3.56a46.05,46.05,0,0,0-13.31.83C14.93,69.17,13.75,67.67,14,64.87Z"/><path class="cls-117" d="M14.1,64.83s.18-2.9,8.91-4,12.76,3.38,12.76,3.38c1.41,2.61-.27,3.66-4.26,3.53a46,46,0,0,0-13.19.82C15,69.09,13.84,67.61,14.1,64.83Z"/><path class="cls-118" d="M14.18,64.79s.18-2.87,8.83-3.92,12.64,3.35,12.64,3.35c1.4,2.58-.26,3.62-4.21,3.49a45.5,45.5,0,0,0-13.07.82C15.08,69,13.93,67.54,14.18,64.79Z"/><path class="cls-119" d="M14.27,64.75s.18-2.84,8.75-3.89,12.52,3.32,12.52,3.32c1.38,2.56-.26,3.59-4.18,3.47a44.58,44.58,0,0,0-12.94.81C15.16,68.93,14,67.48,14.27,64.75Z"/><path class="cls-120" d="M14.35,64.72s.18-2.82,8.67-3.86,12.4,3.29,12.4,3.29c1.38,2.54-.25,3.55-4.13,3.43a44.91,44.91,0,0,0-12.83.8C15.23,68.85,14.1,67.41,14.35,64.72Z"/><path class="cls-15" d="M12.64,86.24s1.7-3.95,12.69-5,16.91,2.49,16.91,2.49,5.5,9.72-14.8,10.29S12.64,86.24,12.64,86.24Z"/><path class="cls-16" d="M12.7,86.23s1.7-3.93,12.64-5,16.84,2.48,16.84,2.48S47.65,93.43,27.44,94,12.7,86.23,12.7,86.23Z"/><path class="cls-17" d="M12.77,86.22s1.68-3.91,12.58-4.94,16.77,2.47,16.77,2.47S47.56,93.39,27.44,94,12.77,86.22,12.77,86.22Z"/><path class="cls-18" d="M12.83,86.21s1.68-3.9,12.53-4.92,16.69,2.46,16.69,2.46,5.43,9.6-14.61,10.16S12.83,86.21,12.83,86.21Z"/><path class="cls-19" d="M12.89,86.2s1.67-3.88,12.47-4.9S42,83.75,42,83.75s5.4,9.56-14.55,10.12S12.89,86.2,12.89,86.2Z"/><path class="cls-20" d="M13,86.19s1.66-3.86,12.42-4.87,16.55,2.43,16.55,2.43,5.38,9.52-14.48,10.08S13,86.19,13,86.19Z"/><path class="cls-21" d="M13,86.18s1.66-3.85,12.37-4.85,16.48,2.42,16.48,2.42,5.35,9.48-14.43,10S13,86.18,13,86.18Z"/><path class="cls-22" d="M13.07,86.17s1.65-3.83,12.32-4.83,16.4,2.42,16.4,2.42,5.34,9.43-14.36,10S13.07,86.17,13.07,86.17Z"/><path class="cls-23" d="M13.13,86.16s1.65-3.81,12.26-4.81,16.34,2.41,16.34,2.41S47,93.15,27.43,93.7,13.13,86.16,13.13,86.16Z"/><path class="cls-24" d="M13.19,86.15s1.64-3.79,12.21-4.79,16.27,2.4,16.27,2.4,5.28,9.35-14.24,9.9S13.19,86.15,13.19,86.15Z"/><path class="cls-25" d="M13.25,86.14s1.63-3.78,12.16-4.77S41.6,83.76,41.6,83.76s5.26,9.31-14.17,9.85S13.25,86.14,13.25,86.14Z"/><path class="cls-26" d="M13.31,86.13s1.63-3.76,12.1-4.74,16.13,2.37,16.13,2.37S46.78,93,27.43,93.57,13.31,86.13,13.31,86.13Z"/><path class="cls-27" d="M13.37,86.12S15,82.38,25.42,81.4s16,2.36,16,2.36,5.22,9.23-14,9.77S13.37,86.12,13.37,86.12Z"/><path class="cls-28" d="M13.44,86.12s1.6-3.73,12-4.71,16,2.35,16,2.35,5.19,9.19-14,9.73S13.44,86.12,13.44,86.12Z"/><path class="cls-29" d="M13.5,86.11s1.6-3.72,11.94-4.69,15.9,2.34,15.9,2.34,5.17,9.15-13.92,9.68S13.5,86.11,13.5,86.11Z"/><path class="cls-30" d="M13.56,86.1s1.59-3.7,11.88-4.67,15.84,2.33,15.84,2.33,5.15,9.11-13.86,9.64S13.56,86.1,13.56,86.1Z"/><path class="cls-31" d="M13.62,86.09s1.59-3.68,11.83-4.65,15.77,2.33,15.77,2.33,5.12,9.06-13.8,9.59S13.62,86.09,13.62,86.09Z"/><path class="cls-32" d="M13.68,86.08s1.58-3.67,11.78-4.62,15.69,2.31,15.69,2.31,5.1,9-13.73,9.55S13.68,86.08,13.68,86.08Z"/><path class="cls-33" d="M13.74,86.07s1.57-3.65,11.73-4.6,15.62,2.3,15.62,2.3,5.07,9-13.68,9.5S13.74,86.07,13.74,86.07Z"/><path class="cls-34" d="M13.8,86.06s1.57-3.63,11.67-4.58S41,83.77,41,83.77s5.06,8.94-13.61,9.46S13.8,86.06,13.8,86.06Z"/><path class="cls-35" d="M13.86,86.05s1.56-3.61,11.62-4.56S41,83.77,41,83.77s5,8.9-13.55,9.42S13.86,86.05,13.86,86.05Z"/><path class="cls-36" d="M13.92,86s1.55-3.6,11.57-4.54,15.4,2.27,15.4,2.27,5,8.86-13.48,9.38S13.92,86,13.92,86Z"/><path class="cls-37" d="M14,86s1.55-3.58,11.51-4.52,15.34,2.26,15.34,2.26,5,8.82-13.42,9.33S14,86,14,86Z"/><path class="cls-38" d="M14.05,86s1.53-3.56,11.45-4.5,15.27,2.25,15.27,2.25,5,8.78-13.36,9.29S14.05,86,14.05,86Z"/><path class="cls-39" d="M14.11,86s1.53-3.54,11.4-4.47S40.7,83.77,40.7,83.77,45.64,92.51,27.4,93,14.11,86,14.11,86Z"/><path class="cls-40" d="M14.17,86s1.52-3.53,11.35-4.45,15.12,2.22,15.12,2.22S45.55,92.47,27.4,93,14.17,86,14.17,86Z"/><path class="cls-41" d="M14.23,86s1.51-3.51,11.29-4.43,15.05,2.22,15.05,2.22,4.89,8.65-13.17,9.15S14.23,86,14.23,86Z"/><path class="cls-42" d="M14.29,86s1.51-3.49,11.24-4.41,15,2.21,15,2.21,4.87,8.61-13.11,9.11S14.29,86,14.29,86Z"/><path class="cls-43" d="M14.35,86s1.5-3.48,11.19-4.39,14.9,2.2,14.9,2.2,4.85,8.57-13,9.07S14.35,86,14.35,86Z"/><path class="cls-44" d="M14.41,86s1.49-3.46,11.14-4.37,14.83,2.19,14.83,2.19,4.82,8.53-13,9S14.41,86,14.41,86Z"/><path class="cls-45" d="M14.47,86S16,82.51,25.55,81.61s14.77,2.17,14.77,2.17,4.79,8.49-12.93,9S14.47,86,14.47,86Z"/><path class="cls-46" d="M14.53,86s1.48-3.43,11-4.33,14.69,2.16,14.69,2.16S45,92.23,27.39,92.72,14.53,86,14.53,86Z"/><path class="cls-47" d="M14.59,85.94s1.48-3.42,11-4.31,14.62,2.15,14.62,2.15,4.75,8.41-12.8,8.9S14.59,85.94,14.59,85.94Z"/><path class="cls-48" d="M14.65,85.93s1.47-3.4,10.92-4.29,14.55,2.14,14.55,2.14,4.73,8.37-12.73,8.86S14.65,85.93,14.65,85.93Z"/><path class="cls-49" d="M14.72,85.92s1.45-3.38,10.86-4.27,14.48,2.13,14.48,2.13,4.7,8.33-12.67,8.81S14.72,85.92,14.72,85.92Z"/><path class="cls-50" d="M14.78,85.91s1.45-3.36,10.81-4.25S40,83.79,40,83.79s4.69,8.28-12.6,8.76S14.78,85.91,14.78,85.91Z"/><path class="cls-51" d="M14.84,85.9s1.44-3.35,10.76-4.22,14.33,2.11,14.33,2.11S44.59,92,27.38,92.51,14.84,85.9,14.84,85.9Z"/><path class="cls-52" d="M14.9,85.89s1.43-3.33,10.7-4.2,14.27,2.1,14.27,2.1S44.5,92,27.38,92.47,14.9,85.89,14.9,85.89Z"/><path class="cls-53" d="M15,85.88s1.43-3.31,10.65-4.18S39.8,83.79,39.8,83.79,44.41,92,27.38,92.42,15,85.88,15,85.88Z"/><path class="cls-54" d="M15,85.87s1.42-3.3,10.6-4.16,14.12,2.08,14.12,2.08,4.59,8.12-12.36,8.59S15,85.87,15,85.87Z"/><path class="cls-55" d="M15.08,85.86s1.42-3.28,10.55-4.14,14,2.07,14,2.07,4.57,8.08-12.29,8.55S15.08,85.86,15.08,85.86Z"/><path class="cls-56" d="M15.14,85.85s1.41-3.26,10.49-4.12,14,2.06,14,2.06,4.54,8-12.23,8.51S15.14,85.85,15.14,85.85Z"/><path class="cls-57" d="M15.2,85.84s1.4-3.24,10.44-4.09,13.91,2,13.91,2,4.51,8-12.18,8.47S15.2,85.84,15.2,85.84Z"/><path class="cls-58" d="M15.26,85.83s1.4-3.23,10.39-4.07,13.83,2,13.83,2,4.5,8-12.11,8.42S15.26,85.83,15.26,85.83Z"/><path class="cls-59" d="M15.33,85.82s1.38-3.21,10.32-4,13.77,2,13.77,2,4.47,7.91-12,8.37S15.33,85.82,15.33,85.82Z"/><path class="cls-60" d="M15.39,85.81s1.37-3.19,10.27-4,13.69,2,13.69,2,4.45,7.87-12,8.33S15.39,85.81,15.39,85.81Z"/><path class="cls-61" d="M15.45,85.8s1.37-3.18,10.22-4,13.62,2,13.62,2,4.42,7.83-11.92,8.29S15.45,85.8,15.45,85.8Z"/><path class="cls-62" d="M15.51,85.79s1.36-3.16,10.17-4,13.54,2,13.54,2S43.63,91.59,27.37,92,15.51,85.79,15.51,85.79Z"/><path class="cls-63" d="M15.57,85.78s1.36-3.14,10.11-4,13.48,2,13.48,2,4.38,7.75-11.8,8.2S15.57,85.78,15.57,85.78Z"/><path class="cls-64" d="M15.63,85.78s1.35-3.13,10.06-4,13.41,2,13.41,2S43.45,91.51,27.36,92,15.63,85.78,15.63,85.78Z"/><path class="cls-65" d="M15.69,85.77s1.34-3.12,10-3.93S39,83.8,39,83.8s4.33,7.67-11.67,8.12S15.69,85.77,15.69,85.77Z"/><path class="cls-66" d="M15.75,85.76s1.34-3.1,10-3.91S39,83.8,39,83.8s4.31,7.63-11.61,8.07S15.75,85.76,15.75,85.76Z"/><path class="cls-67" d="M15.81,85.75s1.33-3.08,9.9-3.89S38.9,83.8,38.9,83.8s4.29,7.59-11.54,8S15.81,85.75,15.81,85.75Z"/><path class="cls-67" d="M15.87,85.74s1.32-3.06,9.85-3.87,13.12,1.94,13.12,1.94,4.26,7.54-11.48,8S15.87,85.74,15.87,85.74Z"/><path class="cls-68" d="M15.94,85.73s1.31-3,9.79-3.84,13,1.92,13,1.92,4.24,7.5-11.42,7.94S15.94,85.73,15.94,85.73Z"/><path class="cls-69" d="M16,85.72s1.3-3,9.73-3.82,13,1.91,13,1.91,4.22,7.46-11.36,7.89S16,85.72,16,85.72Z"/><path class="cls-70" d="M16.06,85.71s1.3-3,9.68-3.8,12.91,1.9,12.91,1.9,4.19,7.42-11.3,7.85S16.06,85.71,16.06,85.71Z"/><path class="cls-71" d="M16.12,85.7s1.29-3,9.63-3.78,12.83,1.89,12.83,1.89,4.17,7.38-11.23,7.81S16.12,85.7,16.12,85.7Z"/><path class="cls-72" d="M16.18,85.69s1.28-3,9.58-3.76,12.76,1.88,12.76,1.88,4.14,7.34-11.17,7.77S16.18,85.69,16.18,85.69Z"/><path class="cls-73" d="M16.24,85.68s1.28-3,9.52-3.74,12.69,1.87,12.69,1.87,4.13,7.3-11.1,7.72S16.24,85.68,16.24,85.68Z"/><path class="cls-74" d="M16.3,85.67s1.27-2.94,9.47-3.72,12.62,1.86,12.62,1.86,4.1,7.26-11,7.68S16.3,85.67,16.3,85.67Z"/><path class="cls-75" d="M16.36,85.66s1.26-2.93,9.42-3.69,12.54,1.84,12.54,1.84,4.08,7.22-11,7.64S16.36,85.66,16.36,85.66Z"/><path class="cls-76" d="M16.42,85.65s1.26-2.91,9.37-3.67,12.47,1.84,12.47,1.84S42.31,91,27.34,91.41,16.42,85.65,16.42,85.65Z"/><path class="cls-77" d="M16.48,85.64s1.25-2.89,9.31-3.65S38.2,83.82,38.2,83.82s4,7.13-10.86,7.54S16.48,85.64,16.48,85.64Z"/><path class="cls-78" d="M16.54,85.63S17.79,82.76,25.8,82s12.33,1.82,12.33,1.82,4,7.09-10.79,7.5S16.54,85.63,16.54,85.63Z"/><path class="cls-79" d="M16.61,85.62s1.23-2.86,9.2-3.61,12.26,1.81,12.26,1.81,4,7.05-10.73,7.46S16.61,85.62,16.61,85.62Z"/><path class="cls-80" d="M16.67,85.61s1.22-2.84,9.14-3.59S38,83.82,38,83.82s4,7-10.67,7.42S16.67,85.61,16.67,85.61Z"/><path class="cls-81" d="M16.73,85.61S18,82.78,25.82,82s12.12,1.78,12.12,1.78,3.94,7-10.61,7.37S16.73,85.61,16.73,85.61Z"/><path class="cls-82" d="M16.79,85.6s1.21-2.82,9-3.55,12,1.77,12,1.77,3.92,6.93-10.54,7.33S16.79,85.6,16.79,85.6Z"/><path class="cls-83" d="M16.85,85.59s1.2-2.8,9-3.53,12,1.76,12,1.76,3.89,6.89-10.48,7.29S16.85,85.59,16.85,85.59Z"/><path class="cls-84" d="M16.91,85.58s1.2-2.78,8.93-3.51,11.91,1.75,11.91,1.75,3.86,6.85-10.42,7.25S16.91,85.58,16.91,85.58Z"/><path class="cls-85" d="M17,85.57s1.19-2.76,8.88-3.49,11.83,1.75,11.83,1.75,3.85,6.8-10.35,7.19S17,85.57,17,85.57Z"/><path class="cls-86" d="M17,85.56s1.19-2.75,8.83-3.47,11.76,1.74,11.76,1.74,3.82,6.76-10.3,7.15S17,85.56,17,85.56Z"/><path class="cls-87" d="M17.09,85.55s1.18-2.73,8.78-3.44,11.68,1.72,11.68,1.72,3.8,6.72-10.23,7.11S17.09,85.55,17.09,85.55Z"/><path class="cls-88" d="M17.15,85.54s1.17-2.71,8.72-3.42,11.62,1.71,11.62,1.71,3.77,6.68-10.17,7.07S17.15,85.54,17.15,85.54Z"/><path class="cls-89" d="M17.22,85.53s1.16-2.69,8.66-3.4,11.54,1.7,11.54,1.7,3.76,6.64-10.1,7S17.22,85.53,17.22,85.53Z"/><path class="cls-90" d="M17.28,85.52s1.15-2.68,8.61-3.38,11.47,1.69,11.47,1.69,3.73,6.6-10,7S17.28,85.52,17.28,85.52Z"/><path class="cls-91" d="M17.34,85.51s1.14-2.66,8.55-3.36S37.3,83.83,37.3,83.83s3.7,6.56-10,6.94S17.34,85.51,17.34,85.51Z"/><path class="cls-92" d="M17.4,85.5s1.14-2.64,8.5-3.34,11.33,1.67,11.33,1.67,3.68,6.52-9.92,6.9S17.4,85.5,17.4,85.5Z"/><path class="cls-93" d="M17.46,85.49s1.13-2.63,8.45-3.31,11.26,1.65,11.26,1.65,3.66,6.48-9.86,6.85S17.46,85.49,17.46,85.49Z"/><path class="cls-94" d="M17.52,85.48s1.13-2.61,8.4-3.29S37.1,83.84,37.1,83.84s3.64,6.43-9.79,6.8S17.52,85.48,17.52,85.48Z"/><path class="cls-95" d="M17.58,85.47s1.12-2.59,8.34-3.27S37,83.84,37,83.84s3.61,6.39-9.73,6.76S17.58,85.47,17.58,85.47Z"/><path class="cls-96" d="M17.64,85.46s1.11-2.57,8.29-3.25,11,1.63,11,1.63,3.59,6.35-9.66,6.72S17.64,85.46,17.64,85.46Z"/><path class="cls-97" d="M17.7,85.45s1.11-2.56,8.24-3.23,11,1.62,11,1.62,3.57,6.31-9.6,6.68S17.7,85.45,17.7,85.45Z"/><path class="cls-98" d="M17.76,85.44s1.1-2.54,8.19-3.21,10.9,1.61,10.9,1.61,3.54,6.27-9.54,6.63S17.76,85.44,17.76,85.44Z"/><path class="cls-99" d="M17.82,85.44s1.09-2.53,8.13-3.19,10.83,1.59,10.83,1.59,3.52,6.23-9.48,6.59S17.82,85.44,17.82,85.44Z"/><path class="cls-100" d="M17.89,85.43S19,82.91,26,82.26s10.76,1.58,10.76,1.58S40.21,90,27.3,90.39,17.89,85.43,17.89,85.43Z"/><path class="cls-101" d="M18,85.42s1.07-2.5,8-3.15,10.68,1.57,10.68,1.57S40.13,90,27.3,90.35,18,85.42,18,85.42Z"/><path class="cls-102" d="M18,85.41s1.07-2.48,8-3.13,10.62,1.56,10.62,1.56S40,90,27.3,90.3,18,85.41,18,85.41Z"/><path class="cls-103" d="M18.07,85.4s1.06-2.46,7.91-3.11,10.54,1.55,10.54,1.55S40,89.91,27.3,90.26,18.07,85.4,18.07,85.4Z"/><path class="cls-104" d="M18.13,85.39S19.18,82.94,26,82.3s10.47,1.55,10.47,1.55,3.4,6-9.16,6.37S18.13,85.39,18.13,85.39Z"/><path class="cls-105" d="M18.19,85.38s1-2.43,7.81-3.06,10.4,1.53,10.4,1.53,3.38,6-9.11,6.33S18.19,85.38,18.19,85.38Z"/><path class="cls-106" d="M18.25,85.37s1-2.41,7.75-3,10.33,1.52,10.33,1.52,3.36,5.94-9,6.28S18.25,85.37,18.25,85.37Z"/><path class="cls-107" d="M18.31,85.36s1-2.39,7.7-3,10.26,1.51,10.26,1.51,3.33,5.9-9,6.24S18.31,85.36,18.31,85.36Z"/><path class="cls-108" d="M18.37,85.35s1-2.38,7.65-3,10.18,1.5,10.18,1.5,3.31,5.86-8.91,6.2S18.37,85.35,18.37,85.35Z"/><path class="cls-109" d="M18.43,85.34s1-2.36,7.6-3,10.11,1.49,10.11,1.49,3.29,5.82-8.85,6.16S18.43,85.34,18.43,85.34Z"/><path class="cls-110" d="M18.5,85.33s1-2.34,7.53-3,10,1.48,10,1.48,3.27,5.78-8.78,6.11S18.5,85.33,18.5,85.33Z"/><path class="cls-111" d="M18.56,85.32s1-2.33,7.48-2.93,10,1.46,10,1.46,3.24,5.74-8.73,6.07S18.56,85.32,18.56,85.32Z"/><path class="cls-112" d="M18.62,85.31s1-2.31,7.43-2.91S36,83.85,36,83.85s3.21,5.7-8.67,6S18.62,85.31,18.62,85.31Z"/><path class="cls-113" d="M18.68,85.3s1-2.29,7.37-2.89,9.83,1.45,9.83,1.45,3.2,5.65-8.6,6S18.68,85.3,18.68,85.3Z"/><path class="cls-114" d="M18.74,85.29s1-2.27,7.32-2.87,9.76,1.44,9.76,1.44,3.17,5.61-8.54,5.93S18.74,85.29,18.74,85.29Z"/><path class="cls-115" d="M18.8,85.28s1-2.26,7.27-2.85,9.68,1.43,9.68,1.43,3.15,5.57-8.47,5.89S18.8,85.28,18.8,85.28Z"/><path class="cls-116" d="M18.86,85.27s1-2.24,7.22-2.83,9.61,1.42,9.61,1.42,3.12,5.53-8.41,5.85S18.86,85.27,18.86,85.27Z"/><path class="cls-117" d="M18.92,85.27s1-2.23,7.16-2.82,9.55,1.41,9.55,1.41,3.1,5.49-8.36,5.81S18.92,85.27,18.92,85.27Z"/><path class="cls-118" d="M19,85.26s1-2.21,7.11-2.79,9.47,1.39,9.47,1.39,3.08,5.45-8.29,5.76S19,85.26,19,85.26Z"/><path class="cls-119" d="M19,85.25s.95-2.2,7.06-2.77,9.4,1.38,9.4,1.38,3,5.41-8.23,5.72S19,85.25,19,85.25Z"/><path class="cls-120" d="M19.11,85.24s.93-2.18,7-2.75,9.32,1.37,9.32,1.37,3,5.37-8.16,5.68S19.11,85.24,19.11,85.24Z"/></g></g></svg>