<svg width="55" height="61" viewBox="0 0 55 61" fill="none" xmlns="http://www.w3.org/2000/svg">
<path d="M28.0544 0.883288C26.8474 0.936021 25.8982 1.92623 25.8982 3.13322V17.7637C25.8572 18.0039 25.8572 18.25 25.8982 18.4843V40.304C25.8572 40.2689 25.822 40.2337 25.781 40.2044C23.0331 38.101 19.3828 36.8822 15.3985 36.8822C11.4143 36.8822 7.76398 38.101 5.01601 40.2044C2.26804 42.302 0.398956 45.3957 0.398956 48.8819C0.398956 52.3681 2.26804 55.4618 5.01601 57.5594C7.76398 59.6628 11.4143 60.8815 15.3985 60.8815C19.3828 60.8815 23.0331 59.6628 25.781 57.5594C28.4235 55.5379 30.2399 52.5908 30.3746 49.2627C30.3746 49.251 30.3746 49.2393 30.3746 49.2334C30.3922 49.1163 30.3981 48.9991 30.3981 48.8819V21.3788L51.3565 29.2418C52.0478 29.4996 52.8213 29.4 53.4306 28.984C54.0341 28.5622 54.3974 27.8708 54.3974 27.1325V17.3301C54.3974 13.2755 51.8721 9.62522 48.0694 8.20143L28.9391 1.02391C28.6579 0.918444 28.3532 0.871571 28.0544 0.883288ZM30.3981 6.37922L46.4933 12.4142C48.5499 13.1876 49.8975 15.1329 49.8975 17.3301V23.8865L30.3981 16.5742V6.37922ZM15.3985 41.3821C18.457 41.3821 21.1816 42.3489 23.0448 43.7727C24.9139 45.2023 25.8982 46.9835 25.8982 48.8819C25.8982 50.7803 24.9139 52.5615 23.0448 53.9911C21.1816 55.4149 18.457 56.3817 15.3985 56.3817C12.34 56.3817 9.61548 55.4149 7.75226 53.9911C5.88317 52.5615 4.89883 50.7803 4.89883 48.8819C4.89883 46.9835 5.88317 45.2023 7.75226 43.7727C9.61548 42.3489 12.34 41.3821 15.3985 41.3821Z" fill="white"/>
</svg>
