<svg xmlns="http://www.w3.org/2000/svg" xmlns:xlink="http://www.w3.org/1999/xlink" viewBox="0 0 165.47 185.89"><defs><style>.cls-1{fill:url(#linear-gradient);}.cls-2{fill:url(#radial-gradient);}.cls-3{mask:url(#mask);}.cls-4{fill:#fff;}.cls-5,.cls-6,.cls-7{fill-rule:evenodd;}.cls-5{opacity:0.1;}.cls-11,.cls-6{fill:#4c2d25;}.cls-7{fill:#c93609;}.cls-8{fill:#6486c4;}.cls-9{fill:#95bde5;}.cls-10{fill:#aed6f2;}.cls-12{fill:#becfd3;}.cls-13{fill:#25c2ff;}.cls-14{fill:#4fd3fc;}.cls-15{fill:#c9892d;}.cls-16{fill:#ffd32e;}.cls-17{fill:#ffd32f;}.cls-18{fill:#ffd430;}.cls-19{fill:#ffd431;}.cls-20{fill:#ffd432;}.cls-21{fill:#ffd533;}.cls-22{fill:#ffd534;}.cls-23{fill:#ffd535;}.cls-24{fill:#ffd636;}.cls-25{fill:#ffd637;}.cls-26{fill:#ffd638;}.cls-27{fill:#ffd739;}.cls-28{fill:#ffd73a;}.cls-29{fill:#ffd73b;}.cls-30{fill:#ffd73c;}.cls-31{fill:#ffd83d;}.cls-32{fill:#ffd83e;}.cls-33{fill:#ffd83f;}.cls-34{fill:#ffd940;}.cls-35{fill:#ffd941;}.cls-36{fill:#ffd942;}.cls-37{fill:#ffda43;}.cls-38{fill:#ffda44;}.cls-39{fill:#ffda45;}.cls-40{fill:#ffdb46;}.cls-41{fill:#ffdb47;}.cls-42{fill:#ffdb48;}.cls-43{fill:#ffdc49;}.cls-44{fill:#ffdc4a;}.cls-45{fill:#ffdc4b;}.cls-46{fill:#ffdd4c;}.cls-47{fill:#ffdd4d;}.cls-48{fill:#ffdd4e;}.cls-49{fill:#ffde4f;}.cls-50{fill:#ffde50;}.cls-51{fill:#ffde51;}.cls-52{fill:#ffdf52;}.cls-53{fill:#ffdf53;}.cls-54{fill:#ffdf54;}.cls-55{fill:#ffe055;}.cls-56{fill:#ffe056;}.cls-57{fill:#ffe057;}.cls-58{fill:#ffe058;}.cls-59{fill:#ffe159;}.cls-60{fill:#ffe15a;}.cls-61{fill:#ffe15b;}.cls-62{fill:#ffe25c;}.cls-63{fill:#ffe25d;}.cls-64{fill:#ffe25e;}.cls-65{fill:#ffe35f;}.cls-66{fill:#ffe360;}.cls-67{fill:#ffe361;}.cls-68{fill:#ffe462;}.cls-69{fill:#ffe463;}.cls-70{fill:#ffe564;}.cls-71{fill:#ffe565;}.cls-72{fill:#ffe566;}.cls-73{fill:#ffe667;}.cls-74{fill:#ffe668;}.cls-75{fill:#ffe669;}.cls-76{fill:#ffe76a;}.cls-77{fill:#ffe76b;}.cls-78{fill:#ffe76c;}.cls-79{fill:#ffe86d;}.cls-80{fill:#ffe86e;}.cls-81{fill:#ffe86f;}.cls-82{fill:#ffe870;}.cls-83{fill:#ffe971;}.cls-84{fill:#ffe972;}.cls-85{fill:#ffe973;}.cls-86{fill:#ffea74;}.cls-87{fill:#ffea75;}.cls-88{fill:#ffea76;}.cls-89{fill:#ffeb77;}.cls-90{fill:#ffeb78;}.cls-91{fill:#ffeb79;}.cls-92{fill:#ffec7a;}.cls-93{fill:#ffec7b;}.cls-94{fill:#ffec7c;}.cls-95{fill:#ffed7d;}.cls-96{fill:#ffed7e;}.cls-97{fill:#ffed7f;}.cls-98{fill:#ffee80;}.cls-99{fill:#ffee81;}.cls-100{fill:#ffee82;}.cls-101{fill:#ffef83;}.cls-102{fill:#ffef84;}.cls-103{fill:#ffef85;}.cls-104{fill:#fff086;}.cls-105{fill:#fff087;}.cls-106{fill:#fff088;}.cls-107{fill:#fff189;}.cls-108{fill:#fff18a;}.cls-109{fill:#fff18b;}.cls-110{fill:#fff18c;}.cls-111{fill:#fff28d;}.cls-112{fill:#fff28e;}.cls-113{fill:#fff28f;}.cls-114{fill:#fff390;}.cls-115{fill:#fff391;}.cls-116{fill:#fff392;}.cls-117{fill:#fff493;}.cls-118{fill:#fff494;}.cls-119{fill:#fff495;}.cls-120{fill:#fff596;}.cls-121{fill:#fff597;}</style><linearGradient id="linear-gradient" x1="-49.38" y1="17.38" x2="-49.38" y2="126.53" gradientTransform="translate(155.03 22.59) rotate(12.74)" gradientUnits="userSpaceOnUse"><stop offset="0" stop-color="#fff"/><stop offset="1" stop-color="#231f20"/></linearGradient><radialGradient id="radial-gradient" cx="-48.6" cy="99.21" r="63.74" gradientTransform="translate(200.16 99.87) rotate(57.74)" gradientUnits="userSpaceOnUse"><stop offset="0.64" stop-color="#fcee21"/><stop offset="0.91" stop-color="#f7931e"/><stop offset="1" stop-color="#f15a24"/></radialGradient><mask id="mask" x="42.19" y="54.11" width="89.85" height="89.85" maskUnits="userSpaceOnUse"><path class="cls-1" d="M130.92,109A44.91,44.91,0,1,1,97,55.23,44.91,44.91,0,0,1,130.92,109Z"/></mask></defs><title>Ресурс 3</title><g id="Слой_2" data-name="Слой 2"><g id="Layer_1" data-name="Layer 1"><circle class="cls-2" cx="84.32" cy="115.71" r="61.86" transform="translate(-57.12 93.51) rotate(-45)"/><g class="cls-3"><path class="cls-4" d="M130.92,109A44.91,44.91,0,1,1,97,55.23,44.91,44.91,0,0,1,130.92,109Z"/></g><path class="cls-5" d="M77.26,152.76c5.59,1.26,11.46-3.51,13.07-10.63s-1.63-14-7.22-15.22S71.65,130.42,70,137.54,71.67,151.5,77.26,152.76Z"/><path class="cls-6" d="M77.55,151.49c4.72,1.07,9.79-3.42,11.27-10S87.67,128.69,83,127.62s-9.79,3.42-11.28,10S72.83,150.42,77.55,151.49Z"/><path class="cls-7" d="M87.44,145.34c-2.22,4.39-6.15,7-9.89,6.15s-6-4.68-6.28-9.42c1.62-.43,3.7-.5,7.72,1A22,22,0,0,1,87.44,145.34Z"/><polygon class="cls-8" points="137.1 44.9 104.91 44.9 104.91 54.85 119.97 54.85 103.95 82.57 135.64 82.57 135.64 72.68 121.08 72.68 137.1 44.9"/><polygon class="cls-9" points="165.47 22.58 144.15 22.58 144.15 29.17 154.13 29.17 143.51 47.53 164.51 47.53 164.51 40.98 154.86 40.98 165.47 22.58"/><polygon class="cls-10" points="146.11 0 132.75 0 132.75 4.13 139 4.13 132.35 15.63 145.5 15.63 145.5 11.52 139.46 11.52 146.11 0"/><path class="cls-11" d="M47.22,86.23C56.57,81,66.79,81,78.32,88.66c1.79,2.64-1,5.38-2.91,4.2C67.08,86.34,57.82,83.55,47.22,86.23Z"/><path class="cls-5" d="M41.89,100.9c-1.08-4,5-7.87,7.31-2.52,4.82,10.9,12.17,12.8,22.58,3.86,3.65-2.11,7.72,1.79,5.41,5.89C65.93,121.53,47.34,118.05,41.89,100.9Z"/><path class="cls-6" d="M44.61,101.76c-1.08-4,.79-5.86,3.07-.51C52.93,111.58,62,113.67,71.9,105.4c3.65-2.12,4.64-1.71,2.33,2.4C62.42,117.7,49.47,115.14,44.61,101.76Z"/><path class="cls-11" d="M131.38,104.11C125.19,95.39,116,91,102.27,92.92c-2.76,1.61-1.43,5.28.82,5C113.41,95.67,123,97.13,131.38,104.11Z"/><path class="cls-5" d="M129.88,119.65c2.71-3.19-1.15-9.27-5.52-5.42-9,7.76-16.49,6.32-22-6.24-2.38-3.47-7.73-1.71-7.42,3C99.3,127.93,117.58,132.78,129.88,119.65Z"/><path class="cls-6" d="M127.05,119.26c2.72-3.19,1.82-5.64-2.54-1.79-9.19,7.06-18.28,5-23.66-6.68-2.38-3.48-3.44-3.54-3.13,1.17C104.11,126,116.91,129.24,127.05,119.26Z"/><circle class="cls-12" cx="13.5" cy="123.32" r="13.5" transform="translate(-83.25 45.66) rotate(-45)"/><circle class="cls-4" cx="13.5" cy="123.32" r="11.52" transform="translate(-83.25 45.66) rotate(-45)"/><path class="cls-12" d="M6,118c.6-1.55,5-2.86,7.51-1.06A15,15,0,0,0,6,118Z"/><path class="cls-12" d="M14.13,118.63a8.26,8.26,0,0,0-4.9,6.49A24.15,24.15,0,0,0,14.13,118.63Z"/><path class="cls-12" d="M16.53,119.41a16.32,16.32,0,0,0,.84,7.58A24.23,24.23,0,0,0,16.53,119.41Z"/><path class="cls-12" d="M18.77,119.41c2.53.72,3.73,2.51,4.11,5A18.44,18.44,0,0,0,18.77,119.41Z"/><path class="cls-13" d="M75.53,40C60.7,29,46.16,26.52,32.11,37.75c-13.52,3-20.19,12-19.54,27.44C10.21,74.65,10.23,84,14.13,93c3.41,8.39,2.7,16.29,1,24.07,0,.79,2.49,1.24,2.72,1,4.63-4.77,7.87-16.77,5-22.66-1.17,0,.3-21.9,2.14-22.91,1-.54,29.74-19.73,30.87-20.58S75.53,40,75.53,40Z"/><path class="cls-12" d="M103.34,57.48c.17-3.86-2-6.77-5.26-9.21-2.36-10.15-11-13.91-24.43-12.78C42.88,43,24.2,55.22,18.77,72.52a26.27,26.27,0,0,0,2.06,19l5,4C44,56.36,72,52.56,103.34,57.48Z"/><path class="cls-4" d="M98,50q-19.33-3.48-43.51,1.3a87.36,87.36,0,0,1,40.89-4.91c-2.64-8.23-8.2-9.95-20.59-8.9C44,45,26.36,55.22,20.93,72.52c-1.84,7.4-1.41,11.94,1.34,17.39l3.35,2.72C43.79,53.44,69.26,50.06,100.57,55,100.7,52,99.86,51.27,98,50Z"/><path class="cls-14" d="M63.5,37.19A16.82,16.82,0,0,0,54.2,34c-6.06-.42-17.2,2.32-18,3.2s7.09,3.28,7.09,3.28a65.58,65.58,0,0,1-8.36,0c-4.8-.28-11.28,1.41-13.11,4.8s-3.3,10.29-3.91,12.82a42.11,42.11,0,0,1-2.15,6.82c-1.27,3.33-2.75,4.71-2.22,9.38s-.53,6.92,0,10S15.17,89,16.93,93.9s1.84,12.58,1.84,12.58,3.64-3.14,2.06-9.76S17,85.44,16.93,82.2s.81-7.76,1.84-12,4-6.49,5.4-10.72.29-6.62,2.82-9.72,12.93-3.53,14.64-4,7.21-1.55,7.49-4.79,4.51-4.17,6.63-3.85A60,60,0,0,0,63.5,37.19Z"/><path class="cls-15" d="M112.8,149.2a12.38,12.38,0,0,0,9.06-8.16s6.47-16.66,6.34-17.07c1.6-6.08,3.28-6.54,5.87-7.87,3-7.89,7.61-11,14.3-8.35,3.33,1.6,5.13,4.21,6.49,7.12,9.21,6.1,9.4,19.45,3,38-6.63,17.58-32.19,36.94-52.38,32.26-5.17-2-12.46-2.42-20.19-2.53,9.48-3.23,5.5-15.67,12-24.36C102.34,151.45,112.8,149.2,112.8,149.2Z"/><path class="cls-16" d="M119,147.12a13.14,13.14,0,0,1-5.84,3.06c-10.8,3.33-18.76,8.82-18.74,20.39-.8,5.4-2.31,9.12-4.72,10.7a63.92,63.92,0,0,1,16.66,2.82c16.18,2.57,37.26-9,48.85-27.65,4.17-9.62,6-19,5.41-28.06-.8-5.6-2.65-9.32-5.42-11.39,2.65,11.51.89,23.11-2.92,34.76,3.08-16.06,4.24-31.28-.51-39.26-2.89-4.1-6.45-5.55-10.82-3.87a9.63,9.63,0,0,0-4.87,7.1c9.07,1.83,11.25,8.43,9.05,18.05a88.08,88.08,0,0,1-5.18,18,138.81,138.81,0,0,0,3.63-18.39c1.68-9.15-.48-15-8.53-15.8-2.64.25-4.07,3.21-5.21,6.79l-6,16.56c-3.36,7.65-6,11.73-8.37,14.25A40.86,40.86,0,0,0,119,147.12Z"/><path class="cls-16" d="M137.74,114.64s6.35-10,12.44-2.42-3.49,33.84-3.49,33.84,2.37-20.5-1.39-26.9S137.74,114.64,137.74,114.64Z"/><path class="cls-17" d="M137.78,114.62s6.33-10,12.39-2.4-3.45,33.67-3.45,33.67,2.34-20.39-1.4-26.76S137.78,114.62,137.78,114.62Z"/><path class="cls-18" d="M137.82,114.59s6.31-9.93,12.34-2.37-3.4,33.49-3.4,33.49,2.3-20.26-1.43-26.6S137.82,114.59,137.82,114.59Z"/><path class="cls-19" d="M137.85,114.57s6.3-9.87,12.31-2.35-3.37,33.32-3.37,33.32,2.27-20.15-1.44-26.46S137.85,114.57,137.85,114.57Z"/><path class="cls-20" d="M137.89,114.54s6.28-9.81,12.26-2.31-3.33,33.14-3.33,33.14,2.24-20-1.46-26.32S137.89,114.54,137.89,114.54Z"/><path class="cls-21" d="M137.93,114.52s6.26-9.76,12.22-2.29-3.3,33-3.3,33,2.2-19.92-1.47-26.18S137.93,114.52,137.93,114.52Z"/><path class="cls-22" d="M138,114.5s6.24-9.7,12.17-2.27S146.88,145,146.88,145s2.17-19.79-1.49-26S138,114.5,138,114.5Z"/><path class="cls-23" d="M138,114.47s6.23-9.64,12.13-2.24-3.22,32.62-3.22,32.62,2.14-19.67-1.5-25.88S138,114.47,138,114.47Z"/><path class="cls-24" d="M138,114.45s6.21-9.59,12.09-2.22-3.19,32.45-3.19,32.45,2.11-19.56-1.52-25.74S138,114.45,138,114.45Z"/><path class="cls-25" d="M138.08,114.43s6.19-9.53,12-2.2S147,144.5,147,144.5s2.08-19.43-1.54-25.59S138.08,114.43,138.08,114.43Z"/><path class="cls-26" d="M138.12,114.4s6.17-9.47,12-2.17-3.12,32.1-3.12,32.1,2.05-19.32-1.55-25.45S138.12,114.4,138.12,114.4Z"/><path class="cls-27" d="M138.15,114.38s6.16-9.41,12-2.14S147,144.16,147,144.16s2-19.2-1.58-25.3S138.15,114.38,138.15,114.38Z"/><path class="cls-28" d="M138.19,114.35s6.14-9.35,11.92-2.11-3,31.75-3,31.75,2-19.09-1.59-25.16S138.19,114.35,138.19,114.35Z"/><path class="cls-29" d="M138.23,114.33s6.12-9.3,11.87-2.09-3,31.57-3,31.57,1.94-19-1.61-25S138.23,114.33,138.23,114.33Z"/><path class="cls-30" d="M138.27,114.31s6.1-9.24,11.82-2.07-3,31.4-3,31.4,1.91-18.85-1.62-24.87S138.27,114.31,138.27,114.31Z"/><path class="cls-31" d="M138.3,114.28s6.09-9.18,11.79-2-2.93,31.23-2.93,31.23,1.88-18.73-1.64-24.72S138.3,114.28,138.3,114.28Z"/><path class="cls-32" d="M138.34,114.26s6.07-9.13,11.74-2-2.89,31.06-2.89,31.06,1.85-18.62-1.65-24.58S138.34,114.26,138.34,114.26Z"/><path class="cls-33" d="M138.38,114.24s6.05-9.07,11.7-2-2.86,30.87-2.86,30.87,1.82-18.49-1.67-24.43S138.38,114.24,138.38,114.24Z"/><path class="cls-34" d="M138.42,114.21s6-9,11.65-2-2.82,30.7-2.82,30.7,1.79-18.38-1.68-24.29S138.42,114.21,138.42,114.21Z"/><path class="cls-35" d="M138.45,114.19s6-9,11.61-1.94-2.78,30.53-2.78,30.53,1.76-18.26-1.7-24.14S138.45,114.19,138.45,114.19Z"/><path class="cls-36" d="M138.49,114.17s6-8.9,11.57-1.92-2.75,30.36-2.75,30.36,1.73-18.14-1.71-24S138.49,114.17,138.49,114.17Z"/><path class="cls-37" d="M138.53,114.14s6-8.84,11.52-1.89-2.7,30.18-2.7,30.18,1.68-18-1.74-23.85S138.53,114.14,138.53,114.14Z"/><path class="cls-38" d="M138.57,114.12s6-8.78,11.48-1.87-2.67,30-2.67,30,1.65-17.9-1.76-23.71S138.57,114.12,138.57,114.12Z"/><path class="cls-39" d="M138.6,114.09s5.94-8.72,11.44-1.83-2.63,29.83-2.63,29.83,1.62-17.79-1.77-23.57S138.6,114.09,138.6,114.09Z"/><path class="cls-40" d="M138.64,114.07s5.92-8.67,11.39-1.81-2.59,29.66-2.59,29.66,1.59-17.67-1.79-23.42S138.64,114.07,138.64,114.07Z"/><path class="cls-41" d="M138.68,114.05s5.9-8.61,11.35-1.79-2.56,29.48-2.56,29.48,1.56-17.55-1.8-23.27S138.68,114.05,138.68,114.05Z"/><path class="cls-42" d="M138.72,114s5.88-8.55,11.3-1.76-2.52,29.31-2.52,29.31,1.53-17.43-1.82-23.13S138.72,114,138.72,114Z"/><path class="cls-43" d="M138.76,114s5.86-8.49,11.26-1.74-2.49,29.14-2.49,29.14,1.5-17.32-1.83-23S138.76,114,138.76,114Z"/><path class="cls-44" d="M138.79,114s5.85-8.44,11.22-1.72-2.45,29-2.45,29,1.47-17.2-1.85-22.84S138.79,114,138.79,114Z"/><path class="cls-45" d="M138.83,114s5.83-8.38,11.17-1.68-2.41,28.78-2.41,28.78S149,124,145.73,118.36,138.83,114,138.83,114Z"/><path class="cls-46" d="M138.87,113.93s5.81-8.32,11.13-1.66-2.37,28.61-2.37,28.61,1.39-17-1.89-22.55S138.87,113.93,138.87,113.93Z"/><path class="cls-47" d="M138.91,113.9s5.79-8.26,11.08-1.63-2.33,28.44-2.33,28.44,1.36-16.85-1.9-22.41S138.91,113.9,138.91,113.9Z"/><path class="cls-48" d="M138.94,113.88s5.78-8.21,11.05-1.61-2.3,28.26-2.3,28.26,1.33-16.72-1.92-22.25S138.94,113.88,138.94,113.88Z"/><path class="cls-49" d="M139,113.86s5.76-8.15,11-1.59-2.26,28.09-2.26,28.09,1.3-16.6-1.93-22.11S139,113.86,139,113.86Z"/><path class="cls-50" d="M139,113.83s5.74-8.09,11-1.56-2.23,27.92-2.23,27.92,1.27-16.49-1.95-22S139,113.83,139,113.83Z"/><path class="cls-51" d="M139.06,113.81s5.72-8,10.91-1.53S147.78,140,147.78,140s1.24-16.37-2-21.83S139.06,113.81,139.06,113.81Z"/><path class="cls-52" d="M139.09,113.79s5.71-8,10.87-1.51-2.15,27.56-2.15,27.56,1.21-16.25-2-21.67S139.09,113.79,139.09,113.79Z"/><path class="cls-53" d="M139.13,113.76s5.69-7.92,10.83-1.48-2.12,27.39-2.12,27.39,1.18-16.13-2-21.53S139.13,113.76,139.13,113.76Z"/><path class="cls-54" d="M139.17,113.74s5.67-7.86,10.78-1.46-2.08,27.22-2.08,27.22,1.14-16-2-21.39S139.17,113.74,139.17,113.74Z"/><path class="cls-55" d="M139.21,113.72s5.65-7.81,10.74-1.44-2,27.05-2,27.05,1.11-15.9-2-21.25S139.21,113.72,139.21,113.72Z"/><path class="cls-56" d="M139.24,113.69s5.64-7.75,10.7-1.41-2,26.87-2,26.87,1.07-15.78-2.05-21.1S139.24,113.69,139.24,113.69Z"/><path class="cls-57" d="M139.28,113.67s5.62-7.69,10.65-1.38S148,139,148,139s1-15.66-2.07-20.95S139.28,113.67,139.28,113.67Z"/><path class="cls-58" d="M139.32,113.64s5.6-7.63,10.61-1.35S148,138.81,148,138.81s1-15.55-2.08-20.81S139.32,113.64,139.32,113.64Z"/><path class="cls-59" d="M139.36,113.62s5.58-7.57,10.56-1.33S148,138.64,148,138.64s1-15.43-2.1-20.67S139.36,113.62,139.36,113.62Z"/><path class="cls-60" d="M139.39,113.6s5.57-7.52,10.53-1.31-1.86,26.17-1.86,26.17.95-15.31-2.11-20.52S139.39,113.6,139.39,113.6Z"/><path class="cls-61" d="M139.43,113.57s5.55-7.46,10.48-1.28-1.82,26-1.82,26S149,123.1,146,117.92,139.43,113.57,139.43,113.57Z"/><path class="cls-62" d="M139.47,113.55s5.53-7.4,10.43-1.26-1.78,25.83-1.78,25.83.88-15.07-2.14-20.23S139.47,113.55,139.47,113.55Z"/><path class="cls-63" d="M139.51,113.53s5.51-7.35,10.39-1.24S148.15,138,148.15,138s.85-15-2.16-20.09S139.51,113.53,139.51,113.53Z"/><path class="cls-64" d="M139.54,113.5s5.5-7.29,10.35-1.2-1.71,25.47-1.71,25.47.82-14.83-2.17-19.94S139.54,113.5,139.54,113.5Z"/><path class="cls-65" d="M139.58,113.48s5.48-7.23,10.31-1.18-1.68,25.3-1.68,25.3.79-14.72-2.19-19.79S139.58,113.48,139.58,113.48Z"/><path class="cls-66" d="M139.62,113.45s5.46-7.17,10.26-1.15-1.63,25.13-1.63,25.13.75-14.6-2.22-19.65S139.62,113.45,139.62,113.45Z"/><path class="cls-67" d="M139.66,113.43s5.44-7.11,10.21-1.13-1.59,25-1.59,25,.72-14.49-2.23-19.51S139.66,113.43,139.66,113.43Z"/><path class="cls-68" d="M139.69,113.41s5.43-7.06,10.18-1.11-1.56,24.78-1.56,24.78.69-14.36-2.25-19.36S139.69,113.41,139.69,113.41Z"/><path class="cls-68" d="M139.73,113.38s5.41-7,10.13-1.08-1.52,24.61-1.52,24.61.66-14.25-2.26-19.21S139.73,113.38,139.73,113.38Z"/><path class="cls-69" d="M139.77,113.36s5.39-6.94,10.09-1-1.49,24.43-1.49,24.43.62-14.13-2.28-19.07S139.77,113.36,139.77,113.36Z"/><path class="cls-70" d="M139.81,113.34s5.37-6.89,10-1-1.45,24.26-1.45,24.26.59-14-2.29-18.93S139.81,113.34,139.81,113.34Z"/><path class="cls-71" d="M139.84,113.31s5.36-6.83,10-1-1.42,24.08-1.42,24.08.56-13.89-2.31-18.78S139.84,113.31,139.84,113.31Z"/><path class="cls-72" d="M139.88,113.29s5.34-6.77,10-1-1.38,23.91-1.38,23.91.53-13.78-2.32-18.64S139.88,113.29,139.88,113.29Z"/><path class="cls-73" d="M139.92,113.27s5.32-6.72,9.91-1-1.34,23.74-1.34,23.74.5-13.66-2.34-18.49S139.92,113.27,139.92,113.27Z"/><path class="cls-74" d="M140,113.24s5.3-6.65,9.87-.93-1.3,23.56-1.3,23.56.46-13.53-2.36-18.34S140,113.24,140,113.24Z"/><path class="cls-75" d="M140,113.22s5.28-6.6,9.83-.9-1.26,23.38-1.26,23.38.43-13.42-2.38-18.2S140,113.22,140,113.22Z"/><path class="cls-76" d="M140,113.19s5.26-6.54,9.79-.87-1.23,23.21-1.23,23.21.4-13.3-2.39-18.06S140,113.19,140,113.19Z"/><path class="cls-77" d="M140.07,113.17s5.24-6.48,9.74-.85-1.19,23-1.19,23,.37-13.19-2.41-17.91S140.07,113.17,140.07,113.17Z"/><path class="cls-78" d="M140.11,113.15s5.22-6.43,9.69-.83-1.15,22.86-1.15,22.86.33-13.06-2.43-17.76S140.11,113.15,140.11,113.15Z"/><path class="cls-79" d="M140.14,113.12s5.21-6.36,9.66-.8S148.68,135,148.68,135s.3-12.95-2.44-17.62S140.14,113.12,140.14,113.12Z"/><path class="cls-80" d="M140.18,113.1s5.19-6.31,9.61-.78-1.08,22.52-1.08,22.52.27-12.83-2.46-17.48S140.18,113.1,140.18,113.1Z"/><path class="cls-81" d="M140.22,113.08s5.17-6.26,9.57-.75-1,22.34-1,22.34.24-12.72-2.47-17.33S140.22,113.08,140.22,113.08Z"/><path class="cls-82" d="M140.26,113.05s5.15-6.19,9.52-.72-1,22.16-1,22.16.21-12.59-2.49-17.18S140.26,113.05,140.26,113.05Z"/><path class="cls-83" d="M140.29,113s5.14-6.14,9.48-.7-1,22-1,22,.18-12.48-2.5-17S140.29,113,140.29,113Z"/><path class="cls-84" d="M140.33,113s5.12-6.09,9.44-.68-.93,21.82-.93,21.82.14-12.36-2.53-16.9S140.33,113,140.33,113Z"/><path class="cls-85" d="M140.37,113s5.1-6,9.39-.65-.89,21.65-.89,21.65.11-12.25-2.54-16.75S140.37,113,140.37,113Z"/><path class="cls-86" d="M140.41,113s5.08-6,9.35-.63-.86,21.47-.86,21.47.07-12.12-2.56-16.6S140.41,113,140.41,113Z"/><path class="cls-87" d="M140.44,112.93s5.07-5.9,9.31-.59-.82,21.29-.82,21.29,0-12-2.57-16.46S140.44,112.93,140.44,112.93Z"/><path class="cls-88" d="M140.48,112.91s5.05-5.85,9.26-.57-.78,21.12-.78,21.12,0-11.89-2.59-16.32S140.48,112.91,140.48,112.91Z"/><path class="cls-89" d="M140.52,112.89s5-5.8,9.22-.55-.75,20.95-.75,20.95,0-11.77-2.6-16.18S140.52,112.89,140.52,112.89Z"/><path class="cls-90" d="M140.56,112.86s5-5.73,9.17-.52-.71,20.77-.71,20.77-.05-11.65-2.62-16S140.56,112.86,140.56,112.86Z"/><path class="cls-91" d="M140.59,112.84s5-5.68,9.14-.5-.68,20.6-.68,20.6-.08-11.53-2.64-15.88S140.59,112.84,140.59,112.84Z"/><path class="cls-92" d="M140.63,112.82s5-5.63,9.09-.48-.64,20.43-.64,20.43S149,121.35,146.43,117,140.63,112.82,140.63,112.82Z"/><path class="cls-93" d="M140.67,112.79s5-5.56,9.05-.45-.6,20.26-.6,20.26-.15-11.3-2.68-15.6S140.67,112.79,140.67,112.79Z"/><path class="cls-94" d="M140.71,112.77s4.94-5.51,9-.42-.56,20.07-.56,20.07S149,121.24,146.46,117,140.71,112.77,140.71,112.77Z"/><path class="cls-95" d="M140.74,112.74s4.93-5.44,9-.39-.52,19.9-.52,19.9-.22-11.06-2.71-15.3S140.74,112.74,140.74,112.74Z"/><path class="cls-96" d="M140.78,112.72s4.91-5.39,8.92-.37-.49,19.73-.49,19.73-.25-11-2.72-15.16S140.78,112.72,140.78,112.72Z"/><path class="cls-97" d="M140.82,112.7s4.89-5.34,8.87-.35-.45,19.55-.45,19.55-.28-10.82-2.74-15S140.82,112.7,140.82,112.7Z"/><path class="cls-98" d="M140.86,112.67s4.87-5.27,8.83-.32-.42,19.38-.42,19.38S149,121,146.52,116.87,140.86,112.67,140.86,112.67Z"/><path class="cls-99" d="M140.89,112.65s4.86-5.22,8.79-.3-.38,19.21-.38,19.21S149,121,146.53,116.84,140.89,112.65,140.89,112.65Z"/><path class="cls-100" d="M140.93,112.63s4.84-5.17,8.74-.27-.34,19-.34,19-.37-10.47-2.78-14.58S140.93,112.63,140.93,112.63Z"/><path class="cls-101" d="M141,112.6s4.82-5.1,8.7-.24-.31,18.85-.31,18.85-.4-10.35-2.8-14.43S141,112.6,141,112.6Z"/><path class="cls-102" d="M141,112.58s4.8-5,8.65-.22-.27,18.68-.27,18.68-.43-10.23-2.81-14.28S141,112.58,141,112.58Z"/><path class="cls-103" d="M141,112.56s4.79-5,8.62-.2-.23,18.51-.23,18.51-.48-10.12-2.84-14.14S141,112.56,141,112.56Z"/><path class="cls-104" d="M141.08,112.53s4.77-4.93,8.57-.17-.19,18.34-.19,18.34-.51-10-2.85-14S141.08,112.53,141.08,112.53Z"/><path class="cls-105" d="M141.12,112.51s4.75-4.88,8.52-.15-.15,18.16-.15,18.16-.54-9.88-2.87-13.85S141.12,112.51,141.12,112.51Z"/><path class="cls-106" d="M141.16,112.48s4.73-4.81,8.48-.11-.12,18-.12,18-.57-9.76-2.89-13.71S141.16,112.48,141.16,112.48Z"/><path class="cls-107" d="M141.19,112.46s4.72-4.76,8.44-.09-.08,17.81-.08,17.81-.6-9.65-2.9-13.56S141.19,112.46,141.19,112.46Z"/><path class="cls-108" d="M141.23,112.44s4.7-4.71,8.4-.07,0,17.64,0,17.64-.63-9.53-2.92-13.42S141.23,112.44,141.23,112.44Z"/><path class="cls-109" d="M141.27,112.41s4.68-4.64,8.35,0,0,17.46,0,17.46-.66-9.41-2.93-13.27S141.27,112.41,141.27,112.41Z"/><path class="cls-110" d="M141.31,112.39s4.66-4.59,8.3,0,0,17.29,0,17.29-.69-9.29-2.95-13.13S141.31,112.39,141.31,112.39Z"/><path class="cls-111" d="M141.34,112.37s4.65-4.53,8.27,0,.06,17.12.06,17.12-.73-9.18-3-13S141.34,112.37,141.34,112.37Z"/><path class="cls-112" d="M141.38,112.34s4.63-4.47,8.22,0,.1,16.94.1,16.94-.76-9.06-3-12.84S141.38,112.34,141.38,112.34Z"/><path class="cls-113" d="M141.42,112.32s4.61-4.42,8.18.06.14,16.76.14,16.76-.8-8.93-3-12.69S141.42,112.32,141.42,112.32Z"/><path class="cls-114" d="M141.46,112.29s4.59-4.35,8.13.09.18,16.59.18,16.59-.83-8.82-3-12.55A8,8,0,0,0,141.46,112.29Z"/><path class="cls-115" d="M141.5,112.27s4.56-4.3,8.08.11.22,16.42.22,16.42-.86-8.7-3-12.4A8.06,8.06,0,0,0,141.5,112.27Z"/><path class="cls-116" d="M141.53,112.25s4.55-4.25,8.05.13.25,16.25.25,16.25-.89-8.59-3.05-12.26A8,8,0,0,0,141.53,112.25Z"/><path class="cls-117" d="M141.57,112.22s4.53-4.18,8,.16.29,16.07.29,16.07-.92-8.46-3.06-12.11A8.14,8.14,0,0,0,141.57,112.22Z"/><path class="cls-118" d="M141.61,112.2s4.51-4.13,8,.19.32,15.89.32,15.89-.95-8.35-3.08-12A8.16,8.16,0,0,0,141.61,112.2Z"/><path class="cls-119" d="M141.65,112.18s4.49-4.07,7.91.21.36,15.72.36,15.72-1-8.23-3.1-11.82A8.19,8.19,0,0,0,141.65,112.18Z"/><path class="cls-120" d="M141.68,112.15s4.48-4,7.88.24.39,15.54.39,15.54-1-8.11-3.11-11.67A8.27,8.27,0,0,0,141.68,112.15Z"/><path class="cls-121" d="M141.72,112.13s4.46-4,7.83.26.43,15.37.43,15.37-1-8-3.13-11.53A8.3,8.3,0,0,0,141.72,112.13Z"/><path class="cls-16" d="M126,141.62c4.14-15.52,7.68-20.67,10.91-20.49,6.17,1.39,6.36,9.13,2.82,20.86,0,0-1.91,16.14-7.65,23.53-12.24,14.07-25.45,12.38-25.45,12.38s-10.14.71-9.2-9.75,10-10.89,10-10.89c7.53,1.45,12.33,2,14.78-2.35S126,141.62,126,141.62Z"/><path class="cls-17" d="M126,141.65c4.14-15.48,7.66-20.62,10.88-20.43,6.15,1.38,6.3,9.11,2.77,20.81,0,0-1.9,16.09-7.62,23.45-12.21,14-25.34,12.37-25.34,12.37s-10.16.71-9.23-9.69,10-10.83,10-10.83c7.51,1.44,12.33,1.92,14.78-2.39S126,141.65,126,141.65Z"/><path class="cls-18" d="M126.06,141.69c4.12-15.44,7.63-20.57,10.84-20.39,6.14,1.38,6.24,9.1,2.72,20.77,0,0-1.88,16-7.59,23.38-12.18,14-25.24,12.34-25.24,12.34s-10.17.72-9.24-9.63,10-10.76,10-10.76c7.49,1.44,12.33,1.88,14.77-2.42S126.06,141.69,126.06,141.69Z"/><path class="cls-19" d="M126.1,141.72c4.11-15.4,7.59-20.52,10.8-20.34,6.12,1.38,6.18,9.08,2.67,20.72,0,0-1.86,16-7.56,23.32-12.15,14-25.13,12.32-25.13,12.32s-10.19.72-9.27-9.57,10-10.7,10-10.7c7.47,1.44,12.33,1.83,14.77-2.45S126.1,141.72,126.1,141.72Z"/><path class="cls-20" d="M126.13,141.76c4.11-15.36,7.57-20.48,10.76-20.29,6.11,1.37,6.13,9.06,2.62,20.67,0,0-1.84,15.93-7.52,23.25-12.12,13.93-25,12.3-25,12.3s-10.21.72-9.29-9.51,10-10.64,10-10.64c7.45,1.43,12.33,1.79,14.76-2.49S126.13,141.76,126.13,141.76Z"/><path class="cls-21" d="M126.17,141.8c4.09-15.33,7.54-20.43,10.72-20.25,6.1,1.37,6.07,9,2.57,20.63,0,0-1.82,15.88-7.49,23.17C119.88,179.25,107,177.64,107,177.64s-10.22.72-9.3-9.46,9.92-10.57,9.92-10.57c7.43,1.43,12.33,1.74,14.76-2.52S126.17,141.8,126.17,141.8Z"/><path class="cls-22" d="M126.21,141.83c4.08-15.28,7.5-20.38,10.68-20.2,6.08,1.37,6,9,2.52,20.58,0,0-1.8,15.83-7.46,23.11-12,13.87-24.82,12.26-24.82,12.26s-10.24.73-9.33-9.39,9.91-10.51,9.91-10.51c7.41,1.42,12.33,1.7,14.75-2.55S126.21,141.83,126.21,141.83Z"/><path class="cls-23" d="M126.24,141.87c4.08-15.25,7.48-20.33,10.65-20.15,6.06,1.36,6,9,2.47,20.53,0,0-1.79,15.78-7.43,23-12,13.83-24.72,12.24-24.72,12.24s-10.26.73-9.35-9.33,9.89-10.45,9.89-10.45c7.4,1.42,12.34,1.66,14.75-2.59S126.24,141.87,126.24,141.87Z"/><path class="cls-24" d="M126.28,141.91c4.06-15.22,7.45-20.29,10.61-20.11,6.05,1.36,5.88,9,2.41,20.49,0,0-1.76,15.72-7.39,23-12,13.8-24.61,12.23-24.61,12.23s-10.28.73-9.37-9.27,9.86-10.39,9.86-10.39c7.38,1.41,12.34,1.61,14.75-2.62S126.28,141.91,126.28,141.91Z"/><path class="cls-25" d="M126.31,141.94c4.06-15.17,7.42-20.24,10.58-20.06,6,1.36,5.82,9,2.36,20.45,0,0-1.74,15.67-7.36,22.89-12,13.76-24.51,12.2-24.51,12.2s-10.29.74-9.39-9.21,9.85-10.32,9.85-10.32c7.36,1.41,12.34,1.57,14.74-2.65S126.31,141.94,126.31,141.94Z"/><path class="cls-26" d="M126.35,142c4.05-15.14,7.39-20.19,10.54-20,6,1.35,5.76,8.95,2.31,20.39,0,0-1.73,15.62-7.33,22.83-11.93,13.73-24.41,12.18-24.41,12.18s-10.3.74-9.41-9.15S107.88,158,107.88,158c7.34,1.41,12.34,1.52,14.74-2.69S126.35,142,126.35,142Z"/><path class="cls-27" d="M126.39,142c4-15.1,7.36-20.15,10.5-20,6,1.35,5.7,8.94,2.26,20.35,0,0-1.71,15.57-7.3,22.75-11.9,13.7-24.3,12.17-24.3,12.17s-10.33.74-9.43-9.09,9.81-10.2,9.81-10.2c7.32,1.4,12.34,1.48,14.73-2.72S126.39,142,126.39,142Z"/><path class="cls-28" d="M126.42,142.05c4-15.06,7.33-20.09,10.47-19.91,6,1.34,5.64,8.91,2.2,20.3,0,0-1.68,15.51-7.26,22.68-11.87,13.66-24.2,12.15-24.2,12.15s-10.34.74-9.45-9S108,158.09,108,158.09c7.31,1.41,12.34,1.45,14.73-2.74S126.42,142.05,126.42,142.05Z"/><path class="cls-29" d="M126.46,142.09c4-15,7.3-20,10.43-19.87,6,1.34,5.58,8.9,2.15,20.25,0,0-1.67,15.47-7.22,22.62-11.85,13.62-24.1,12.12-24.1,12.12s-10.36.75-9.48-9S108,158.16,108,158.16c7.28,1.4,12.34,1.4,14.72-2.78S126.46,142.09,126.46,142.09Z"/><path class="cls-30" d="M126.5,142.12c4-15,7.27-20,10.38-19.82,6,1.34,5.53,8.89,2.11,20.21,0,0-1.65,15.41-7.19,22.55-11.82,13.59-24,12.1-24,12.1s-10.37.75-9.49-8.91,9.75-10,9.75-10c7.27,1.4,12.34,1.36,14.72-2.81S126.5,142.12,126.5,142.12Z"/><path class="cls-31" d="M126.53,142.16c4-14.94,7.25-20,10.35-19.77,6,1.33,5.47,8.86,2.06,20.16,0,0-1.63,15.36-7.16,22.47-11.79,13.56-23.9,12.09-23.9,12.09s-10.39.75-9.51-8.85a10.34,10.34,0,0,1,9.73-10c7.25,1.39,12.35,1.31,14.72-2.84S126.53,142.16,126.53,142.16Z"/><path class="cls-32" d="M126.57,142.2c4-14.91,7.21-19.91,10.31-19.73,5.93,1.33,5.41,8.85,2,20.11,0,0-1.61,15.32-7.12,22.41C120,178.51,108,177.06,108,177.06s-10.41.75-9.54-8.79a10.31,10.31,0,0,1,9.72-9.9c7.23,1.39,12.35,1.27,14.71-2.88S126.57,142.2,126.57,142.2Z"/><path class="cls-33" d="M126.61,142.23c4-14.87,7.18-19.85,10.27-19.68,5.91,1.33,5.34,8.83,2,20.07,0,0-1.59,15.26-7.09,22.34-11.73,13.48-23.69,12-23.69,12s-10.42.77-9.55-8.73a10.25,10.25,0,0,1,9.69-9.83c7.22,1.39,12.35,1.23,14.71-2.91S126.61,142.23,126.61,142.23Z"/><path class="cls-34" d="M126.64,142.27c4-14.83,7.16-19.81,10.24-19.63,5.9,1.32,5.28,8.81,1.9,20,0,0-1.58,15.21-7.06,22.26-11.7,13.46-23.58,12-23.58,12s-10.45.77-9.58-8.67a10.21,10.21,0,0,1,9.68-9.77c7.19,1.38,12.35,1.18,14.7-2.94S126.64,142.27,126.64,142.27Z"/><path class="cls-35" d="M126.68,142.31c3.95-14.8,7.12-19.76,10.2-19.59,5.88,1.32,5.22,8.79,1.85,20,0,0-1.56,15.15-7,22.19-11.67,13.42-23.48,12-23.48,12s-10.46.77-9.6-8.61a10.17,10.17,0,0,1,9.66-9.71c7.18,1.38,12.35,1.14,14.7-3S126.68,142.31,126.68,142.31Z"/><path class="cls-36" d="M126.72,142.34c3.94-14.75,7.09-19.71,10.16-19.54,5.87,1.32,5.16,8.78,1.79,19.93,0,0-1.53,15.11-7,22.13-11.64,13.38-23.38,12-23.38,12s-10.47.78-9.61-8.55a10.12,10.12,0,0,1,9.64-9.64c7.15,1.37,12.35,1.09,14.68-3S126.72,142.34,126.72,142.34Z"/><path class="cls-37" d="M126.75,142.38c3.93-14.72,7.07-19.67,10.13-19.49,5.85,1.31,5.1,8.76,1.74,19.88,0,0-1.52,15-7,22.06-11.61,13.34-23.27,12-23.27,12s-10.49.78-9.64-8.49,9.62-9.58,9.62-9.58c7.14,1.37,12.35,1.05,14.68-3S126.75,142.38,126.75,142.38Z"/><path class="cls-38" d="M126.79,142.41c3.92-14.67,7-19.61,10.09-19.44,5.83,1.31,5,8.74,1.69,19.84,0,0-1.5,15-6.93,22-11.58,13.32-23.17,12-23.17,12s-10.51.78-9.66-8.43,9.61-9.52,9.61-9.52c7.11,1.36,12.35,1,14.67-3.08S126.79,142.41,126.79,142.41Z"/><path class="cls-39" d="M126.82,142.45c3.92-14.64,7-19.57,10.06-19.39,5.82,1.3,5,8.72,1.64,19.78,0,0-1.48,14.95-6.9,21.92-11.54,13.28-23.06,11.93-23.06,11.93s-10.53.78-9.68-8.37,9.58-9.46,9.58-9.46c7.1,1.36,12.35,1,14.67-3.11S126.82,142.45,126.82,142.45Z"/><path class="cls-40" d="M126.86,142.49c3.9-14.6,7-19.52,10-19.35,5.81,1.3,4.93,8.7,1.59,19.74,0,0-1.46,14.9-6.86,21.85-11.51,13.24-23,11.9-23,11.9s-10.54.79-9.7-8.31,9.56-9.39,9.56-9.39c7.09,1.36,12.36.92,14.67-3.14S126.86,142.49,126.86,142.49Z"/><path class="cls-41" d="M126.9,142.52c3.89-14.56,6.94-19.47,10-19.3,5.79,1.3,4.86,8.69,1.54,19.7,0,0-1.44,14.84-6.83,21.77-11.48,13.21-22.86,11.89-22.86,11.89s-10.55.79-9.72-8.25,9.55-9.33,9.55-9.33c7.06,1.35,12.36.87,14.66-3.18S126.9,142.52,126.9,142.52Z"/><path class="cls-42" d="M126.93,142.56c3.89-14.53,6.92-19.43,9.94-19.25,5.78,1.29,4.8,8.66,1.49,19.64,0,0-1.42,14.8-6.8,21.71-11.45,13.18-22.75,11.87-22.75,11.87s-10.58.79-9.74-8.19,9.52-9.28,9.52-9.28c7,1.36,12.36.84,14.66-3.2S126.93,142.56,126.93,142.56Z"/><path class="cls-43" d="M127,142.6c3.87-14.49,6.89-19.38,9.9-19.21,5.76,1.29,4.74,8.65,1.44,19.6,0,0-1.41,14.74-6.77,21.64-11.42,13.14-22.65,11.85-22.65,11.85s-10.59.79-9.76-8.13,9.51-9.22,9.51-9.22c7,1.35,12.36.8,14.65-3.23S127,142.6,127,142.6Z"/><path class="cls-44" d="M127,142.63c3.86-14.45,6.86-19.33,9.86-19.16,5.75,1.29,4.68,8.64,1.38,19.56,0,0-1.38,14.69-6.73,21.56C120.13,177.7,109,176.42,109,176.42s-10.61.8-9.79-8.07,9.49-9.15,9.49-9.15c7,1.35,12.36.75,14.65-3.27S127,142.63,127,142.63Z"/><path class="cls-45" d="M127,142.67c3.85-14.41,6.83-19.28,9.83-19.11,5.73,1.28,4.62,8.61,1.33,19.51,0,0-1.36,14.63-6.7,21.49-11.36,13.07-22.44,11.81-22.44,11.81s-10.63.8-9.81-8,9.48-9.09,9.48-9.09c7,1.34,12.36.71,14.64-3.3S127,142.67,127,142.67Z"/><path class="cls-46" d="M127.08,142.71c3.84-14.38,6.8-19.24,9.79-19.07,5.71,1.28,4.56,8.6,1.28,19.46,0,0-1.35,14.59-6.66,21.43-11.34,13-22.35,11.79-22.35,11.79s-10.64.8-9.82-7.95,9.45-9,9.45-9c7,1.34,12.36.67,14.64-3.33S127.08,142.71,127.08,142.71Z"/><path class="cls-47" d="M127.12,142.74c3.83-14.33,6.77-19.19,9.75-19,5.7,1.28,4.5,8.58,1.23,19.42,0,0-1.33,14.53-6.63,21.36-11.31,13-22.24,11.76-22.24,11.76s-10.66.81-9.85-7.88c.83-8.84,9.43-9,9.43-9,7,1.34,12.37.62,14.64-3.37S127.12,142.74,127.12,142.74Z"/><path class="cls-48" d="M127.15,142.78c3.82-14.3,6.74-19.14,9.72-19,5.68,1.27,4.44,8.56,1.17,19.37,0,0-1.3,14.48-6.59,21.28-11.28,13-22.14,11.75-22.14,11.75s-10.67.81-9.87-7.83,9.42-8.9,9.42-8.9c6.93,1.33,12.37.58,14.63-3.4S127.15,142.78,127.15,142.78Z"/><path class="cls-49" d="M127.19,142.81c3.81-14.25,6.71-19.09,9.68-18.92,5.67,1.27,4.37,8.55,1.12,19.32,0,0-1.29,14.43-6.56,21.22-11.25,12.93-22,11.73-22,11.73s-10.69.81-9.88-7.77c.82-8.74,9.39-8.84,9.39-8.84,6.92,1.33,12.37.53,14.63-3.43S127.19,142.81,127.19,142.81Z"/><path class="cls-50" d="M127.23,142.85c3.8-14.22,6.68-19,9.63-18.87,5.66,1.26,4.32,8.52,1.08,19.27,0,0-1.27,14.38-6.53,21.15-11.22,12.9-21.93,11.71-21.93,11.71s-10.71.81-9.91-7.71c.82-8.69,9.38-8.78,9.38-8.78,6.9,1.32,12.37.49,14.62-3.47S127.23,142.85,127.23,142.85Z"/><path class="cls-51" d="M127.26,142.89c3.79-14.19,6.65-19,9.6-18.83,5.64,1.26,4.26,8.51,1,19.23,0,0-1.25,14.32-6.5,21.07-11.19,12.87-21.83,11.69-21.83,11.69s-10.72.82-9.93-7.65c.82-8.63,9.36-8.71,9.36-8.71,6.88,1.32,12.37.45,14.62-3.5S127.26,142.89,127.26,142.89Z"/><path class="cls-52" d="M127.3,142.92c3.78-14.14,6.62-18.94,9.56-18.78,5.63,1.26,4.2,8.49,1,19.18,0,0-1.23,14.28-6.46,21C120.21,177.16,109.65,176,109.65,176s-10.75.82-10-7.59c.81-8.58,9.34-8.65,9.34-8.65,6.86,1.31,12.37.4,14.61-3.53S127.3,142.92,127.3,142.92Z"/><path class="cls-53" d="M127.34,143c3.76-14.11,6.59-18.9,9.52-18.73,5.61,1.25,4.14,8.47.92,19.13,0,0-1.21,14.22-6.43,20.94C120.22,177.09,109.73,176,109.73,176s-10.76.82-10-7.53c.81-8.53,9.32-8.59,9.32-8.59,6.84,1.31,12.37.36,14.61-3.57S127.34,143,127.34,143Z"/><path class="cls-54" d="M127.37,143c3.76-14.07,6.56-18.86,9.49-18.69,5.59,1.26,4.08,8.45.87,19.09,0,0-1.2,14.17-6.4,20.87-11.1,12.76-21.52,11.63-21.52,11.63s-10.77.82-10-7.47c.81-8.48,9.31-8.53,9.31-8.53,6.82,1.31,12.37.31,14.6-3.6S127.37,143,127.37,143Z"/><path class="cls-55" d="M127.41,143c3.75-14,6.53-18.8,9.45-18.64,5.58,1.26,4,8.44.82,19,0,0-1.18,14.11-6.37,20.79C120.25,177,109.9,175.84,109.9,175.84s-10.79.83-10-7.41c.8-8.42,9.28-8.47,9.28-8.47,6.8,1.31,12.37.28,14.6-3.62S127.41,143,127.41,143Z"/><path class="cls-56" d="M127.44,143.07c3.74-14,6.51-18.76,9.42-18.59,5.56,1.25,4,8.42.76,19,0,0-1.15,14.07-6.33,20.73-11,12.69-21.31,11.59-21.31,11.59s-10.81.83-10-7.35c.8-8.37,9.26-8.41,9.26-8.41,6.79,1.31,12.38.24,14.6-3.66S127.44,143.07,127.44,143.07Z"/><path class="cls-57" d="M127.48,143.11c3.73-14,6.48-18.71,9.38-18.55,5.55,1.25,3.9,8.4.71,18.95,0,0-1.14,14-6.3,20.66-11,12.65-21.2,11.57-21.2,11.57s-10.83.83-10.06-7.29c.8-8.32,9.25-8.35,9.25-8.35,6.77,1.3,12.38.19,14.59-3.69S127.48,143.11,127.48,143.11Z"/><path class="cls-58" d="M127.52,143.14c3.72-13.91,6.44-18.66,9.34-18.5,5.53,1.25,3.83,8.39.66,18.91,0,0-1.12,14-6.27,20.58-11,12.63-21.1,11.55-21.1,11.55s-10.84.84-10.07-7.22c.79-8.27,9.22-8.29,9.22-8.29,6.75,1.3,12.38.15,14.58-3.72S127.52,143.14,127.52,143.14Z"/><path class="cls-59" d="M127.55,143.18c3.71-13.88,6.42-18.62,9.31-18.45,5.51,1.24,3.77,8.36.61,18.85,0,0-1.1,13.92-6.24,20.52-10.94,12.59-21,11.53-21,11.53s-10.85.84-10.09-7.17c.79-8.21,9.21-8.22,9.21-8.22,6.73,1.29,12.38.1,14.57-3.76S127.55,143.18,127.55,143.18Z"/><path class="cls-60" d="M127.59,143.21c3.7-13.84,6.39-18.56,9.26-18.4,5.51,1.24,3.72,8.35.56,18.81,0,0-1.08,13.86-6.2,20.45-10.91,12.55-20.89,11.51-20.89,11.51s-10.88.84-10.12-7.11c.79-8.16,9.19-8.16,9.19-8.16,6.71,1.29,12.38.06,14.57-3.79S127.59,143.21,127.59,143.21Z"/><path class="cls-61" d="M127.63,143.25c3.68-13.8,6.35-18.52,9.22-18.35,5.49,1.23,3.66,8.33.51,18.76,0,0-1.06,13.81-6.17,20.37-10.88,12.52-20.79,11.5-20.79,11.5s-10.89.84-10.13-7.05c.78-8.11,9.17-8.1,9.17-8.1,6.69,1.29,12.38,0,14.56-3.82S127.63,143.25,127.63,143.25Z"/><path class="cls-62" d="M127.66,143.29c3.68-13.77,6.33-18.47,9.19-18.31,5.48,1.23,3.6,8.31.46,18.71,0,0-1,13.76-6.14,20.31-10.85,12.49-20.68,11.47-20.68,11.47s-10.91.85-10.16-7c.78-8.06,9.15-8,9.15-8,6.68,1.28,12.38,0,14.56-3.86S127.66,143.29,127.66,143.29Z"/><path class="cls-63" d="M127.7,143.32c3.67-13.72,6.3-18.42,9.15-18.26,5.46,1.23,3.54,8.3.41,18.67,0,0-1,13.71-6.11,20.24-10.82,12.45-20.58,11.45-20.58,11.45s-10.93.85-10.18-6.93c.78-8,9.13-8,9.13-8,6.66,1.28,12.39-.07,14.56-3.89S127.7,143.32,127.7,143.32Z"/><path class="cls-64" d="M127.74,143.36c3.65-13.69,6.26-18.38,9.11-18.21,5.44,1.22,3.48,8.27.35,18.62,0,0-1,13.65-6.06,20.17-10.8,12.41-20.49,11.43-20.49,11.43s-10.94.85-10.19-6.87c.77-7.95,9.11-7.91,9.11-7.91,6.64,1.27,12.38-.12,14.55-3.92S127.74,143.36,127.74,143.36Z"/><path class="cls-65" d="M127.77,143.4c3.65-13.65,6.24-18.33,9.08-18.17,5.43,1.22,3.42,8.26.3,18.58,0,0-1,13.6-6,20.09-10.77,12.38-20.38,11.41-20.38,11.41s-11,.86-10.22-6.8c.77-7.9,9.09-7.85,9.09-7.85,6.62,1.27,12.39-.16,14.55-4S127.77,143.4,127.77,143.4Z"/><path class="cls-66" d="M127.81,143.43c3.64-13.61,6.21-18.28,9-18.12,5.41,1.22,3.35,8.24.25,18.53,0,0-1,13.55-6,20-10.74,12.35-20.28,11.39-20.28,11.39s-11,.86-10.24-6.75c.77-7.84,9.08-7.78,9.08-7.78,6.6,1.26,12.39-.2,14.54-4S127.81,143.43,127.81,143.43Z"/><path class="cls-67" d="M127.85,143.47c3.62-13.58,6.18-18.23,9-18.07,5.39,1.21,3.29,8.22.2,18.48,0,0-1,13.5-6,20-10.71,12.31-20.17,11.37-20.17,11.37s-11,.86-10.26-6.69c.76-7.79,9-7.72,9-7.72,6.59,1.26,12.39-.25,14.54-4S127.85,143.47,127.85,143.47Z"/><path class="cls-68" d="M127.88,143.5c3.62-13.53,6.15-18.18,9-18,5.38,1.21,3.23,8.21.14,18.44,0,0-.92,13.44-5.93,19.88C120.38,176.08,111,175.16,111,175.16s-11,.86-10.28-6.63c.76-7.74,9-7.67,9-7.67,6.56,1.27,12.39-.28,14.53-4.05S127.88,143.5,127.88,143.5Z"/><path class="cls-68" d="M127.92,143.54c3.6-13.5,6.12-18.14,8.93-18,5.36,1.21,3.17,8.19.09,18.39,0,0-.91,13.4-5.9,19.82-10.65,12.24-20,11.33-20,11.33s-11,.87-10.3-6.56c.76-7.69,9-7.61,9-7.61,6.55,1.26,12.39-.33,14.53-4.08S127.92,143.54,127.92,143.54Z"/><path class="cls-69" d="M128,143.58c3.6-13.46,6.1-18.09,8.89-17.93,5.36,1.2,3.12,8.17,0,18.34,0,0-.89,13.34-5.87,19.75-10.62,12.21-19.86,11.31-19.86,11.31s-11,.87-10.32-6.51c.75-7.63,9-7.54,9-7.54,6.53,1.26,12.4-.37,14.53-4.11S128,143.58,128,143.58Z"/><path class="cls-70" d="M128,143.61c3.59-13.42,6.06-18,8.85-17.88,5.34,1.2,3.06,8.15,0,18.3,0,0-.88,13.29-5.84,19.68C120.42,175.88,111.24,175,111.24,175s-11.06.87-10.34-6.45c.75-7.58,9-7.48,9-7.48,6.51,1.25,12.39-.41,14.52-4.15S128,143.61,128,143.61Z"/><path class="cls-71" d="M128,143.65c3.57-13.38,6-18,8.81-17.83,5.32,1.19,3,8.13-.06,18.24,0,0-.85,13.24-5.8,19.61C120.43,175.81,111.33,175,111.33,175s-11.08.87-10.37-6.39c.75-7.53,9-7.42,9-7.42,6.49,1.25,12.4-.46,14.52-4.18S128,143.65,128,143.65Z"/><path class="cls-72" d="M128.06,143.69c3.57-13.35,6-18,8.78-17.79,5.31,1.19,2.94,8.11-.11,18.2,0,0-.83,13.19-5.77,19.54-10.52,12.1-19.55,11.25-19.55,11.25s-11.09.88-10.38-6.32c.74-7.48,8.94-7.36,8.94-7.36,6.47,1.24,12.39-.5,14.51-4.21S128.06,143.69,128.06,143.69Z"/><path class="cls-73" d="M128.1,143.72c3.56-13.3,6-17.9,8.74-17.74,5.29,1.19,2.87,8.1-.16,18.16,0,0-.82,13.13-5.74,19.47-10.49,12.07-19.45,11.23-19.45,11.23s-11.11.88-10.4-6.27c.74-7.42,8.92-7.29,8.92-7.29,6.46,1.24,12.4-.55,14.51-4.25S128.1,143.72,128.1,143.72Z"/><path class="cls-74" d="M128.14,143.76c3.54-13.27,5.94-17.85,8.7-17.69,5.28,1.18,2.81,8.08-.21,18.11,0,0-.8,13.08-5.71,19.39-10.46,12-19.34,11.22-19.34,11.22s-11.13.88-10.43-6.21c.74-7.37,8.91-7.23,8.91-7.23,6.43,1.24,12.4-.59,14.5-4.28S128.14,143.76,128.14,143.76Z"/><path class="cls-75" d="M128.17,143.8c3.54-13.24,5.92-17.81,8.67-17.65,5.26,1.18,2.75,8.06-.27,18.06,0,0-.77,13-5.67,19.33-10.43,12-19.24,11.19-19.24,11.19s-11.14.89-10.44-6.14c.73-7.32,8.88-7.17,8.88-7.17,6.42,1.23,12.4-.63,14.5-4.31S128.17,143.8,128.17,143.8Z"/><path class="cls-76" d="M128.21,143.83c3.52-13.19,5.88-17.75,8.63-17.6,5.24,1.18,2.69,8-.32,18,0,0-.76,13-5.64,19.26-10.4,12-19.13,11.17-19.13,11.17s-11.16.89-10.47-6.08c.73-7.27,8.87-7.11,8.87-7.11,6.39,1.23,12.4-.68,14.49-4.35S128.21,143.83,128.21,143.83Z"/><path class="cls-77" d="M128.25,143.87c3.51-13.16,5.85-17.71,8.59-17.55,5.23,1.17,2.63,8-.37,18,0,0-.74,12.92-5.61,19.18-10.37,11.94-19,11.16-19,11.16s-11.18.89-10.49-6c.73-7.21,8.85-7,8.85-7,6.38,1.22,12.4-.72,14.49-4.38S128.25,143.87,128.25,143.87Z"/><path class="cls-78" d="M128.28,143.9c3.51-13.11,5.83-17.65,8.56-17.5,5.21,1.17,2.57,8-.42,17.92,0,0-.72,12.88-5.58,19.12-10.34,11.9-18.93,11.14-18.93,11.14s-11.19.89-10.5-6c.72-7.16,8.82-7,8.82-7,6.37,1.22,12.41-.76,14.49-4.41S128.28,143.9,128.28,143.9Z"/><path class="cls-79" d="M128.32,143.94c3.49-13.08,5.8-17.61,8.51-17.46,5.21,1.17,2.52,8-.47,17.88,0,0-.7,12.82-5.54,19C120.51,175.27,112,174.52,112,174.52s-11.21.9-10.53-5.9c.72-7.11,8.81-6.92,8.81-6.92,6.34,1.21,12.4-.81,14.48-4.45S128.32,143.94,128.32,143.94Z"/><path class="cls-80" d="M128.36,144c3.48-13,5.76-17.57,8.47-17.41,5.19,1.16,2.46,8-.52,17.83,0,0-.68,12.77-5.5,19-10.29,11.82-18.73,11.09-18.73,11.09s-11.23.9-10.55-5.85c.72-7.05,8.79-6.85,8.79-6.85,6.33,1.21,12.41-.85,14.47-4.48S128.36,144,128.36,144Z"/><path class="cls-81" d="M128.39,144c3.48-13,5.74-17.51,8.44-17.36,5.17,1.16,2.4,8-.57,17.79,0,0-.66,12.71-5.47,18.9-10.26,11.8-18.62,11.08-18.62,11.08s-11.25.9-10.57-5.79c.71-7,8.77-6.8,8.77-6.8,6.3,1.22,12.4-.89,14.46-4.5S128.39,144,128.39,144Z"/><path class="cls-82" d="M128.43,144.05c3.46-13,5.71-17.47,8.4-17.31,5.16,1.15,2.33,7.93-.62,17.73,0,0-.65,12.67-5.44,18.84-10.23,11.76-18.52,11.06-18.52,11.06s-11.26.9-10.59-5.73c.71-6.95,8.75-6.74,8.75-6.74,6.29,1.21,12.41-.93,14.46-4.54S128.43,144.05,128.43,144.05Z"/><path class="cls-83" d="M128.46,144.09c3.46-12.93,5.68-17.42,8.37-17.27,5.14,1.15,2.27,7.92-.68,17.69,0,0-.62,12.61-5.4,18.77-10.2,11.72-18.42,11-18.42,11s-11.27.91-10.61-5.66c.71-6.9,8.74-6.68,8.74-6.68,6.27,1.21,12.41-1,14.45-4.57S128.46,144.09,128.46,144.09Z"/><path class="cls-84" d="M128.5,144.12c3.45-12.89,5.65-17.37,8.33-17.22,5.12,1.15,2.21,7.9-.73,17.65,0,0-.6,12.56-5.37,18.69-10.17,11.69-18.31,11-18.31,11s-11.3.91-10.63-5.61c.7-6.85,8.71-6.61,8.71-6.61,6.25,1.2,12.41-1,14.45-4.6S128.5,144.12,128.5,144.12Z"/><path class="cls-85" d="M128.54,144.16c3.43-12.85,5.62-17.33,8.29-17.17,5.11,1.14,2.15,7.88-.78,17.59,0,0-.59,12.52-5.34,18.63-10.14,11.66-18.21,11-18.21,11s-11.31.91-10.65-5.55c.7-6.8,8.69-6.55,8.69-6.55,6.24,1.2,12.42-1.06,14.45-4.64S128.54,144.16,128.54,144.16Z"/><path class="cls-86" d="M128.57,144.2c3.43-12.82,5.59-17.28,8.26-17.13,5.09,1.14,2.09,7.87-.83,17.55,0,0-.57,12.46-5.31,18.56-10.1,11.62-18.1,11-18.1,11s-11.33.92-10.68-5.48c.7-6.75,8.68-6.49,8.68-6.49,6.21,1.19,12.41-1.11,14.44-4.67S128.57,144.2,128.57,144.2Z"/><path class="cls-87" d="M128.61,144.23c3.41-12.77,5.56-17.23,8.22-17.08,5.08,1.14,2,7.85-.89,17.51,0,0-.54,12.41-5.27,18.49-10.07,11.58-18,10.95-18,10.95s-11.34.92-10.69-5.42c.69-6.7,8.65-6.43,8.65-6.43,6.2,1.19,12.42-1.15,14.44-4.7S128.61,144.23,128.61,144.23Z"/><path class="cls-88" d="M128.65,144.27c3.4-12.74,5.53-17.18,8.18-17,5.06,1.13,2,7.83-.94,17.45,0,0-.53,12.36-5.24,18.42-10,11.55-17.9,10.94-17.9,10.94s-11.36.92-10.71-5.37c.69-6.64,8.64-6.36,8.64-6.36,6.17,1.19,12.41-1.19,14.43-4.74S128.65,144.27,128.65,144.27Z"/><path class="cls-89" d="M128.68,144.3c3.4-12.69,5.5-17.13,8.14-17,5.05,1.13,1.92,7.81-1,17.41,0,0-.51,12.31-5.21,18.35-10,11.52-17.79,10.92-17.79,10.92s-11.38.92-10.74-5.31c.69-6.59,8.62-6.3,8.62-6.3,6.16,1.18,12.42-1.24,14.43-4.77S128.68,144.3,128.68,144.3Z"/><path class="cls-90" d="M128.72,144.34c3.38-12.66,5.47-17.09,8.1-16.94,5,1.13,1.85,7.8-1,17.37,0,0-.5,12.25-5.18,18.28-10,11.48-17.69,10.89-17.69,10.89s-11.39.93-10.75-5.24c.68-6.54,8.6-6.24,8.6-6.24,6.14,1.18,12.42-1.28,14.42-4.8S128.72,144.34,128.72,144.34Z"/><path class="cls-91" d="M128.76,144.38c3.37-12.62,5.44-17,8.06-16.89,5,1.12,1.79,7.78-1.09,17.32,0,0-.47,12.2-5.14,18.2-10,11.45-17.58,10.88-17.58,10.88s-11.42.93-10.78-5.18c.68-6.49,8.58-6.18,8.58-6.18,6.12,1.17,12.42-1.33,14.42-4.84S128.76,144.38,128.76,144.38Z"/><path class="cls-92" d="M128.79,144.41c3.37-12.58,5.42-17,8-16.84,5,1.12,1.73,7.76-1.14,17.27,0,0-.45,12.15-5.11,18.14-9.92,11.41-17.48,10.86-17.48,10.86s-11.43.93-10.8-5.13c.68-6.43,8.57-6.11,8.57-6.11,6.1,1.17,12.42-1.37,14.41-4.87S128.79,144.41,128.79,144.41Z"/><path class="cls-93" d="M128.83,144.45c3.35-12.55,5.38-16.94,8-16.79,5,1.11,1.67,7.74-1.19,17.22,0,0-.44,12.1-5.08,18.07-9.89,11.38-17.38,10.84-17.38,10.84s-11.44.93-10.81-5.07c.66-6.38,8.54-6.05,8.54-6.05,6.08,1.16,12.42-1.41,14.41-4.9S128.83,144.45,128.83,144.45Z"/><path class="cls-94" d="M128.87,144.49c3.34-12.51,5.35-16.9,7.95-16.75,5,1.11,1.61,7.72-1.24,17.18,0,0-.42,12-5.05,18-9.86,11.35-17.27,10.82-17.27,10.82s-11.46.94-10.84-5c.66-6.33,8.52-6,8.52-6,6.07,1.17,12.43-1.45,14.41-4.93S128.87,144.49,128.87,144.49Z"/><path class="cls-95" d="M128.9,144.52c3.33-12.47,5.33-16.85,7.92-16.7,5,1.11,1.55,7.71-1.3,17.13,0,0-.39,12-5,17.93-9.83,11.31-17.17,10.8-17.17,10.8s-11.48.94-10.86-5c.66-6.27,8.51-5.93,8.51-5.93,6.05,1.17,12.42-1.49,14.4-5S128.9,144.52,128.9,144.52Z"/><path class="cls-96" d="M128.94,144.56c3.32-12.43,5.29-16.8,7.88-16.65,4.94,1.11,1.49,7.68-1.35,17.08,0,0-.38,11.94-5,17.86-9.8,11.27-17.06,10.78-17.06,10.78s-11.5.94-10.89-4.89c.66-6.22,8.49-5.87,8.49-5.87,6,1.16,12.43-1.54,14.4-5S128.94,144.56,128.94,144.56Z"/><path class="cls-97" d="M129,144.59c3.31-12.39,5.26-16.75,7.84-16.6,4.92,1.11,1.43,7.67-1.4,17,0,0-.36,11.89-4.95,17.79-9.77,11.24-17,10.75-17,10.75s-11.51,1-10.9-4.82c.65-6.17,8.47-5.81,8.47-5.81,6,1.16,12.42-1.58,14.39-5S129,144.59,129,144.59Z"/><path class="cls-98" d="M129,144.63c3.3-12.35,5.24-16.7,7.81-16.56,4.91,1.11,1.36,7.66-1.45,17,0,0-.34,11.84-4.91,17.72-9.75,11.21-16.87,10.74-16.87,10.74s-11.52.95-10.92-4.76c.65-6.12,8.45-5.75,8.45-5.75,6,1.15,12.43-1.62,14.39-5.06S129,144.63,129,144.63Z"/><path class="cls-99" d="M129.05,144.67c3.29-12.32,5.2-16.66,7.77-16.51,4.89,1.1,1.3,7.63-1.51,16.94,0,0-.32,11.79-4.87,17.65-9.72,11.17-16.76,10.72-16.76,10.72s-11.55.95-11-4.71c.65-6.06,8.44-5.68,8.44-5.68,6,1.15,12.43-1.67,14.38-5.09S129.05,144.67,129.05,144.67Z"/><path class="cls-100" d="M129.08,144.7c3.29-12.27,5.18-16.6,7.73-16.46,4.89,1.1,1.25,7.62-1.55,16.9,0,0-.3,11.73-4.84,17.58-9.69,11.13-16.66,10.7-16.66,10.7s-11.56,1-11-4.65c.64-6,8.41-5.62,8.41-5.62,6,1.14,12.43-1.71,14.38-5.13S129.08,144.7,129.08,144.7Z"/><path class="cls-101" d="M129.12,144.74c3.27-12.24,5.15-16.56,7.69-16.42,4.87,1.1,1.19,7.6-1.6,16.86,0,0-.28,11.68-4.81,17.5-9.66,11.11-16.55,10.68-16.55,10.68s-11.58,1-11-4.58c.64-6,8.39-5.56,8.39-5.56,5.94,1.14,12.44-1.76,14.38-5.16S129.12,144.74,129.12,144.74Z"/><path class="cls-102" d="M129.16,144.78c3.26-12.21,5.11-16.52,7.65-16.37,4.85,1.09,1.13,7.58-1.65,16.8,0,0-.27,11.63-4.78,17.44-9.63,11.07-16.45,10.66-16.45,10.66s-11.6,1-11-4.52c.64-5.91,8.38-5.5,8.38-5.5,5.92,1.13,12.43-1.8,14.36-5.19S129.16,144.78,129.16,144.78Z"/><path class="cls-103" d="M129.19,144.81c3.25-12.16,5.09-16.46,7.62-16.32,4.84,1.09,1.07,7.57-1.71,16.76,0,0-.24,11.58-4.74,17.37-9.59,11-16.35,10.64-16.35,10.64s-11.61,1-11-4.47c.63-5.85,8.35-5.43,8.35-5.43,5.9,1.13,12.44-1.84,14.36-5.23S129.19,144.81,129.19,144.81Z"/><path class="cls-104" d="M129.23,144.85c3.24-12.13,5.06-16.42,7.58-16.27,4.82,1.08,1,7.54-1.76,16.71,0,0-.22,11.52-4.71,17.3-9.56,11-16.24,10.62-16.24,10.62s-11.63,1-11-4.41c.63-5.8,8.34-5.37,8.34-5.37,5.88,1.13,12.43-1.89,14.35-5.26S129.23,144.85,129.23,144.85Z"/><path class="cls-105" d="M129.27,144.89c3.23-12.09,5-16.37,7.54-16.23,4.81,1.08.95,7.53-1.81,16.66,0,0-.21,11.48-4.68,17.23-9.53,11-16.14,10.6-16.14,10.6s-11.64,1-11.07-4.34c.63-5.75,8.32-5.31,8.32-5.31,5.86,1.12,12.44-1.93,14.35-5.29S129.27,144.89,129.27,144.89Z"/><path class="cls-106" d="M129.3,144.92c3.22-12,5-16.32,7.51-16.18,4.79,1.08.89,7.51-1.86,16.62,0,0-.19,11.42-4.65,17.16-9.5,10.93-16,10.58-16,10.58s-11.67,1-11.09-4.28c.62-5.7,8.3-5.25,8.3-5.25,5.84,1.12,12.43-2,14.34-5.33S129.3,144.92,129.3,144.92Z"/><path class="cls-107" d="M129.34,145c3.21-12,5-16.28,7.47-16.13,4.77,1.07.82,7.49-1.92,16.57,0,0-.17,11.37-4.61,17.09-9.47,10.89-15.93,10.56-15.93,10.56s-11.68,1-11.11-4.23c.62-5.64,8.28-5.19,8.28-5.19,5.83,1.12,12.44-2,14.34-5.35S129.34,145,129.34,145Z"/><path class="cls-108" d="M129.38,145c3.2-12,4.94-16.22,7.43-16.08,4.76,1.07.76,7.47-2,16.52,0,0-.15,11.32-4.58,17C120.82,173.31,114.43,173,114.43,173s-11.69,1-11.13-4.16c.62-5.59,8.26-5.13,8.26-5.13,5.81,1.12,12.45-2,14.34-5.38S129.38,145,129.38,145Z"/><path class="cls-109" d="M129.41,145c3.19-11.93,4.91-16.18,7.4-16,4.74,1.07.7,7.46-2,16.48,0,0-.13,11.27-4.55,16.95-9.41,10.83-15.72,10.52-15.72,10.52s-11.72,1-11.15-4.1c.61-5.54,8.24-5.07,8.24-5.07,5.79,1.11,12.44-2.1,14.33-5.42S129.41,145,129.41,145Z"/><path class="cls-110" d="M129.45,145.07c3.18-11.9,4.88-16.13,7.35-16,4.73,1.06.65,7.44-2.06,16.43,0,0-.12,11.21-4.52,16.88-9.38,10.79-15.62,10.5-15.62,10.5s-11.73,1-11.17-4c.61-5.48,8.22-5,8.22-5,5.77,1.11,12.45-2.14,14.33-5.45S129.45,145.07,129.45,145.07Z"/><path class="cls-111" d="M129.49,145.1c3.16-11.86,4.85-16.08,7.31-15.94,4.72,1.06.59,7.42-2.12,16.39,0,0-.09,11.16-4.48,16.8-9.35,10.76-15.51,10.49-15.51,10.49s-11.75,1-11.2-4c.61-5.43,8.21-4.94,8.21-4.94,5.75,1.11,12.44-2.18,14.32-5.48S129.49,145.1,129.49,145.1Z"/><path class="cls-112" d="M129.52,145.14c3.16-11.82,4.82-16,7.28-15.9,4.7,1.06.53,7.41-2.17,16.34,0,0-.07,11.12-4.45,16.74-9.32,10.72-15.41,10.46-15.41,10.46s-11.76,1-11.21-3.92c.6-5.38,8.18-4.88,8.18-4.88,5.74,1.1,12.45-2.23,14.32-5.52S129.52,145.14,129.52,145.14Z"/><path class="cls-113" d="M129.56,145.18c3.15-11.79,4.79-16,7.24-15.85,4.69,1,.47,7.38-2.22,16.29,0,0-.06,11.06-4.42,16.67-9.29,10.69-15.31,10.44-15.31,10.44s-11.78,1-11.23-3.86c.6-5.33,8.17-4.82,8.17-4.82,5.71,1.1,12.44-2.27,14.31-5.55S129.56,145.18,129.56,145.18Z"/><path class="cls-114" d="M129.59,145.21c3.14-11.74,4.77-15.94,7.21-15.8,4.67,1.05.41,7.37-2.27,16.25,0,0,0,11-4.39,16.6-9.26,10.65-15.2,10.42-15.2,10.42s-11.8,1-11.26-3.81c.6-5.27,8.15-4.75,8.15-4.75,5.7,1.09,12.45-2.32,14.31-5.58S129.59,145.21,129.59,145.21Z"/><path class="cls-115" d="M129.63,145.25c3.13-11.71,4.73-15.89,7.17-15.75,4.65,1,.34,7.34-2.33,16.19,0,0,0,11-4.34,16.53C120.89,172.84,115,172.63,115,172.63s-11.81,1-11.27-3.75c.59-5.22,8.13-4.69,8.13-4.69,5.67,1.09,12.44-2.36,14.3-5.62S129.63,145.25,129.63,145.25Z"/><path class="cls-116" d="M129.67,145.29c3.12-11.67,4.7-15.85,7.13-15.71,4.64,1,.28,7.33-2.38,16.15,0,0,0,10.91-4.31,16.46-9.21,10.58-15,10.38-15,10.38s-11.83,1-11.3-3.68c.59-5.17,8.11-4.63,8.11-4.63,5.66,1.08,12.45-2.4,14.3-5.65S129.67,145.29,129.67,145.29Z"/><path class="cls-117" d="M129.7,145.32c3.11-11.63,4.68-15.8,7.1-15.66,4.62,1,.22,7.32-2.43,16.11,0,0,0,10.85-4.28,16.39-9.18,10.55-14.9,10.36-14.9,10.36s-11.85,1-11.32-3.62c.59-5.12,8.09-4.57,8.09-4.57,5.65,1.08,12.46-2.45,14.3-5.68S129.7,145.32,129.7,145.32Z"/><path class="cls-118" d="M129.74,145.36c3.1-11.59,4.65-15.75,7.06-15.61,4.61,1,.16,7.29-2.48,16.05,0,0,0,10.81-4.25,16.32-9.15,10.52-14.8,10.35-14.8,10.35s-11.86,1-11.33-3.57c.58-5.06,8.07-4.5,8.07-4.5,5.62,1.08,12.45-2.49,14.29-5.72S129.74,145.36,129.74,145.36Z"/><path class="cls-119" d="M129.78,145.39c3.08-11.55,4.61-15.7,7-15.56,4.59,1,.1,7.28-2.54,16,0,0,.06,10.75-4.21,16.25-9.11,10.48-14.69,10.32-14.69,10.32s-11.88,1-11.36-3.5c.58-5,8-4.44,8-4.44,5.61,1.07,12.46-2.54,14.29-5.75S129.78,145.39,129.78,145.39Z"/><path class="cls-120" d="M129.81,145.43c3.08-11.52,4.59-15.65,7-15.52,4.58,1,.05,7.26-2.58,16,0,0,.08,10.7-4.18,16.18-9.08,10.44-14.59,10.3-14.59,10.3s-11.9,1-11.38-3.44c.58-5,8-4.39,8-4.39,5.58,1.08,12.45-2.57,14.28-5.77S129.81,145.43,129.81,145.43Z"/><path class="cls-121" d="M129.85,145.47c3.07-11.48,4.56-15.61,6.94-15.47,4.57,1,0,7.24-2.63,15.92,0,0,.1,10.64-4.15,16.11-9,10.41-14.48,10.28-14.48,10.28s-11.92,1-11.4-3.38c.57-4.92,8-4.33,8-4.33,5.57,1.07,12.46-2.61,14.28-5.81S129.85,145.47,129.85,145.47Z"/></g></g></svg>