<svg width="512" height="512" viewBox="0 0 512 512" fill="none" xmlns="http://www.w3.org/2000/svg">
<path d="M415.708 179.096L433.351 196.739L454.859 175.231L398.063 118.435L376.555 139.943L394.199 157.587L382.435 169.351C357.005 147.586 325.923 132.253 291.724 125.885V112.779C317.443 107.265 336.787 84.366 336.787 57.025C336.787 25.582 311.205 0 279.76 0H232.241C200.796 0 175.214 25.582 175.214 57.026C175.214 84.366 194.558 107.266 220.277 112.78V125.886C186.078 132.254 154.995 147.588 129.566 169.352L117.802 157.588L135.446 139.944L113.938 118.436L57.142 175.232L78.65 196.739L96.293 179.096L108.057 190.86C78.92 224.904 61.295 269.077 61.295 317.295C61.294 424.656 148.638 512 256 512C363.362 512 450.706 424.656 450.706 317.295C450.706 269.077 433.08 224.904 403.944 190.86L415.708 179.096ZM205.631 57.026C205.631 42.354 217.568 30.417 232.241 30.417H279.76C294.433 30.417 306.37 42.354 306.37 57.026C306.37 67.446 300.346 76.481 291.6 80.846C290.143 62.477 274.739 47.971 256.001 47.971C237.263 47.971 221.859 62.477 220.402 80.846C211.655 76.482 205.631 67.446 205.631 57.026ZM261.306 83.694V122.664C261.299 122.664 261.293 122.664 261.286 122.664C259.529 122.616 257.768 122.59 256 122.59C254.232 122.59 252.471 122.616 250.713 122.664C250.708 122.663 250.701 122.663 250.695 122.663V83.694C250.695 80.769 253.076 78.389 256.001 78.389C258.926 78.389 261.306 80.77 261.306 83.694ZM420.289 317.295C420.289 407.883 346.59 481.582 256 481.582C165.41 481.582 91.711 407.884 91.711 317.295C91.711 232.938 155.623 163.239 237.565 154.047C238.922 153.896 240.279 153.76 241.638 153.641C241.787 153.628 241.936 153.614 242.085 153.601C243.498 153.481 244.911 153.382 246.321 153.299C246.466 153.291 246.609 153.28 246.754 153.272C248.119 153.195 249.48 153.139 250.839 153.096C251.04 153.09 251.238 153.079 251.439 153.073C252.965 153.029 254.487 153.007 256 153.007C257.513 153.007 259.035 153.03 260.561 153.073C260.762 153.078 260.96 153.089 261.161 153.096C262.52 153.14 263.881 153.195 265.246 153.272C265.391 153.28 265.535 153.291 265.679 153.299C267.089 153.382 268.503 153.481 269.915 153.601C270.064 153.613 270.213 153.628 270.362 153.641C271.721 153.76 273.078 153.896 274.435 154.047C356.377 163.24 420.289 232.938 420.289 317.295Z" fill="white"/>
<path d="M256 173.284H240.791V332.502H400.01V317.293C400.01 237.886 335.408 173.284 256 173.284ZM271.209 302.085V204.715C321.702 211.502 361.792 251.592 368.58 302.085H271.209Z" fill="white"/>
<path d="M164.929 204.713L143.422 226.221L164.924 247.723L186.432 226.215L164.929 204.713Z" fill="white"/>
<path d="M347.075 386.876L325.567 408.383L347.07 429.886L368.578 408.378L347.075 386.876Z" fill="white"/>
<path d="M164.913 386.865L143.411 408.368L164.918 429.876L186.421 408.373L164.913 386.865Z" fill="white"/>
<path d="M271.21 430.901H240.793V461.309H271.21V430.901Z" fill="white"/>
<path d="M142.396 302.084H111.987V332.501H142.396V302.084Z" fill="white"/>
</svg>
