<svg width="373" height="312" viewBox="0 0 373 312" fill="none" xmlns="http://www.w3.org/2000/svg">
<path d="M372.482 233.045C372.482 211.249 365.955 190.203 353.605 172.182C344.722 159.22 333.283 148.456 320.027 140.457C335.634 125.677 345.399 104.787 345.399 81.646C345.399 36.962 309.045 0.608032 264.362 0.608032C237.866 0.608032 213.046 13.712 197.97 35.223C194.139 34.665 190.225 34.364 186.241 34.364C182.257 34.364 178.344 34.666 174.513 35.223C159.436 13.712 134.616 0.608032 108.121 0.608032C63.437 0.608032 27.083 36.962 27.083 81.646C27.083 104.787 36.848 125.677 52.456 140.457C39.199 148.455 27.76 159.22 18.878 172.181C6.528 190.203 0 211.249 0 233.045V278.12H78.121V311.875H294.363V278.12H372.483V233.045H372.482ZM264.362 20.609C298.018 20.609 325.399 47.99 325.399 81.647C325.399 115.304 298.018 142.685 264.362 142.685C263.759 142.685 263.156 142.676 262.552 142.658C262.598 142.53 262.636 142.399 262.681 142.271C263.723 139.317 264.592 136.283 265.289 133.184C265.338 132.964 265.394 132.746 265.441 132.525C265.622 131.689 265.781 130.845 265.936 129.999C266.009 129.599 266.084 129.2 266.151 128.799C266.277 128.044 266.391 127.286 266.496 126.525C266.569 125.996 266.635 125.467 266.698 124.937C266.777 124.265 266.854 123.592 266.917 122.915C266.981 122.224 267.029 121.532 267.075 120.839C267.111 120.293 267.156 119.749 267.181 119.2C267.236 118.023 267.267 116.844 267.271 115.664C267.271 115.577 267.278 115.492 267.278 115.404C267.278 115.357 267.274 115.31 267.274 115.263C267.272 114.058 267.237 112.86 267.183 111.666C267.167 111.319 267.146 110.973 267.126 110.627C267.067 109.612 266.99 108.602 266.895 107.597C266.873 107.369 266.855 107.141 266.832 106.914C263.81 77.705 245.357 52.704 218.737 41.14C230.208 28.253 246.8 20.609 264.362 20.609ZM165.122 58.131C165.317 58.06 165.514 57.993 165.709 57.923C166.316 57.706 166.928 57.5 167.543 57.301C168.009 57.152 168.478 57.008 168.95 56.87C169.293 56.769 169.637 56.672 169.982 56.576C170.598 56.407 171.217 56.242 171.842 56.091C176.462 54.969 181.28 54.36 186.239 54.36C191.202 54.364 196.022 54.974 200.643 56.096C201.264 56.246 201.879 56.41 202.492 56.578C202.842 56.675 203.192 56.773 203.539 56.876C204.005 57.013 204.469 57.155 204.93 57.302C205.553 57.503 206.172 57.711 206.786 57.931C206.975 57.998 207.164 58.062 207.352 58.131C227.765 65.68 243.07 83.847 246.534 105.894C246.561 106.07 246.587 106.247 246.613 106.424C246.724 107.171 246.817 107.924 246.9 108.679C246.93 108.957 246.962 109.234 246.989 109.513C247.055 110.202 247.104 110.896 247.148 111.592C247.166 111.89 247.191 112.187 247.205 112.486C247.247 113.375 247.27 114.269 247.273 115.168C247.273 115.246 247.278 115.322 247.278 115.4C247.278 115.436 247.276 115.473 247.276 115.509C247.274 116.379 247.248 117.243 247.21 118.104C247.198 118.375 247.186 118.646 247.17 118.916C247.123 119.748 247.061 120.576 246.981 121.398C246.95 121.716 246.908 122.033 246.872 122.35C246.811 122.882 246.743 123.413 246.669 123.941C246.611 124.352 246.553 124.764 246.487 125.173C246.386 125.796 246.274 126.415 246.154 127.032C246.047 127.581 245.93 128.128 245.808 128.674C245.735 129.003 245.659 129.332 245.58 129.659C245.385 130.47 245.171 131.276 244.943 132.079C244.852 132.398 244.767 132.719 244.671 133.035C244.532 133.495 244.382 133.951 244.233 134.407C244.113 134.772 243.99 135.135 243.863 135.497C243.719 135.908 243.577 136.32 243.425 136.728C243.166 137.421 242.894 138.108 242.611 138.789C242.485 139.093 242.351 139.394 242.22 139.697C241.973 140.264 241.719 140.828 241.455 141.386C241.424 141.452 241.393 141.518 241.362 141.584C241.267 141.782 241.173 141.981 241.076 142.179C240.78 142.783 240.472 143.38 240.156 143.972C240.033 144.202 239.914 144.435 239.788 144.664C239.78 144.679 239.772 144.693 239.764 144.707C239.418 145.337 239.057 145.957 238.69 146.573C238.544 146.817 238.4 147.062 238.251 147.303C237.851 147.952 237.44 148.594 237.017 149.226C236.754 149.619 236.479 150.004 236.207 150.391C235.976 150.719 235.746 151.048 235.509 151.371C235.202 151.789 234.889 152.202 234.571 152.613C234.355 152.892 234.137 153.169 233.917 153.445C233.581 153.865 233.242 154.283 232.896 154.694C232.681 154.949 232.46 155.199 232.241 155.45C231.881 155.863 231.522 156.277 231.152 156.68C230.932 156.919 230.704 157.149 230.48 157.385C229.878 158.02 229.262 158.641 228.634 159.25C228.261 159.611 227.89 159.973 227.508 160.324C227.244 160.567 226.973 160.803 226.704 161.042C226.266 161.431 225.825 161.816 225.376 162.192C225.148 162.383 224.918 162.572 224.687 162.76C224.144 163.202 223.594 163.635 223.035 164.059C222.883 164.174 222.733 164.291 222.58 164.405C212.42 171.958 199.844 176.435 186.24 176.435C172.635 176.435 160.057 171.957 149.897 164.402C149.747 164.29 149.6 164.175 149.451 164.062C148.89 163.637 148.337 163.201 147.792 162.757C147.563 162.57 147.334 162.383 147.108 162.193C146.657 161.815 146.215 161.428 145.775 161.038C145.508 160.8 145.238 160.566 144.975 160.324C144.592 159.972 144.22 159.609 143.846 159.248C143.215 158.637 142.598 158.014 141.994 157.377C141.773 157.144 141.547 156.917 141.33 156.681C140.959 156.277 140.6 155.862 140.24 155.449C140.021 155.198 139.801 154.949 139.586 154.694C139.239 154.283 138.901 153.865 138.565 153.446C138.345 153.17 138.126 152.893 137.91 152.613C137.593 152.203 137.28 151.79 136.973 151.372C136.736 151.048 136.505 150.718 136.274 150.389C136.002 150.003 135.728 149.619 135.466 149.227C135.041 148.592 134.628 147.948 134.227 147.297C134.08 147.058 133.938 146.817 133.794 146.576C133.421 145.951 133.056 145.323 132.705 144.684C132.576 144.449 132.454 144.21 132.327 143.974C132.011 143.38 131.702 142.781 131.405 142.176C131.299 141.961 131.196 141.744 131.093 141.528C131.077 141.495 131.062 141.462 131.047 141.429C130.77 140.845 130.505 140.255 130.246 139.66C130.123 139.377 129.998 139.095 129.88 138.811C129.59 138.115 129.313 137.413 129.048 136.705C128.905 136.323 128.773 135.937 128.638 135.552C128.499 135.157 128.365 134.759 128.234 134.36C128.093 133.928 127.951 133.496 127.819 133.062C127.622 132.413 127.436 131.76 127.261 131.103C127.138 130.642 127.027 130.177 126.914 129.713C126.826 129.348 126.741 128.983 126.66 128.616C126.56 128.166 126.459 127.717 126.369 127.265C126.23 126.561 126.103 125.853 125.989 125.141C125.927 124.757 125.873 124.372 125.818 123.988C125.737 123.419 125.664 122.847 125.599 122.273C125.567 121.99 125.53 121.707 125.501 121.424C125.418 120.581 125.355 119.732 125.307 118.88C125.293 118.635 125.282 118.39 125.271 118.145C125.23 117.234 125.201 116.32 125.201 115.4C125.201 114.414 125.229 113.435 125.276 112.46C125.289 112.195 125.311 111.932 125.326 111.668C125.37 110.936 125.423 110.206 125.493 109.48C125.517 109.227 125.546 108.975 125.573 108.723C125.659 107.937 125.756 107.155 125.872 106.378C125.894 106.227 125.916 106.075 125.94 105.924C129.393 83.864 144.701 65.685 165.122 58.131ZM47.083 81.647C47.083 47.991 74.464 20.609 108.121 20.609C125.684 20.609 142.275 28.254 153.746 41.138C127.117 52.706 108.66 77.719 105.647 106.94C105.626 107.138 105.611 107.337 105.592 107.536C105.492 108.577 105.413 109.622 105.353 110.673C105.335 110.993 105.315 111.312 105.3 111.633C105.243 112.884 105.204 114.139 105.204 115.403C105.204 116.679 105.241 117.952 105.301 119.224C105.325 119.736 105.367 120.243 105.4 120.752C105.449 121.484 105.499 122.216 105.567 122.946C105.627 123.595 105.701 124.24 105.777 124.885C105.843 125.447 105.913 126.007 105.991 126.567C106.093 127.302 106.203 128.034 106.324 128.763C106.397 129.196 106.477 129.628 106.556 130.06C106.706 130.876 106.859 131.69 107.033 132.497C107.091 132.763 107.157 133.027 107.217 133.292C107.896 136.295 108.739 139.235 109.743 142.102C109.807 142.287 109.863 142.474 109.928 142.658C109.325 142.676 108.721 142.685 108.119 142.685C74.464 142.684 47.083 115.303 47.083 81.647ZM94.888 209.148C94.668 209.495 94.458 209.848 94.242 210.197C93.785 210.935 93.332 211.675 92.894 212.422C92.649 212.839 92.413 213.259 92.175 213.679C91.781 214.372 91.392 215.067 91.014 215.768C90.776 216.209 90.542 216.652 90.31 217.095C89.946 217.792 89.591 218.493 89.243 219.196C89.024 219.638 88.806 220.079 88.594 220.523C88.24 221.264 87.899 222.011 87.562 222.759C87.379 223.166 87.191 223.57 87.014 223.979C86.624 224.875 86.252 225.778 85.887 226.684C85.78 226.949 85.666 227.211 85.562 227.476C85.099 228.653 84.656 229.838 84.236 231.029C84.14 231.302 84.054 231.578 83.959 231.851C83.643 232.769 83.335 233.69 83.044 234.615C82.911 235.04 82.788 235.467 82.66 235.893C82.425 236.677 82.194 237.462 81.977 238.252C81.848 238.722 81.725 239.193 81.602 239.665C81.404 240.423 81.214 241.183 81.034 241.946C80.919 242.429 80.807 242.912 80.7 243.396C80.528 244.169 80.367 244.945 80.212 245.722C80.119 246.189 80.023 246.656 79.936 247.125C79.779 247.971 79.638 248.821 79.501 249.672C79.437 250.072 79.366 250.47 79.306 250.87C79.12 252.12 78.951 253.373 78.809 254.632C78.807 254.647 78.806 254.662 78.805 254.677C78.676 255.822 78.565 256.969 78.472 258.12H20V233.045C20 198.787 39.694 168.032 70.548 153.414C81.788 159.322 94.565 162.685 108.12 162.685C112.04 162.685 115.972 162.395 119.874 161.821C120.482 162.688 121.1 163.546 121.74 164.388C121.956 164.671 122.18 164.947 122.4 165.227C123.032 166.035 123.673 166.834 124.335 167.617C124.606 167.938 124.884 168.252 125.16 168.569C125.78 169.281 126.41 169.984 127.054 170.673C127.392 171.036 127.736 171.393 128.08 171.75C128.669 172.357 129.266 172.955 129.873 173.544C130.101 173.765 130.316 173.999 130.546 174.218C129.677 174.743 128.816 175.281 127.963 175.83C127.824 175.919 127.688 176.013 127.55 176.103C126.697 176.657 125.853 177.223 125.017 177.8C124.728 178 124.44 178.202 124.152 178.404C123.407 178.929 122.67 179.463 121.939 180.006C121.708 180.178 121.474 180.346 121.245 180.52C120.315 181.223 119.396 181.939 118.489 182.671C118.291 182.831 118.097 182.996 117.899 183.158C117.177 183.749 116.462 184.35 115.756 184.96C115.482 185.196 115.21 185.434 114.938 185.673C114.231 186.296 113.533 186.928 112.842 187.569C112.662 187.736 112.478 187.9 112.299 188.069C111.451 188.867 110.616 189.68 109.793 190.507C109.579 190.722 109.37 190.941 109.158 191.157C108.528 191.8 107.905 192.45 107.29 193.109C107.046 193.371 106.802 193.633 106.56 193.898C105.868 194.654 105.186 195.42 104.515 196.197C104.41 196.319 104.301 196.437 104.196 196.56C103.431 197.453 102.683 198.363 101.945 199.282C101.739 199.538 101.538 199.798 101.335 200.057C100.78 200.762 100.233 201.474 99.695 202.193C99.487 202.471 99.278 202.747 99.073 203.027C98.369 203.987 97.674 204.955 96.999 205.94C96.274 206.998 95.572 208.069 94.888 209.148ZM98.121 291.876V278.121V266.801C98.121 265.691 98.142 264.585 98.183 263.482C98.196 263.119 98.225 262.759 98.243 262.397C98.279 261.661 98.313 260.924 98.367 260.191C98.4 259.746 98.45 259.305 98.49 258.861C98.548 258.215 98.6 257.568 98.672 256.926C98.725 256.456 98.794 255.989 98.854 255.52C98.932 254.909 99.005 254.297 99.095 253.689C99.168 253.205 99.256 252.725 99.336 252.243C99.434 251.657 99.525 251.069 99.635 250.486C99.728 249.993 99.836 249.505 99.937 249.014C100.053 248.448 100.164 247.88 100.291 247.318C100.403 246.822 100.531 246.331 100.651 245.837C100.786 245.287 100.915 244.734 101.06 244.187C101.192 243.69 101.338 243.198 101.478 242.705C101.63 242.168 101.778 241.63 101.94 241.097C102.091 240.601 102.257 240.109 102.416 239.616C102.586 239.093 102.751 238.569 102.93 238.05C103.1 237.559 103.283 237.072 103.461 236.585C103.649 236.071 103.833 235.555 104.03 235.045C104.218 234.56 104.418 234.081 104.613 233.599C104.818 233.096 105.02 232.59 105.234 232.091C105.441 231.61 105.659 231.134 105.874 230.658C106.095 230.167 106.314 229.674 106.544 229.188C106.769 228.713 107.005 228.244 107.238 227.773C107.476 227.293 107.711 226.812 107.957 226.337C108.2 225.869 108.453 225.407 108.704 224.944C108.958 224.475 109.209 224.006 109.471 223.542C109.731 223.082 110.001 222.629 110.268 222.174C110.538 221.716 110.806 221.257 111.085 220.803C111.362 220.352 111.648 219.908 111.933 219.462C112.219 219.015 112.503 218.568 112.797 218.126C113.091 217.684 113.393 217.248 113.695 216.812C113.996 216.377 114.296 215.942 114.604 215.512C114.914 215.08 115.233 214.654 115.552 214.227C115.868 213.804 116.183 213.381 116.506 212.964C116.832 212.543 117.166 212.128 117.5 211.712C117.831 211.3 118.163 210.889 118.501 210.483C118.842 210.075 119.19 209.672 119.538 209.27C119.885 208.869 120.233 208.468 120.588 208.072C120.943 207.676 121.306 207.286 121.668 206.896C122.03 206.507 122.392 206.12 122.761 205.738C123.131 205.354 123.508 204.976 123.886 204.599C124.263 204.222 124.642 203.847 125.026 203.476C125.409 203.107 125.798 202.743 126.189 202.38C126.581 202.016 126.975 201.653 127.374 201.295C127.772 200.939 128.174 200.588 128.579 200.239C128.985 199.888 129.394 199.539 129.807 199.195C130.218 198.853 130.633 198.516 131.051 198.181C131.472 197.843 131.896 197.508 132.324 197.177C132.747 196.851 133.174 196.529 133.603 196.209C134.039 195.884 134.478 195.563 134.922 195.246C135.356 194.935 135.794 194.629 136.235 194.325C136.687 194.014 137.141 193.707 137.599 193.404C138.044 193.11 138.493 192.819 138.944 192.532C139.411 192.235 139.881 191.942 140.354 191.654C140.81 191.376 141.269 191.101 141.731 190.831C142.211 190.55 142.695 190.273 143.182 190C143.649 189.738 144.119 189.479 144.592 189.225C145.087 188.959 145.586 188.698 146.088 188.44C146.564 188.195 147.042 187.954 147.524 187.717C147.903 187.531 148.286 187.351 148.669 187.17C159.908 193.078 172.687 196.44 186.241 196.44C199.796 196.44 212.574 193.078 223.813 187.17C224.193 187.35 224.573 187.529 224.949 187.713C225.437 187.953 225.92 188.197 226.402 188.444C226.898 188.699 227.392 188.957 227.882 189.22C228.36 189.477 228.835 189.739 229.307 190.004C229.788 190.274 230.266 190.547 230.74 190.825C231.209 191.099 231.674 191.378 232.136 191.66C232.603 191.945 233.066 192.233 233.526 192.526C233.984 192.817 234.438 193.111 234.889 193.41C235.342 193.709 235.791 194.013 236.237 194.32C236.682 194.627 237.125 194.936 237.564 195.25C238.003 195.564 238.437 195.882 238.869 196.204C239.303 196.526 239.734 196.851 240.161 197.181C240.585 197.509 241.005 197.841 241.423 198.176C241.843 198.513 242.261 198.852 242.675 199.196C243.086 199.538 243.492 199.885 243.896 200.234C244.303 200.585 244.708 200.938 245.108 201.297C245.504 201.652 245.895 202.012 246.284 202.373C246.678 202.739 247.071 203.107 247.458 203.48C247.839 203.847 248.214 204.219 248.587 204.592C248.967 204.972 249.347 205.353 249.72 205.739C250.086 206.119 250.447 206.503 250.806 206.889C251.172 207.282 251.537 207.676 251.895 208.075C252.247 208.467 252.592 208.864 252.936 209.262C253.287 209.667 253.638 210.073 253.981 210.485C254.318 210.888 254.647 211.297 254.976 211.706C255.312 212.124 255.648 212.541 255.976 212.965C256.298 213.38 256.611 213.801 256.925 214.222C257.245 214.65 257.565 215.079 257.877 215.513C258.184 215.94 258.483 216.374 258.782 216.807C259.085 217.245 259.389 217.683 259.684 218.127C259.976 218.566 260.258 219.01 260.542 219.454C260.829 219.903 261.117 220.351 261.396 220.805C261.672 221.254 261.938 221.71 262.206 222.164C262.476 222.622 262.748 223.079 263.009 223.542C263.27 224.004 263.52 224.472 263.773 224.938C264.025 225.403 264.279 225.867 264.522 226.336C264.768 226.81 265.002 227.291 265.24 227.77C265.473 228.241 265.71 228.711 265.935 229.187C266.165 229.673 266.383 230.164 266.603 230.654C266.819 231.133 267.038 231.609 267.245 232.092C267.458 232.587 267.657 233.088 267.861 233.588C268.059 234.074 268.261 234.558 268.45 235.048C268.646 235.555 268.829 236.068 269.016 236.58C269.195 237.069 269.378 237.556 269.548 238.049C269.728 238.57 269.894 239.097 270.064 239.622C270.223 240.113 270.388 240.602 270.538 241.097C270.701 241.63 270.848 242.169 271.001 242.706C271.141 243.199 271.287 243.69 271.419 244.187C271.564 244.734 271.693 245.286 271.828 245.837C271.949 246.33 272.076 246.822 272.188 247.318C272.315 247.88 272.425 248.447 272.542 249.012C272.643 249.503 272.751 249.992 272.844 250.486C272.953 251.064 273.043 251.647 273.141 252.229C273.222 252.716 273.312 253.2 273.385 253.69C273.475 254.293 273.547 254.901 273.625 255.507C273.686 255.98 273.756 256.45 273.809 256.925C273.881 257.567 273.933 258.214 273.991 258.86C274.031 259.304 274.081 259.745 274.114 260.19C274.169 260.923 274.202 261.661 274.238 262.398C274.256 262.759 274.285 263.119 274.298 263.481C274.339 264.584 274.36 265.69 274.36 266.8V278.119V291.876H98.121V291.876ZM294.015 258.12C293.819 255.684 293.537 253.263 293.179 250.857C293.122 250.476 293.054 250.098 292.993 249.718C292.854 248.847 292.709 247.978 292.548 247.112C292.463 246.656 292.37 246.202 292.279 245.747C292.122 244.956 291.958 244.167 291.783 243.381C291.677 242.907 291.567 242.433 291.455 241.961C291.272 241.189 291.08 240.42 290.88 239.653C290.759 239.188 290.638 238.724 290.51 238.26C290.291 237.462 290.057 236.668 289.819 235.875C289.693 235.457 289.573 235.038 289.442 234.621C289.147 233.682 288.835 232.748 288.514 231.816C288.424 231.556 288.342 231.293 288.25 231.033C287.828 229.838 287.385 228.65 286.92 227.469C286.82 227.216 286.711 226.966 286.609 226.713C286.24 225.796 285.862 224.881 285.467 223.973C285.292 223.57 285.107 223.172 284.927 222.771C284.587 222.015 284.243 221.262 283.885 220.514C283.676 220.076 283.46 219.641 283.245 219.206C282.894 218.496 282.535 217.789 282.168 217.086C281.938 216.646 281.707 216.208 281.471 215.771C281.091 215.068 280.701 214.37 280.305 213.674C280.067 213.256 279.832 212.838 279.589 212.423C279.149 211.672 278.694 210.929 278.234 210.187C278.02 209.841 277.812 209.492 277.594 209.149C276.909 208.07 276.207 206.999 275.481 205.94C274.805 204.954 274.11 203.986 273.406 203.026C273.202 202.748 272.994 202.473 272.788 202.197C272.247 201.474 271.698 200.76 271.141 200.052C270.94 199.797 270.741 199.539 270.537 199.286C269.798 198.364 269.047 197.452 268.28 196.557C268.18 196.441 268.077 196.328 267.977 196.212C267.301 195.429 266.613 194.657 265.916 193.895C265.676 193.633 265.435 193.374 265.193 193.114C264.575 192.451 263.948 191.796 263.314 191.15C263.105 190.937 262.9 190.722 262.689 190.511C261.864 189.683 261.026 188.867 260.176 188.067C260.001 187.902 259.821 187.742 259.645 187.578C258.95 186.933 258.248 186.298 257.538 185.672C257.268 185.434 256.996 185.198 256.724 184.962C256.016 184.351 255.301 183.75 254.578 183.158C254.381 182.997 254.188 182.832 253.99 182.672C253.084 181.94 252.165 181.224 251.236 180.522C251.004 180.347 250.768 180.177 250.535 180.004C249.807 179.464 249.074 178.932 248.332 178.41C248.041 178.205 247.75 178.001 247.458 177.799C246.63 177.228 245.795 176.668 244.951 176.12C244.803 176.024 244.658 175.924 244.51 175.829C243.658 175.282 242.8 174.745 241.932 174.221C242.156 174.008 242.366 173.781 242.587 173.565C243.207 172.965 243.816 172.355 244.416 171.735C244.751 171.389 245.084 171.042 245.412 170.69C246.067 169.99 246.705 169.276 247.335 168.553C247.603 168.246 247.872 167.941 248.135 167.629C248.806 166.835 249.458 166.024 250.099 165.203C250.309 164.935 250.524 164.671 250.73 164.4C251.373 163.555 251.994 162.693 252.605 161.823C256.507 162.396 260.439 162.686 264.359 162.686C277.914 162.686 290.692 159.324 301.931 153.415C332.786 168.033 352.479 198.788 352.479 233.046V258.12H294.015V258.12Z" fill="white"/>
</svg>
