<svg width="453" height="453" viewBox="0 0 453 453" fill="none" xmlns="http://www.w3.org/2000/svg">
<g clip-path="url(#clip0_30_104)">
<path d="M234.873 126.705H222.525C217.002 126.705 212.525 131.182 212.525 136.705V180.203V223.701C212.525 229.224 217.002 233.701 222.525 233.701H244.274C261.78 233.701 276.023 219.459 276.023 201.952C276.023 190.872 270.314 181.105 261.687 175.423C264.807 170.51 266.623 164.692 266.623 158.454C266.622 140.948 252.379 126.705 234.873 126.705V126.705ZM232.525 146.705H234.873C241.352 146.705 246.622 151.976 246.622 158.454C246.622 164.932 241.351 170.203 234.873 170.203H232.525V146.705ZM244.274 213.701H232.525V190.203H234.873H244.274C250.752 190.203 256.023 195.474 256.023 201.952C256.022 208.431 250.752 213.701 244.274 213.701V213.701Z" fill="white"/>
<path d="M310.048 146.708C316.527 146.708 321.798 151.979 321.798 158.458C321.798 163.981 326.275 168.458 331.798 168.458C337.321 168.458 341.798 163.981 341.798 158.458C341.798 140.951 327.555 126.708 310.048 126.708C292.541 126.708 278.298 140.951 278.298 158.458V201.948C278.298 219.455 292.541 233.698 310.048 233.698C327.555 233.698 341.798 219.455 341.798 201.948C341.798 196.425 337.321 191.948 331.798 191.948C326.275 191.948 321.798 196.425 321.798 201.948C321.798 208.427 316.527 213.698 310.048 213.698C303.569 213.698 298.298 208.427 298.298 201.948V158.458C298.298 151.979 303.569 146.708 310.048 146.708Z" fill="white"/>
<path d="M150.541 233.383C151.381 233.6 152.223 233.704 153.052 233.704C157.501 233.704 161.561 230.713 162.727 226.205L165.985 213.607H185.103L188.361 226.206C189.744 231.553 195.2 234.765 200.547 233.383C205.894 232 209.108 226.545 207.725 221.198L185.226 134.202C184.084 129.789 180.103 126.706 175.544 126.706C170.985 126.706 167.004 129.789 165.862 134.202L143.363 221.198C141.98 226.544 145.194 232 150.541 233.383V233.383ZM179.93 193.606H171.157L175.544 176.644L179.93 193.606Z" fill="white"/>
<path d="M331.798 242.2H153.045C147.522 242.2 143.045 246.677 143.045 252.2C143.045 257.723 147.522 262.2 153.045 262.2H331.798C337.321 262.2 341.798 257.723 341.798 252.2C341.798 246.677 337.321 242.2 331.798 242.2Z" fill="white"/>
<path d="M153.045 116.707H331.798C337.321 116.707 341.798 112.23 341.798 106.707C341.798 101.184 337.321 96.707 331.798 96.707H153.045C147.522 96.707 143.045 101.184 143.045 106.707C143.045 112.23 147.522 116.707 153.045 116.707V116.707Z" fill="white"/>
<path d="M379.771 0H117.116C87.241 0 62.936 24.305 62.936 54.18V398.526C62.936 428.401 87.241 452.707 117.116 452.707H379.77C385.293 452.707 389.77 448.23 389.77 442.707V10C389.771 4.477 385.294 0 379.771 0ZM369.771 344.346H127.116V20H369.77V344.346H369.771ZM107.117 21.496V345.287C98.069 346.983 89.806 350.926 82.937 356.527V54.18C82.937 38.812 93.134 25.782 107.117 21.496V21.496ZM117.117 432.707C98.27 432.707 82.937 417.374 82.937 398.526C82.937 379.679 98.27 364.346 117.117 364.346H369.771V374.526H139.117C133.594 374.526 129.117 379.003 129.117 384.526C129.117 390.049 133.594 394.526 139.117 394.526H369.772V402.526H309.117C303.594 402.526 299.117 407.003 299.117 412.526C299.117 418.049 303.594 422.526 309.117 422.526H369.772V432.707H117.117V432.707Z" fill="white"/>
</g>
<defs>
<clipPath id="clip0_30_104">
<rect width="452.707" height="452.707" fill="white"/>
</clipPath>
</defs>
</svg>
