<svg width="54" height="60" viewBox="0 0 54 60" fill="none" xmlns="http://www.w3.org/2000/svg">
<path d="M27.6554 0.00175756C26.4484 0.05449 25.4993 1.0447 25.4993 2.25169V16.8821C25.4582 17.1224 25.4582 17.3684 25.4993 17.6028V39.4225C25.4582 39.3873 25.4231 39.3522 25.3821 39.3229C22.6341 37.2194 18.9838 36.0007 14.9996 36.0007C11.0153 36.0007 7.36502 37.2194 4.61705 39.3229C1.86909 41.4205 0 44.5141 0 48.0004C0 51.4866 1.86909 54.5802 4.61705 56.6778C7.36502 58.7813 11.0153 60 14.9996 60C18.9838 60 22.6341 58.7813 25.3821 56.6778C28.0246 54.6564 29.8409 51.7092 29.9757 48.3812C29.9757 48.3695 29.9757 48.3578 29.9757 48.3519C29.9933 48.2347 29.9991 48.1175 29.9991 48.0004V20.4973L50.9575 28.3603C51.6489 28.6181 52.4223 28.5185 53.0317 28.1025C53.6352 27.6806 53.9984 26.9893 53.9984 26.251V16.4485C53.9984 12.394 51.4731 8.74369 47.6705 7.3199L28.5402 0.142378C28.2589 0.0369135 27.9543 -0.0099601 27.6554 0.00175756ZM29.9991 5.49769L46.0944 11.5327C48.1509 12.3061 49.4986 14.2513 49.4986 16.4485V23.005L29.9991 15.6927V5.49769ZM14.9996 40.5006C18.0581 40.5006 20.7826 41.4673 22.6458 42.8911C24.5149 44.3208 25.4993 46.102 25.4993 48.0004C25.4993 49.8987 24.5149 51.6799 22.6458 53.1096C20.7826 54.5334 18.0581 55.5001 14.9996 55.5001C11.9411 55.5001 9.21653 54.5334 7.3533 53.1096C5.48422 51.6799 4.49987 49.8987 4.49987 48.0004C4.49987 46.102 5.48422 44.3208 7.3533 42.8911C9.21653 41.4673 11.9411 40.5006 14.9996 40.5006Z" fill="white"/>
<line x1="2.70711" y1="4.29289" x2="52.2046" y2="53.7904" stroke="white" stroke-width="2"/>
</svg>
